<?xml version="1.0" encoding="iso-8859-1"?>
<!-- Generator: Adobe Illustrator 18.1.1, SVG Export Plug-In . SVG Version: 6.00 Build 0)  -->
<svg version="1.1" id="Capa_1" xmlns="http://www.w3.org/2000/svg" xmlns:xlink="http://www.w3.org/1999/xlink" x="0px" y="0px"
	 viewBox="0 0 52.666 52.666" style="enable-background:new 0 0 52.666 52.666;" xml:space="preserve">
<g>
	<path style="fill:#010002;" d="M26.332,0C11.789,0,0,11.79,0,26.333s11.789,26.333,26.332,26.333s26.334-11.79,26.334-26.333
		C52.666,11.789,40.875,0,26.332,0z M26.332,45.999c-10.861,0-19.666-8.805-19.666-19.667S15.471,6.665,26.332,6.665
		S46,15.47,46,26.332S37.193,45.999,26.332,45.999z"/>
	<path style="fill:#010002;" d="M24.652,29.619c0.984,0.502,2.084,0.507,3.036,0.13c0.877,0.721,2.08,1.361,3.515,1.808l7.162,2.227
		c3.594,1.115,4.065,0.191,1.056-2.066l-6.001-4.499c-1.201-0.901-2.425-1.501-3.524-1.79c-0.252-0.994-0.9-1.881-1.884-2.385
		c-0.983-0.502-2.083-0.506-3.035-0.129c-0.878-0.721-2.081-1.362-3.515-1.808L14.3,18.88c-3.594-1.116-4.066-0.192-1.056,2.066
		l6,4.499c1.202,0.901,2.426,1.501,3.525,1.789C23.021,28.229,23.669,29.116,24.652,29.619z"/>
	<circle style="fill:#010002;" cx="26.332" cy="26.333" r="1.363"/>
	<path style="fill:#010002;" d="M24.125,6.303c0,0,0.467,0.989,1.041,2.208c0.576,1.22,1.564,1.22,2.209,0l1.166-2.208"/>
	<path style="fill:#010002;" d="M28.541,46.552c0,0-0.467-0.989-1.043-2.208c-0.574-1.22-1.564-1.22-2.207,0l-1.166,2.208"/>
	<path style="fill:#010002;" d="M46.457,23.28c0,0-0.988,0.467-2.208,1.041c-1.22,0.576-1.22,1.564,0,2.209l2.208,1.166"/>
	<path style="fill:#010002;" d="M6.209,27.696c0,0,0.988-0.467,2.208-1.043c1.22-0.574,1.22-1.565,0-2.207L6.209,23.28"/>
</g>
<g>
</g>
<g>
</g>
<g>
</g>
<g>
</g>
<g>
</g>
<g>
</g>
<g>
</g>
<g>
</g>
<g>
</g>
<g>
</g>
<g>
</g>
<g>
</g>
<g>
</g>
<g>
</g>
<g>
</g>
</svg>
