<svg width="1040" height="720" xmlns="http://www.w3.org/2000/svg" xmlns:xlink="http://www.w3.org/1999/xlink" overflow="hidden"><defs><clipPath id="clip0"><rect x="0" y="0" width="1040" height="720"/></clipPath></defs><g clip-path="url(#clip0)"><rect x="0" y="0" width="1040" height="720" fill="#FFFFFF"/><path d="M29.5001 131.5 1010.5 132.5" stroke="#C00000" stroke-width="1.33333" stroke-linejoin="round" stroke-miterlimit="10" fill="none" fill-rule="evenodd"/><text fill="#777777" font-family="Arial Narrow,Arial Narrow_MSFontService,sans-serif" font-weight="400" font-stretch="condensed" font-size="11" transform="translate(924.133 709)">PM.030 / SEITE<tspan fill="#006698" font-family="Arial,Arial_MSFontService,sans-serif" font-stretch="normal" font-size="11" x="66" y="0">-</tspan><tspan fill="#006698" font-family="Arial,Arial_MSFontService,sans-serif" font-stretch="normal" font-size="11" x="72.5" y="0">22</tspan><tspan fill="#006698" font-family="Arial,Arial_MSFontService,sans-serif" font-stretch="normal" font-size="11" x="87.5" y="0">-</tspan></text><path d="M29.5001 694.5 1010.5 694.5" stroke="#C00000" stroke-width="1.33333" stroke-linejoin="round" stroke-miterlimit="10" fill="none" fill-rule="evenodd"/><text fill="#000066" font-family="Arial,Arial_MSFontService,sans-serif" font-weight="700" font-size="11" transform="translate(32 707)">© <tspan fill="#006698" font-family="Arial Black,Arial Black_MSFontService,sans-serif" font-weight="900" font-size="11" x="10.8333" y="0">platinus</tspan><tspan fill="#777777" font-family="Arial Narrow,Arial Narrow_MSFontService,sans-serif" font-weight="400" font-stretch="condensed" font-size="11" x="60.6667" y="0">CONSULTING </tspan><tspan fill="#777777" font-weight="400" font-size="11" x="120.667" y="0">/ </tspan><tspan fill="#777777" font-weight="400" font-size="11" x="126.667" y="0">Projektmanagement Training </tspan><tspan fill="#777777" font-weight="400" font-size="11" x="267.333" y="0">/  PM</tspan><tspan fill="#777777" font-weight="400" font-size="11" x="292.333" y="0">-</tspan><tspan fill="#777777" font-weight="400" font-size="11" x="295.833" y="0">Framework  / 2021</tspan><tspan fill="#000000" font-size="27" x="106.692" y="-639">Prinzipiell lassen sich alle Projekte  nach dem </tspan><tspan fill="#000000" font-size="27" x="694.026" y="-639">Grad des </tspan></text><path d="M725.779 69.6167 841.779 69.6167 841.779 72.6167 725.779 72.6167Z" fill-rule="evenodd"/><text font-family="Arial,Arial_MSFontService,sans-serif" font-weight="700" font-size="27" transform="translate(169.359 97)">Umsetzungszwanges <tspan font-size="27" x="277.167" y="0">und der Dringlichkeit ordnen</tspan></text><path d="M169.779 98.6167 308.279 98.6167 446.779 98.6167 446.779 101.617 308.279 101.617 169.779 101.617Z" fill-rule="evenodd"/><text fill="#C00000" font-family="Arial,Arial_MSFontService,sans-serif" font-weight="700" font-size="21" transform="translate(36.4206 161)">Projekttypen<tspan fill="#000000" font-size="21" x="129.167" y="0">: </tspan><tspan fill="#000000" font-size="21" x="142.333" y="0">Projektportfolio nach Dringlichkeit und Zwang der Umsetzung </tspan><tspan fill="#000000" font-weight="400" font-size="21" x="0" y="37">1.</tspan><tspan fill="#000000" font-weight="400" font-size="21" x="36" y="37">Filter bei PPM: Muss</tspan><tspan fill="#000000" font-weight="400" font-size="21" x="232.833" y="37">-</tspan><tspan fill="#000000" font-weight="400" font-size="21" x="240" y="37">, Soll</tspan><tspan fill="#000000" font-weight="400" font-size="21" x="287.333" y="37">-</tspan><tspan fill="#000000" font-weight="400" font-size="21" x="294.5" y="37">, Kann</tspan><tspan fill="#000000" font-weight="400" font-size="21" x="356.167" y="37">-</tspan><tspan fill="#000000" font-weight="400" font-size="21" x="363.333" y="37">Projekte</tspan><tspan fill="#000000" font-weight="400" font-size="21" x="36" y="60">(Zwang der Umsetzung, Dringlichkeit der Umsetzung)</tspan></text><path d="M248.571 482.393 359.437 371.527 335.025 347.115 415.726 353.977 422.588 434.678 398.176 410.266 287.31 521.132 284.274 485.429Z" stroke="#000000" stroke-miterlimit="8" stroke-dasharray="4 3" fill="#618FFD" fill-rule="evenodd"/><rect x="196.5" y="307.5" width="275" height="285" stroke="#000000" stroke-width="1.33333" stroke-miterlimit="8" fill="#FFFFFF"/><path d="M196.5 498.5 471.5 498.5" stroke="#000000" stroke-width="1.33333" stroke-linejoin="round" stroke-miterlimit="10" stroke-dasharray="1.33333 1.33333" fill="none" fill-rule="evenodd"/><path d="M196.5 403.5 472.5 403.5" stroke="#000000" stroke-width="1.33333" stroke-linejoin="round" stroke-miterlimit="10" stroke-dasharray="1.33333 1.33333" fill="none" fill-rule="evenodd"/><path d="M288.5 307.5 288.5 592.5" stroke="#000000" stroke-width="1.33333" stroke-linejoin="round" stroke-miterlimit="10" stroke-dasharray="1.33333 1.33333" fill="none" fill-rule="evenodd"/><path d="M379.5 307.5 379.5 592.5" stroke="#000000" stroke-width="1.33333" stroke-linejoin="round" stroke-miterlimit="10" stroke-dasharray="1.33333 1.33333" fill="none" fill-rule="evenodd"/><text font-family="Arial,Arial_MSFontService,sans-serif" font-weight="400" font-size="13" transform="translate(150.638 547)">KANN<tspan font-size="13" x="1.66667" y="-91">SOLL</tspan><tspan font-size="13" x="255.148" y="76">SOFORT</tspan><tspan font-size="13" x="-0.666656" y="-185">MUSS</tspan><tspan font-size="13" x="68.9817" y="76">Ausblick</tspan><tspan font-size="13" x="159.315" y="76">Planjahr </tspan></text><rect x="362" y="336" width="12" height="24" fill="#FFFFFF"/><path d="M112.5 594.5 112.5 342.057 128.5 311.5 144.5 342.057 144.5 594.5Z" stroke="#000000" stroke-width="1.33333" stroke-miterlimit="8" fill="#FFCC00" fill-rule="evenodd"/><text font-family="Arial Black,Arial Black_MSFontService,sans-serif" font-weight="900" font-size="17" transform="matrix(-1.83697e-16 -1 1 -1.83697e-16 133.282 553)">Zwang<tspan font-family="Arial,Arial_MSFontService,sans-serif" font-weight="400" font-size="17" x="68" y="1.24914e-14">der Umsetzung</tspan></text><path d="M193.5 636.5 436.138 636.5 465.5 653.5 436.138 670.5 193.5 670.5Z" stroke="#000000" stroke-width="1.33333" stroke-miterlimit="8" fill="#FFCC00" fill-rule="evenodd"/><text font-family="Arial Black,Arial Black_MSFontService,sans-serif" font-weight="900" font-size="17" transform="translate(199.61 659)">Dringlichkeit<tspan font-family="Arial,Arial_MSFontService,sans-serif" font-weight="400" font-size="17" x="126" y="0">der Umsetzung</tspan></text><path d="M395.5 357C395.5 345.678 404.902 336.5 416.5 336.5 428.098 336.5 437.5 345.678 437.5 357 437.5 368.322 428.098 377.5 416.5 377.5 404.902 377.5 395.5 368.322 395.5 357Z" stroke="#000000" stroke-linejoin="round" stroke-miterlimit="10" stroke-dasharray="1 1" fill="#66FF33" fill-rule="evenodd"/><text font-family="Arial,Arial_MSFontService,sans-serif" font-weight="400" font-size="24" transform="translate(401.5 365)">P1</text><path d="M316.5 536C316.5 524.678 325.902 515.5 337.5 515.5 349.098 515.5 358.5 524.678 358.5 536 358.5 547.322 349.098 556.5 337.5 556.5 325.902 556.5 316.5 547.322 316.5 536Z" stroke="#000000" stroke-linejoin="round" stroke-miterlimit="10" stroke-dasharray="1 1" fill="#0070C0" fill-rule="evenodd"/><text font-family="Arial,Arial_MSFontService,sans-serif" font-weight="400" font-size="24" transform="translate(322.333 544)">P3</text><path d="M234.5 361C234.5 349.678 243.902 340.5 255.5 340.5 267.098 340.5 276.5 349.678 276.5 361 276.5 372.322 267.098 381.5 255.5 381.5 243.902 381.5 234.5 372.322 234.5 361Z" stroke="#000000" stroke-linejoin="round" stroke-miterlimit="10" stroke-dasharray="1 1" fill="#66FF33" fill-rule="evenodd"/><text font-family="Arial,Arial_MSFontService,sans-serif" font-weight="400" font-size="24" transform="translate(240.667 369)">P2</text><path d="M220.5 555C220.5 543.678 229.902 534.5 241.5 534.5 253.098 534.5 262.5 543.678 262.5 555 262.5 566.322 253.098 575.5 241.5 575.5 229.902 575.5 220.5 566.322 220.5 555Z" stroke="#000000" stroke-linejoin="round" stroke-miterlimit="10" stroke-dasharray="1 1" fill="#0070C0" fill-rule="evenodd"/><text font-family="Arial,Arial_MSFontService,sans-serif" font-weight="400" font-size="24" transform="translate(226.667 563)">P5</text><path d="M399.5 456C399.5 444.678 408.902 435.5 420.5 435.5 432.098 435.5 441.5 444.678 441.5 456 441.5 467.322 432.098 476.5 420.5 476.5 408.902 476.5 399.5 467.322 399.5 456Z" stroke="#000000" stroke-linejoin="round" stroke-miterlimit="10" stroke-dasharray="1 1" fill="#FF9900" fill-rule="evenodd"/><text font-family="Arial,Arial_MSFontService,sans-serif" font-weight="400" font-size="24" transform="translate(405.5 464)">P4</text><path d="M278.5 435C278.5 423.678 287.902 414.5 299.5 414.5 311.098 414.5 320.5 423.678 320.5 435 320.5 446.322 311.098 455.5 299.5 455.5 287.902 455.5 278.5 446.322 278.5 435Z" stroke="#000000" stroke-linejoin="round" stroke-miterlimit="10" stroke-dasharray="1 1" fill="#FF9900" fill-rule="evenodd"/><text font-family="Arial,Arial_MSFontService,sans-serif" font-weight="400" font-size="24" transform="translate(284.5 444)">P6</text><path d="M334.5 434C334.5 422.678 343.902 413.5 355.5 413.5 367.098 413.5 376.5 422.678 376.5 434 376.5 445.322 367.098 454.5 355.5 454.5 343.902 454.5 334.5 445.322 334.5 434Z" stroke="#000000" stroke-linejoin="round" stroke-miterlimit="10" stroke-dasharray="1 1" fill="#FF9900" fill-rule="evenodd"/><text font-family="Arial,Arial_MSFontService,sans-serif" font-weight="400" font-size="24" transform="translate(340 443)">P7<tspan font-size="11" x="-114.763" y="85">Ballast</tspan><tspan font-size="11" x="431.583" y="210">Kreisgröße = Investitionsvolumen</tspan><tspan font-size="11" x="431.583" y="223">Hier der </tspan><tspan font-size="11" x="472.583" y="223">Einfachheithalber</tspan><tspan font-size="11" x="558.583" y="223">sind alle gleich Groß</tspan><tspan font-size="11" x="431.583" y="236">PPM = </tspan><tspan font-size="11" x="466.917" y="236">Projektportfoliomanagement</tspan><tspan font-size="21" x="262.55" y="-90">•</tspan><tspan font-size="21" x="281.083" y="-90">Die Projekte werden im </tspan><tspan font-size="21" x="281.083" y="-65">Projektportfolio nach Projekttypen </tspan><tspan font-size="21" x="281.083" y="-39">gereiht.</tspan><tspan font-size="21" x="262.55" y="-13">•</tspan><tspan font-weight="700" font-size="21" x="281.083" y="-13">Muss</tspan><tspan font-weight="700" font-size="21" x="335.583" y="-13">-</tspan><tspan font-weight="700" font-size="21" x="342.75" y="-13">Projekte </tspan><tspan font-weight="700" font-size="21" x="432.916" y="-13">sind bestimmt</tspan><tspan font-weight="700" font-size="21" x="577.75" y="-13">.</tspan><tspan font-size="21" x="262.55" y="12">•</tspan><tspan font-size="21" x="281.083" y="12">Neue Projekte müssen sich um die </tspan><tspan font-size="21" x="281.083" y="38">Aufnahme in das Projektportfolio </tspan><tspan font-size="21" x="281.083" y="63">bewerben.</tspan><tspan font-size="21" x="262.55" y="89">•</tspan><tspan font-size="21" x="281.083" y="89">Laufende Projekte werden auf den </tspan><tspan font-size="21" x="281.083" y="115">Prüfstand gestellt</tspan><tspan font-size="21" x="445.916" y="115">.</tspan></text><path d="M214.5 457C214.5 445.678 223.902 436.5 235.5 436.5 247.098 436.5 256.5 445.678 256.5 457 256.5 468.322 247.098 477.5 235.5 477.5 223.902 477.5 214.5 468.322 214.5 457Z" stroke="#000000" stroke-linejoin="round" stroke-miterlimit="10" stroke-dasharray="1 1" fill="#FF9900" fill-rule="evenodd"/><text font-family="Arial,Arial_MSFontService,sans-serif" font-weight="400" font-size="24" transform="translate(220.333 465)">P8</text><path d="M366.5 443.5C366.5 431.902 375.902 422.5 387.5 422.5 399.098 422.5 408.5 431.902 408.5 443.5 408.5 455.098 399.098 464.5 387.5 464.5 375.902 464.5 366.5 455.098 366.5 443.5Z" stroke="#000000" stroke-linejoin="round" stroke-miterlimit="10" stroke-dasharray="1 1" fill="#FF9900" fill-rule="evenodd"/><text font-family="Arial,Arial_MSFontService,sans-serif" font-weight="400" font-size="24" transform="translate(372.167 452)">P9</text><path d="M97.5001 281.735C97.5001 279.396 99.3961 277.5 101.735 277.5L508.265 277.5C510.604 277.5 512.5 279.396 512.5 281.735L512.5 681.265C512.5 683.604 510.604 685.5 508.265 685.5L101.735 685.5C99.3961 685.5 97.5001 683.604 97.5001 681.265Z" stroke="#7F7F7F" stroke-width="0.666667" stroke-miterlimit="8" fill="none" fill-rule="evenodd"/><rect x="134" y="259" width="334" height="32" fill="#FFFFFF"/><text font-family="Arial Black,Arial Black_MSFontService,sans-serif" font-weight="900" font-size="19" transform="translate(144.045 281)">9-<tspan font-size="19" x="18.6667" y="0">Feld</tspan><tspan font-size="19" x="62.3333" y="0">-</tspan><tspan font-size="19" x="68.5" y="0">Matrix der Projekttypen</tspan></text><path d="M288.5 307.5 471.305 497.863" stroke="#5B8AFB" stroke-miterlimit="8" stroke-dasharray="4 3" fill="none" fill-rule="evenodd"/><path d="M196.5 403.5 380.246 593.003" stroke="#5B8AFB" stroke-miterlimit="8" stroke-dasharray="4 3" fill="none" fill-rule="evenodd"/><path d="M553 384.64 553 384.64 553 330 576 443 553 556 553 501.36 553 501.36Z" fill="#C00000" fill-rule="evenodd"/><text fill="#7F7F7F" font-family="Arial Black,Arial Black_MSFontService,sans-serif" font-weight="900" font-size="13" transform="translate(341.339 326)">Hohe Priorität<tspan font-size="13" x="-111.983" y="264">Geringe Priorität</tspan><tspan font-size="13" x="-111.983" y="73">Mittlere Priorität</tspan></text></g></svg>