<svg width="1040" height="720" xmlns="http://www.w3.org/2000/svg" xmlns:xlink="http://www.w3.org/1999/xlink" overflow="hidden"><defs><clipPath id="clip0"><rect x="0" y="0" width="1040" height="720"/></clipPath><clipPath id="clip1"><rect x="570" y="222" width="169" height="113"/></clipPath><clipPath id="clip2"><rect x="570" y="199" width="169" height="225"/></clipPath><clipPath id="clip3"><rect x="570" y="199" width="169" height="225"/></clipPath><clipPath id="clip4"><rect x="570" y="244" width="169" height="225"/></clipPath><clipPath id="clip5"><rect x="570" y="244" width="169" height="225"/></clipPath><clipPath id="clip6"><rect x="570" y="289" width="169" height="225"/></clipPath><clipPath id="clip7"><rect x="570" y="289" width="169" height="225"/></clipPath><clipPath id="clip8"><rect x="570" y="321" width="169" height="225"/></clipPath><clipPath id="clip9"><rect x="570" y="321" width="169" height="225"/></clipPath><clipPath id="clip10"><rect x="570" y="353" width="169" height="225"/></clipPath><clipPath id="clip11"><rect x="570" y="353" width="169" height="225"/></clipPath><clipPath id="clip12"><rect x="570" y="415" width="420" height="157"/></clipPath></defs><g clip-path="url(#clip0)"><rect x="0" y="0" width="1040" height="720" fill="#FFFFFF"/><path d="M29.5001 131.5 1010.5 132.5" stroke="#C00000" stroke-width="1.33333" stroke-linejoin="round" stroke-miterlimit="10" fill="none" fill-rule="evenodd"/><text fill="#777777" font-family="Arial Narrow,Arial Narrow_MSFontService,sans-serif" font-weight="400" font-stretch="condensed" font-size="11" transform="translate(924.133 709)">PM.030 / SEITE<tspan fill="#006698" font-family="Arial,Arial_MSFontService,sans-serif" font-stretch="normal" font-size="11" x="66" y="0">-</tspan><tspan fill="#006698" font-family="Arial,Arial_MSFontService,sans-serif" font-stretch="normal" font-size="11" x="72.5" y="0">20</tspan><tspan fill="#006698" font-family="Arial,Arial_MSFontService,sans-serif" font-stretch="normal" font-size="11" x="87.5" y="0">-</tspan></text><path d="M29.5001 694.5 1010.5 694.5" stroke="#C00000" stroke-width="1.33333" stroke-linejoin="round" stroke-miterlimit="10" fill="none" fill-rule="evenodd"/><text fill="#000066" font-family="Arial,Arial_MSFontService,sans-serif" font-weight="700" font-size="11" transform="translate(32 707)">© <tspan fill="#006698" font-family="Arial Black,Arial Black_MSFontService,sans-serif" font-weight="900" font-size="11" x="10.8333" y="0">platinus</tspan><tspan fill="#777777" font-family="Arial Narrow,Arial Narrow_MSFontService,sans-serif" font-weight="400" font-stretch="condensed" font-size="11" x="60.6667" y="0">CONSULTING </tspan><tspan fill="#777777" font-weight="400" font-size="11" x="120.667" y="0">/ </tspan><tspan fill="#777777" font-weight="400" font-size="11" x="126.667" y="0">Projektmanagement Training </tspan><tspan fill="#777777" font-weight="400" font-size="11" x="267.333" y="0">/  PM</tspan><tspan fill="#777777" font-weight="400" font-size="11" x="292.333" y="0">-</tspan><tspan fill="#777777" font-weight="400" font-size="11" x="295.833" y="0">Framework  / 2021</tspan><tspan fill="#000000" font-size="27" x="158.58" y="-633">Die </tspan><tspan fill="#000000" font-size="27" x="207.413" y="-633">Projektklasse</tspan><tspan fill="#000000" font-size="27" x="386.58" y="-633">ist ein Unterscheidungsmerkmal </tspan></text><path d="M239.333 75.7834 411.333 75.7834 411.333 78.7834 239.333 78.7834Z" fill-rule="evenodd"/><text font-family="Arial,Arial_MSFontService,sans-serif" font-weight="700" font-size="27" transform="translate(151.827 103)">für die Festlegung des PM<tspan font-size="27" x="331.667" y="0">-</tspan>Bedarfes bzw. PM-Aufwandes<tspan font-size="21" x="-123.22" y="52">Projektklassifizierung nach </tspan><tspan fill="#C00000" font-size="21" x="159.113" y="52">Projektklasse</tspan></text><path d="M215.222 429.868 351.264 293.826 323.045 265.607 418.957 270.914 424.263 366.825 396.044 338.606 260.002 474.648 257.654 432.216Z" stroke="#000000" stroke-miterlimit="8" stroke-dasharray="4 3" fill="#618FFD" fill-rule="evenodd"/><rect x="149.5" y="221.5" width="338" height="331" stroke="#000000" stroke-width="1.33333" stroke-miterlimit="8" fill="#FFFFFF"/><path d="M149.5 442.5 487.5 442.5" stroke="#000000" stroke-width="1.33333" stroke-linejoin="round" stroke-miterlimit="10" stroke-dasharray="1.33333 1.33333" fill="none" fill-rule="evenodd"/><path d="M149.5 333.5 488.5 333.5" stroke="#000000" stroke-width="1.33333" stroke-linejoin="round" stroke-miterlimit="10" stroke-dasharray="1.33333 1.33333" fill="none" fill-rule="evenodd"/><path d="M262.5 222.5 262.5 552.5" stroke="#000000" stroke-width="1.33333" stroke-linejoin="round" stroke-miterlimit="10" stroke-dasharray="1.33333 1.33333" fill="none" fill-rule="evenodd"/><path d="M374.5 222.5 374.5 552.5" stroke="#000000" stroke-width="1.33333" stroke-linejoin="round" stroke-miterlimit="10" stroke-dasharray="1.33333 1.33333" fill="none" fill-rule="evenodd"/><text font-family="Arial,Arial_MSFontService,sans-serif" font-weight="400" font-size="13" transform="translate(100.404 497)">gering<tspan font-size="13" x="-5.39601" y="-105">moderat</tspan><tspan font-size="13" x="308.922" y="79">hoch</tspan><tspan font-size="13" x="3.74719" y="-214">hoch</tspan><tspan font-size="13" x="80.1908" y="79">gering</tspan><tspan font-size="13" x="191.109" y="79">mittel</tspan></text><rect x="355" y="256" width="11" height="21" fill="#FFFFFF"/><path d="M55.5001 554.5 55.5001 261.556 75.0001 226.5 94.5001 261.556 94.5001 554.5Z" stroke="#000000" stroke-width="1.33333" stroke-miterlimit="8" fill="#FFCC00" fill-rule="evenodd"/><text font-family="Arial Black,Arial Black_MSFontService,sans-serif" font-weight="900" font-size="16" transform="matrix(-1.83697e-16 -1 1 -1.83697e-16 79.9964 547)">Komplexität<tspan font-family="Arial,Arial_MSFontService,sans-serif" font-weight="400" font-size="16" x="112" y="2.05741e-14">des Investitionsvorhabens</tspan></text><path d="M149.5 580.5 447.74 580.5 483.5 600 447.74 619.5 149.5 619.5Z" stroke="#000000" stroke-width="1.33333" stroke-miterlimit="8" fill="#FFCC00" fill-rule="evenodd"/><text font-family="Arial Black,Arial Black_MSFontService,sans-serif" font-weight="900" font-size="16" transform="translate(193.45 605)">Investitionsumfang<tspan font-family="Arial,Arial_MSFontService,sans-serif" font-weight="400" font-size="16" x="172.667" y="0">/ Größe</tspan></text><path d="M276.5 487.5 276.5 536.5" stroke="#000000" stroke-linejoin="round" stroke-miterlimit="10" fill="none" fill-rule="evenodd"/><path d="M266.5 482.5C266.5 479.739 270.977 477.5 276.5 477.5 282.023 477.5 286.5 479.739 286.5 482.5 286.5 485.261 282.023 487.5 276.5 487.5 270.977 487.5 266.5 485.261 266.5 482.5Z" stroke="#000000" stroke-linejoin="round" stroke-miterlimit="10" fill="#FFFFFF" fill-rule="evenodd"/><rect x="266.5" y="497.5" width="20" height="9" stroke="#000000" stroke-miterlimit="8" fill="#FFFFFF"/><rect x="266.5" y="516.5" width="20" height="10" stroke="#000000" stroke-miterlimit="8" fill="#FFFFFF"/><path d="M266.5 541C266.5 538.515 270.977 536.5 276.5 536.5 282.023 536.5 286.5 538.515 286.5 541 286.5 543.485 282.023 545.5 276.5 545.5 270.977 545.5 266.5 543.485 266.5 541Z" stroke="#000000" stroke-linejoin="round" stroke-miterlimit="10" fill="#FFFFFF" fill-rule="evenodd"/><path d="M374.5 444.5 374.5 521.5" stroke="#000000" stroke-linejoin="round" stroke-miterlimit="10" fill="none" fill-rule="evenodd"/><path d="M364.5 440C364.5 437.515 369.201 435.5 375 435.5 380.799 435.5 385.5 437.515 385.5 440 385.5 442.485 380.799 444.5 375 444.5 369.201 444.5 364.5 442.485 364.5 440Z" stroke="#000000" stroke-linejoin="round" stroke-miterlimit="10" fill="#FFFF66" fill-rule="evenodd"/><rect x="364.5" y="453.5" width="21" height="9" stroke="#000000" stroke-miterlimit="8" fill="#FFFF66"/><rect x="364.5" y="471.5" width="21" height="9" stroke="#000000" stroke-miterlimit="8" fill="#FFFF66"/><path d="M364.5 526C364.5 523.515 369.201 521.5 375 521.5 380.799 521.5 385.5 523.515 385.5 526 385.5 528.485 380.799 530.5 375 530.5 369.201 530.5 364.5 528.485 364.5 526Z" stroke="#000000" stroke-linejoin="round" stroke-miterlimit="10" fill="#FFFF66" fill-rule="evenodd"/><rect x="364.5" y="503.5" width="21" height="9" stroke="#000000" stroke-miterlimit="8" fill="#FFFF66"/><path d="M364.5 494 375 489.5 385.5 494 375 498.5Z" stroke="#000000" stroke-miterlimit="8" fill="#FFFF66" fill-rule="evenodd"/><path d="M281.5 328.5 281.5 365.5" stroke="#000000" stroke-linejoin="round" stroke-miterlimit="10" fill="none" fill-rule="evenodd"/><path d="M246.5 287.5 246.5 382.5" stroke="#000000" stroke-linejoin="round" stroke-miterlimit="10" fill="none" fill-rule="evenodd"/><path d="M236.5 284C236.5 282.067 240.977 280.5 246.5 280.5 252.023 280.5 256.5 282.067 256.5 284 256.5 285.933 252.023 287.5 246.5 287.5 240.977 287.5 236.5 285.933 236.5 284Z" stroke="#000000" stroke-linejoin="round" stroke-miterlimit="10" fill="#FF7C80" fill-rule="evenodd"/><rect x="236.5" y="294.5" width="20" height="6" stroke="#000000" stroke-miterlimit="8" fill="#FF7C80"/><rect x="236.5" y="307.5" width="20" height="7" stroke="#000000" stroke-miterlimit="8" fill="#FF7C80"/><path d="M236.5 386C236.5 384.067 240.977 382.5 246.5 382.5 252.023 382.5 256.5 384.067 256.5 386 256.5 387.933 252.023 389.5 246.5 389.5 240.977 389.5 236.5 387.933 236.5 386Z" stroke="#000000" stroke-linejoin="round" stroke-miterlimit="10" fill="#FF7C80" fill-rule="evenodd"/><rect x="236.5" y="331.5" width="20" height="7" stroke="#000000" stroke-miterlimit="8" fill="#FF7C80"/><path d="M236.5 325 246.5 321.5 256.5 325 246.5 328.5Z" stroke="#000000" stroke-miterlimit="8" fill="#FF7C80" fill-rule="evenodd"/><rect x="236.5" y="355.5" width="20" height="7" stroke="#000000" stroke-miterlimit="8" fill="#FF7C80"/><path d="M236.5 349 246.5 345.5 256.5 349 246.5 352.5Z" stroke="#000000" stroke-miterlimit="8" fill="#FF7C80" fill-rule="evenodd"/><rect x="271.5" y="331.5" width="20" height="7" stroke="#000000" stroke-miterlimit="8" fill="#FF7C80"/><path d="M271.5 325 281.5 321.5 291.5 325 281.5 328.5Z" stroke="#000000" stroke-miterlimit="8" fill="#FF7C80" fill-rule="evenodd"/><rect x="236.5" y="369.5" width="20" height="6" stroke="#000000" stroke-miterlimit="8" fill="#FF7C80"/><path d="M256.5 324.5 271.5 324.5" stroke="#000000" stroke-linejoin="round" stroke-miterlimit="10" fill="none" fill-rule="evenodd"/><path d="M246.5 365.5 281.5 365.5" stroke="#000000" stroke-linejoin="round" stroke-miterlimit="10" fill="none" fill-rule="evenodd"/><path d="M411.5 280.5 411.5 325.5" stroke="#000000" stroke-linejoin="round" stroke-miterlimit="10" fill="none" fill-rule="evenodd"/><path d="M465.5 280.5 465.5 325.5" stroke="#000000" stroke-linejoin="round" stroke-miterlimit="10" fill="none" fill-rule="evenodd"/><rect x="403.5" y="271.5" width="16" height="9" stroke="#000000" stroke-miterlimit="8" fill="#FF3300"/><path d="M438.5 230.5 438.5 363.5" stroke="#000000" stroke-linejoin="round" stroke-miterlimit="10" fill="none" fill-rule="evenodd"/><path d="M430.5 226C430.5 223.515 434.082 221.5 438.5 221.5 442.918 221.5 446.5 223.515 446.5 226 446.5 228.485 442.918 230.5 438.5 230.5 434.082 230.5 430.5 228.485 430.5 226Z" stroke="#000000" stroke-linejoin="round" stroke-miterlimit="10" fill="#FF3300" fill-rule="evenodd"/><rect x="430.5" y="238.5" width="16" height="8" stroke="#000000" stroke-miterlimit="8" fill="#FF3300"/><rect x="430.5" y="255.5" width="16" height="7.99998" stroke="#000000" stroke-miterlimit="8" fill="#FF3300"/><path d="M430.5 367.5C430.5 365.291 434.082 363.5 438.5 363.5 442.918 363.5 446.5 365.291 446.5 367.5 446.5 369.709 442.918 371.5 438.5 371.5 434.082 371.5 430.5 369.709 430.5 367.5Z" stroke="#000000" stroke-linejoin="round" stroke-miterlimit="10" fill="#FF3300" fill-rule="evenodd"/><rect x="430.5" y="284.5" width="16" height="8" stroke="#000000" stroke-miterlimit="8" fill="#FF3300"/><path d="M430.5 276 438.5 271.5 446.5 276 438.5 280.5Z" stroke="#000000" stroke-miterlimit="8" fill="#FF3300" fill-rule="evenodd"/><rect x="430.5" y="313.5" width="16" height="8" stroke="#000000" stroke-miterlimit="8" fill="#FF3300"/><path d="M430.5 305 438.5 300.5 446.5 305 438.5 309.5Z" stroke="#000000" stroke-miterlimit="8" fill="#FF3300" fill-rule="evenodd"/><rect x="457.5" y="284.5" width="16" height="8" stroke="#000000" stroke-miterlimit="8" fill="#FF3300"/><path d="M457.5 276 465.5 271.5 473.5 276 465.5 280.5Z" stroke="#000000" stroke-miterlimit="8" fill="#FF3300" fill-rule="evenodd"/><rect x="430.5" y="330.5" width="16" height="8" stroke="#000000" stroke-miterlimit="8" fill="#FF3300"/><path d="M446.5 275.5 457.5 275.5" stroke="#000000" stroke-linejoin="round" stroke-miterlimit="10" fill="none" fill-rule="evenodd"/><path d="M411.5 325.5 465.5 325.5" stroke="#000000" stroke-linejoin="round" stroke-miterlimit="10" fill="none" fill-rule="evenodd"/><rect x="457.5" y="313.5" width="16" height="8" stroke="#000000" stroke-miterlimit="8" fill="#FF3300"/><path d="M457.5 305 465.5 300.5 473.5 305 465.5 309.5Z" stroke="#000000" stroke-miterlimit="8" fill="#FF3300" fill-rule="evenodd"/><rect x="403.5" y="296.5" width="16" height="9" stroke="#000000" stroke-miterlimit="8" fill="#FF3300"/><path d="M403.5 288.5 411.5 284.5 419.5 288.5 411.5 292.5Z" stroke="#000000" stroke-miterlimit="8" fill="#FF3300" fill-rule="evenodd"/><path d="M419.5 275.5 430.5 275.5" stroke="#000000" stroke-linejoin="round" stroke-miterlimit="10" fill="none" fill-rule="evenodd"/><rect x="430.5" y="346.5" width="16" height="9" stroke="#000000" stroke-miterlimit="8" fill="#FF3300"/><path d="M159.5 493C159.5 478.917 181.438 467.5 208.5 467.5 235.562 467.5 257.5 478.917 257.5 493 257.5 507.083 235.562 518.5 208.5 518.5 181.438 518.5 159.5 507.083 159.5 493Z" stroke="#000000" stroke-linejoin="round" stroke-miterlimit="10" fill="#618FFD" fill-rule="evenodd"/><text font-family="Arial,Arial_MSFontService,sans-serif" font-weight="400" font-size="17" transform="translate(177.632 489)">Projekt-<tspan font-size="17" x="-3.33333" y="21">klasse C</tspan></text><path d="M309.5 252C309.5 237.917 331.214 226.5 358 226.5 384.786 226.5 406.5 237.917 406.5 252 406.5 266.083 384.786 277.5 358 277.5 331.214 277.5 309.5 266.083 309.5 252Z" stroke="#000000" stroke-linejoin="round" stroke-miterlimit="10" fill="#618FFD" fill-rule="evenodd"/><text font-family="Arial,Arial_MSFontService,sans-serif" font-weight="400" font-size="17" transform="translate(327.596 248)">Projekt-<tspan font-size="17" x="-2.83331" y="21">klasse A</tspan></text><path d="M271.5 390C271.5 375.917 293.438 364.5 320.5 364.5 347.562 364.5 369.5 375.917 369.5 390 369.5 404.083 347.562 415.5 320.5 415.5 293.438 415.5 271.5 404.083 271.5 390Z" stroke="#000000" stroke-linejoin="round" stroke-miterlimit="10" fill="#618FFD" fill-rule="evenodd"/><text font-family="Arial,Arial_MSFontService,sans-serif" font-weight="400" font-size="17" transform="translate(290.123 386)">Projekt-<tspan font-size="17" x="-2.83334" y="21">klasse B</tspan></text><path d="M262 223 487 445" stroke="#000000" stroke-width="4" stroke-linejoin="round" stroke-miterlimit="10" stroke-dasharray="4 4" fill="none" fill-rule="evenodd"/><path d="M151 334 372 550" stroke="#000000" stroke-width="4" stroke-linejoin="round" stroke-miterlimit="10" stroke-dasharray="4 4" fill="none" fill-rule="evenodd"/><path d="M570.353 260.943 738.316 260.943 738.316 295.906 570.353 295.906Z" fill="#D9D9D9" fill-rule="evenodd"/><path d="M738.316 260.943 821.984 260.943 821.984 295.906 738.316 295.906Z" fill="#D9D9D9" fill-rule="evenodd"/><path d="M821.984 260.943 905.652 260.943 905.652 295.906 821.984 295.906Z" fill="#D9D9D9" fill-rule="evenodd"/><path d="M905.652 260.943 989.365 260.943 989.365 295.906 905.652 295.906Z" fill="#D9D9D9" fill-rule="evenodd"/><path d="M570.353 295.906 738.316 295.906 738.316 327.906 570.353 327.906Z" fill="#F3F3F3" fill-rule="evenodd"/><path d="M570.353 327.906 738.316 327.906 738.316 385.08 570.353 385.08Z" fill="#F3F3F3" fill-rule="evenodd"/><path d="M570.353 385.08 738.316 385.08 738.316 417.08 570.353 417.08Z" fill="#F3F3F3" fill-rule="evenodd"/><path d="M570.353 417.08 738.316 417.08 738.316 449.08 570.353 449.08Z" fill="#F3F3F3" fill-rule="evenodd"/><path d="M570.353 449.08 738.316 449.08 738.316 481.08 570.353 481.08Z" fill="#F3F3F3" fill-rule="evenodd"/><path d="M570.353 481.08 989.365 481.08 989.365 506.014 570.353 506.014Z" fill="#EAF1DD" fill-rule="evenodd"/><path d="M738.316 259.943 738.316 481.747" stroke="#000000" stroke-width="1.33333" stroke-linejoin="round" stroke-miterlimit="10" fill="none" fill-rule="evenodd"/><path d="M821.984 259.943 821.984 481.747" stroke="#000000" stroke-width="1.33333" stroke-linejoin="round" stroke-miterlimit="10" fill="none" fill-rule="evenodd"/><path d="M905.652 259.943 905.652 481.747" stroke="#000000" stroke-width="1.33333" stroke-linejoin="round" stroke-miterlimit="10" fill="none" fill-rule="evenodd"/><path d="M569.353 295.906 990.365 295.906" stroke="#000000" stroke-width="1.33333" stroke-linejoin="round" stroke-miterlimit="10" fill="none" fill-rule="evenodd"/><path d="M569.353 327.906 990.365 327.906" stroke="#000000" stroke-width="1.33333" stroke-linejoin="round" stroke-miterlimit="10" fill="none" fill-rule="evenodd"/><path d="M569.353 385.08 990.365 385.08" stroke="#000000" stroke-width="1.33333" stroke-linejoin="round" stroke-miterlimit="10" fill="none" fill-rule="evenodd"/><path d="M569.353 417.08 990.365 417.08" stroke="#000000" stroke-width="1.33333" stroke-linejoin="round" stroke-miterlimit="10" fill="none" fill-rule="evenodd"/><path d="M569.353 449.08 990.365 449.08" stroke="#000000" stroke-width="1.33333" stroke-linejoin="round" stroke-miterlimit="10" fill="none" fill-rule="evenodd"/><path d="M569.353 481.08 990.365 481.08" stroke="#000000" stroke-width="1.33333" stroke-linejoin="round" stroke-miterlimit="10" fill="none" fill-rule="evenodd"/><path d="M570.353 259.943 570.353 507.014" stroke="#000000" stroke-width="2" stroke-linejoin="round" stroke-miterlimit="10" fill="none" fill-rule="evenodd"/><path d="M989.365 259.943 989.365 507.014" stroke="#000000" stroke-width="2" stroke-linejoin="round" stroke-miterlimit="10" fill="none" fill-rule="evenodd"/><path d="M569.353 260.943 990.365 260.943" stroke="#000000" stroke-width="2" stroke-linejoin="round" stroke-miterlimit="10" fill="none" fill-rule="evenodd"/><path d="M569.353 506.014 990.365 506.014" stroke="#000000" stroke-width="2" stroke-linejoin="round" stroke-miterlimit="10" fill="none" fill-rule="evenodd"/><g clip-path="url(#clip1)"><text font-family="Verdana,Verdana_MSFontService,sans-serif" font-weight="700" font-size="13" transform="translate(575.02 283)">K</text></g><text font-family="Verdana,Verdana_MSFontService,sans-serif" font-weight="700" font-size="11" transform="translate(585.353 283)">RITERIUM<tspan font-size="13" x="189.63" y="0">A</tspan><tspan font-size="13" x="273.382" y="0">B</tspan><tspan font-size="13" x="357.322" y="0">C</tspan></text><g clip-path="url(#clip2)"><text font-family="Arial,Arial_MSFontService,sans-serif" font-weight="400" font-size="13" transform="translate(575.02 309)">Dauer, Durchlaufzeit </text></g><g clip-path="url(#clip3)"><text font-family="Arial,Arial_MSFontService,sans-serif" font-weight="400" font-size="13" transform="translate(575.02 325)">[Monate]</text></g><text font-family="Arial,Arial_MSFontService,sans-serif" font-weight="400" font-size="16" transform="translate(764.4 318)">&gt; <tspan font-size="16" x="13.8334" y="0">24</tspan><tspan font-size="16" x="83.5014" y="0">6</tspan><tspan font-size="16" x="92.3347" y="0">-</tspan><tspan font-size="16" x="97.668" y="0">24</tspan><tspan font-size="16" x="171.775" y="0">&lt; </tspan><tspan font-size="16" x="185.608" y="0">6</tspan></text><g clip-path="url(#clip4)"><text font-family="Arial,Arial_MSFontService,sans-serif" font-weight="400" font-size="13" transform="translate(575.02 353)">Aufwand </text></g><g clip-path="url(#clip5)"><text font-family="Arial,Arial_MSFontService,sans-serif" font-weight="400" font-size="13" transform="translate(575.02 369)">[Ressourcen in PT]</text></g><text font-family="Arial,Arial_MSFontService,sans-serif" font-weight="400" font-size="16" transform="translate(759.983 363)">&gt; 500<tspan font-size="16" x="83.668" y="0">&lt; 500</tspan><tspan font-size="16" x="167.359" y="0">&lt; 100</tspan></text><g clip-path="url(#clip6)"><text font-family="Arial,Arial_MSFontService,sans-serif" font-weight="400" font-size="13" transform="translate(575.02 398)">Kosten </text></g><g clip-path="url(#clip7)"><text font-family="Arial,Arial_MSFontService,sans-serif" font-weight="400" font-size="13" transform="translate(575.02 414)">[</text></g><text font-family="Arial,Arial_MSFontService,sans-serif" font-weight="400" font-size="13" transform="translate(578.686 414)">kEuro<tspan font-size="13" x="34.6666" y="0">]</tspan><tspan font-size="16" x="181.297" y="-7">&gt; </tspan><tspan font-size="16" x="195.13" y="-7">250</tspan><tspan font-size="16" x="264.965" y="-7">&lt; </tspan><tspan font-size="16" x="278.798" y="-7">250</tspan><tspan font-size="16" x="348.655" y="-7">&lt; </tspan><tspan font-size="16" x="362.489" y="-7">100</tspan></text><g clip-path="url(#clip8)"><text font-family="Arial,Arial_MSFontService,sans-serif" font-weight="400" font-size="13" transform="translate(575.02 430)">Komplexität des </text></g><g clip-path="url(#clip9)"><text font-family="Arial,Arial_MSFontService,sans-serif" font-weight="400" font-size="13" transform="translate(575.02 446)">Projektinhaltes</text></g><text font-family="Arial,Arial_MSFontService,sans-serif" font-weight="400" font-size="16" transform="translate(762.9 439)">hoch<tspan font-size="16" x="81.8347" y="0">mittel</tspan><tspan font-size="16" x="160.775" y="0">niedrig</tspan></text><g clip-path="url(#clip10)"><text font-family="Arial,Arial_MSFontService,sans-serif" font-weight="400" font-size="13" transform="translate(575.02 462)">Anzahl der betroffenen </text></g><g clip-path="url(#clip11)"><text font-family="Arial,Arial_MSFontService,sans-serif" font-weight="400" font-size="13" transform="translate(575.02 478)">Abteilungen</text></g><text font-family="Arial,Arial_MSFontService,sans-serif" font-weight="400" font-size="16" transform="translate(764.4 471)">&gt; <tspan font-size="16" x="13.8334" y="0">12</tspan><tspan font-size="16" x="83.5014" y="0">6</tspan><tspan font-size="16" x="92.3347" y="0">-</tspan><tspan font-size="16" x="97.668" y="0">12</tspan><tspan font-size="16" x="171.775" y="0">&lt; </tspan><tspan font-size="16" x="185.608" y="0">6</tspan></text><g clip-path="url(#clip12)"><text font-family="Arial,Arial_MSFontService,sans-serif" font-weight="400" font-size="19" transform="translate(575.02 500)">Ergebnis:</text></g><text font-family="Arial,Arial_MSFontService,sans-serif" font-weight="400" font-size="11" transform="translate(38.2068 686)">Quelle = PM<tspan font-size="11" x="59.1667" y="0">-</tspan>Checkliste Projektwürdigkeitsprüfung</text></g></svg>