<svg width="1040" height="720" xmlns="http://www.w3.org/2000/svg" xmlns:xlink="http://www.w3.org/1999/xlink" overflow="hidden"><defs><clipPath id="clip0"><rect x="0" y="0" width="1040" height="720"/></clipPath><clipPath id="clip1"><rect x="843" y="79" width="173" height="628"/></clipPath><clipPath id="clip2"><rect x="843" y="79" width="173" height="628"/></clipPath><clipPath id="clip3"><rect x="843" y="79" width="173" height="628"/></clipPath><clipPath id="clip4"><rect x="843" y="79" width="173" height="628"/></clipPath></defs><g clip-path="url(#clip0)"><rect x="0" y="0" width="1040" height="720" fill="#FFFFFF"/><path d="M29.5001 131.5 1010.5 132.5" stroke="#C00000" stroke-width="1.33333" stroke-linejoin="round" stroke-miterlimit="10" fill="none" fill-rule="evenodd"/><text fill="#777777" font-family="Arial Narrow,Arial Narrow_MSFontService,sans-serif" font-weight="400" font-stretch="condensed" font-size="11" transform="translate(924.133 709)">PM.030 / SEITE<tspan fill="#006698" font-family="Arial,Arial_MSFontService,sans-serif" font-stretch="normal" font-size="11" x="66" y="0">-</tspan><tspan fill="#006698" font-family="Arial,Arial_MSFontService,sans-serif" font-stretch="normal" font-size="11" x="72.5" y="0">33</tspan><tspan fill="#006698" font-family="Arial,Arial_MSFontService,sans-serif" font-stretch="normal" font-size="11" x="87.5" y="0">-</tspan></text><path d="M29.5001 694.5 1010.5 694.5" stroke="#C00000" stroke-width="1.33333" stroke-linejoin="round" stroke-miterlimit="10" fill="none" fill-rule="evenodd"/><text fill="#000066" font-family="Arial,Arial_MSFontService,sans-serif" font-weight="700" font-size="11" transform="translate(32 707)">© <tspan fill="#006698" font-family="Arial Black,Arial Black_MSFontService,sans-serif" font-weight="900" font-size="11" x="10.8333" y="0">platinus</tspan><tspan fill="#777777" font-family="Arial Narrow,Arial Narrow_MSFontService,sans-serif" font-weight="400" font-stretch="condensed" font-size="11" x="60.6667" y="0">CONSULTING </tspan><tspan fill="#777777" font-weight="400" font-size="11" x="120.667" y="0">/ </tspan><tspan fill="#777777" font-weight="400" font-size="11" x="126.667" y="0">Projektmanagement Training </tspan><tspan fill="#777777" font-weight="400" font-size="11" x="267.333" y="0">/  PM</tspan><tspan fill="#777777" font-weight="400" font-size="11" x="292.333" y="0">-</tspan><tspan fill="#777777" font-weight="400" font-size="11" x="295.833" y="0">Framework  / 2021</tspan></text><rect x="249" y="471" width="541" height="162" fill="#F2F2F2"/><text font-family="Arial,Arial_MSFontService,sans-serif" font-weight="700" font-size="27" transform="translate(265.117 67)">Projekte <tspan font-size="27" x="112.38" y="0">werden für das </tspan><tspan font-size="27" x="309.013" y="0">Projektportfolio </tspan><tspan font-size="27" x="-60.98" y="32">Management nach Zwang und Wirkung gebündelt</tspan><tspan font-size="21" x="-224.836" y="92">Projektportfolio nach </tspan><tspan fill="#C00000" font-size="21" x="-4.46262" y="92">Projektkategorien  </tspan></text><path d="M249.298 237.317 384.038 237.317 384.038 315.213 249.298 315.213Z" fill="#FFFFFF" fill-rule="evenodd"/><path d="M384.038 237.317 518.778 237.317 518.778 315.213 384.038 315.213Z" fill="#FFFFFF" fill-rule="evenodd"/><path d="M518.778 237.317 653.518 237.317 653.518 315.213 518.778 315.213Z" fill="#FFFFFF" fill-rule="evenodd"/><path d="M653.518 237.317 788.258 237.317 788.258 315.213 653.518 315.213Z" fill="#FFFFFF" fill-rule="evenodd"/><path d="M249.298 315.213 384.038 315.213 384.038 393.109 249.298 393.109Z" fill="#FFFFFF" fill-rule="evenodd"/><path d="M384.038 315.213 518.778 315.213 518.778 393.109 384.038 393.109Z" fill="#D6D4CE" fill-rule="evenodd"/><path d="M518.778 315.213 653.518 315.213 653.518 393.109 518.778 393.109Z" fill="#D6D4CE" fill-rule="evenodd"/><path d="M653.518 315.213 788.258 315.213 788.258 393.109 653.518 393.109Z" fill="#D6D4CE" fill-rule="evenodd"/><path d="M249.298 393.109 384.038 393.109 384.038 471.043 249.298 471.043Z" fill="#FFFFFF" fill-rule="evenodd"/><path d="M384.038 393.109 518.778 393.109 518.778 471.043 384.038 471.043Z" fill="#D6D4CE" fill-rule="evenodd"/><path d="M518.778 393.109 653.518 393.109 653.518 471.043 518.778 471.043Z" fill="#D6D4CE" fill-rule="evenodd"/><path d="M653.518 393.109 788.258 393.109 788.258 471.043 653.518 471.043Z" fill="#D6D4CE" fill-rule="evenodd"/><path d="M384.038 236.674 384.038 471.685" stroke="#000000" stroke-width="1.28504" stroke-linejoin="round" stroke-miterlimit="10" fill="none" fill-rule="evenodd"/><path d="M518.778 236.674 518.778 471.685" stroke="#000000" stroke-width="1.28504" stroke-linejoin="round" stroke-miterlimit="10" fill="none" fill-rule="evenodd"/><path d="M653.518 236.674 653.518 471.685" stroke="#000000" stroke-width="1.28504" stroke-linejoin="round" stroke-miterlimit="10" fill="none" fill-rule="evenodd"/><path d="M248.655 315.213 788.901 315.213" stroke="#000000" stroke-width="1.28504" stroke-linejoin="round" stroke-miterlimit="10" fill="none" fill-rule="evenodd"/><path d="M248.655 393.109 788.901 393.109" stroke="#000000" stroke-width="1.28504" stroke-linejoin="round" stroke-miterlimit="10" fill="none" fill-rule="evenodd"/><path d="M249.298 236.674 249.298 471.685" stroke="#000000" stroke-width="1.28504" stroke-linejoin="round" stroke-miterlimit="10" fill="none" fill-rule="evenodd"/><path d="M788.258 236.674 788.258 471.685" stroke="#000000" stroke-width="1.28504" stroke-linejoin="round" stroke-miterlimit="10" fill="none" fill-rule="evenodd"/><path d="M248.655 237.317 788.901 237.317" stroke="#000000" stroke-width="1.28504" stroke-linejoin="round" stroke-miterlimit="10" fill="none" fill-rule="evenodd"/><path d="M248.655 471.043 788.901 471.043" stroke="#000000" stroke-width="1.28504" stroke-linejoin="round" stroke-miterlimit="10" fill="none" fill-rule="evenodd"/><text fill="#C00000" font-family="Arial,Arial_MSFontService,sans-serif" font-weight="700" font-size="19" transform="translate(478.532 592)">Goal Type<tspan fill="#000000" font-weight="400" font-size="15" x="-124.88" y="19">Wo sind die Effekt / Wirkung des Projektes sichtbar?</tspan><tspan fill="#000000" font-weight="400" font-size="13" x="-212.112" y="-87">Aufrechterhaltung </tspan><tspan fill="#000000" font-weight="400" font-size="13" x="-216.858" y="-71">laufendes Geschäft</tspan><tspan fill="#000000" font-style="italic" font-size="13" x="-218.285" y="-55">Running Business</tspan><tspan fill="#000000" font-weight="400" font-size="13" x="-70.5948" y="-87">Rationalisierung</tspan><tspan fill="#000000" font-weight="400" font-size="13" x="-59.2148" y="-71">Optimierung </tspan><tspan fill="#000000" font-style="italic" font-size="13" x="-70.3548" y="-55">Rationalization</tspan><tspan fill="#000000" font-weight="400" font-size="13" x="219.329" y="-87">Wandel</tspan><tspan fill="#000000" font-style="italic" font-weight="400" font-size="13" x="195.049" y="-71">Business Model</tspan><tspan fill="#000000" font-style="italic" font-size="13" x="193.049" y="-55">Transformation</tspan><tspan fill="#000000" font-weight="400" font-size="13" x="78.4067" y="-87">Wachstum</tspan><tspan fill="#000000" font-style="italic" font-size="13" x="86.4734" y="-55">Growth</tspan></text><rect x="33" y="235" width="216" height="235" fill="#F2F2F2"/><text font-family="Arial,Arial_MSFontService,sans-serif" font-weight="400" font-size="13" transform="translate(141.847 264)">Zwingender <tspan font-size="13" x="8.81999" y="16">Auslöser</tspan><tspan font-style="italic" font-size="13" x="2.91333" y="32">Mandarory</tspan><tspan font-size="13" x="-6.48967" y="64">Fachbereichs</tspan>-<tspan font-size="13" x="9.72366" y="80">Auslöser</tspan><tspan font-style="italic" font-size="13" x="8.64366" y="96">Business </tspan><tspan font-style="italic" font-size="13" x="-3.50301" y="112">Development</tspan><tspan font-style="italic" font-size="13" x="3.157" y="128">Operations</tspan><tspan font-size="13" x="-13.8863" y="151">Servicebereichs</tspan>-<tspan font-size="13" x="9.72704" y="167">Auslöser</tspan><tspan font-style="italic" font-size="13" x="6.40703" y="183">Capability</tspan><tspan font-style="italic" font-size="13" x="-3.49963" y="199">Development</tspan></text><text fill="#C00000" font-family="Arial,Arial_MSFontService,sans-serif" font-weight="700" font-size="19" transform="matrix(-5.81776e-07 -1 1 -5.81776e-07 66.0945 416)">Demand Type<tspan fill="#000000" font-weight="400" font-size="15" x="-6.00001" y="19">Was ist der Auslöser </tspan><tspan fill="#000000" font-weight="400" font-size="15" x="9.99998" y="36">für das Projekt?</tspan></text><text font-family="Arial,Arial_MSFontService,sans-serif" font-weight="400" font-size="11" transform="translate(264 261)">Projekt A = DSGVO<tspan font-size="11" x="0" y="13">Projekt Z = NIST </tspan><tspan font-size="11" x="0" y="26">Projekt S = ISO27000 </tspan><tspan font-size="11" x="0" y="39">IT</tspan><tspan font-size="11" x="9.47333" y="39">-</tspan><tspan font-size="11" x="12.96" y="39">Security</tspan><tspan font-size="11" x="398.249" y="84">Projekt P = Produkt</tspan>-<tspan font-size="11" x="398.249" y="97">digitalisierung </tspan><tspan font-size="11" x="398.249" y="110">Projekt O = Prozess</tspan>-<tspan font-size="11" x="398.249" y="123">digitalisierung</tspan><tspan font-size="11" x="132.472" y="72">Projekt K= Prozess</tspan><tspan font-size="11" x="223.566" y="72">-</tspan><tspan font-size="11" x="132.472" y="85">automatisierung Vertrieb</tspan><tspan font-size="11" x="-2.60788" y="151">Projekt I = Ablöse End</tspan><tspan font-size="11" x="103.599" y="151">-</tspan><tspan font-size="11" x="-2.60788" y="164">of</tspan><tspan font-size="11" x="6.36545" y="164">-</tspan><tspan font-size="11" x="9.85211" y="164">Life Produkt</tspan><tspan font-size="11" x="-2.60788" y="177">Projekt</tspan><tspan font-size="11" x="265.814" y="72">Projekt W = </tspan><tspan font-size="11" x="265.814" y="85">Markterweiterung </tspan><tspan font-size="11" x="265.814" y="98">Projekt N = </tspan><tspan font-size="11" x="265.814" y="111">Produktentwicklung</tspan><tspan font-size="11" x="132.472" y="153">Projekt </tspan><tspan font-size="11" x="168.699" y="153">R </tspan><tspan font-size="11" x="179.339" y="153">= Ersatz </tspan><tspan font-size="11" x="132.472" y="166">Storage durch neue </tspan><tspan font-size="11" x="132.472" y="179">Technologei</tspan><tspan font-size="11" x="265.814" y="151">Projekt G = Aufbau </tspan><tspan font-size="11" x="265.814" y="164">neuer IT</tspan><tspan font-size="11" x="305.708" y="164">-</tspan><tspan font-size="11" x="309.194" y="164">Infrastruktur</tspan><tspan font-size="11" x="678.954" y="-116">Konzeptionell</tspan></text><path d="M942.954 146.043 958.954 146.043 974.954 146.043 990.954 146.043 1006.95 146.043 1006.95 147.043 990.954 147.043 974.954 147.043 958.954 147.043 942.954 147.043Z" fill-rule="evenodd"/><path d="M818 338.64 818 338.64 818 284 842 397 818 510 818 455.36 818 455.36Z" fill="#C00000" fill-rule="evenodd"/><g clip-path="url(#clip1)"><text font-family="Arial,Arial_MSFontService,sans-serif" font-weight="400" font-size="19" transform="translate(852.624 366)">Analyse des </text></g><g clip-path="url(#clip2)"><text font-family="Arial,Arial_MSFontService,sans-serif" font-weight="400" font-size="19" transform="translate(852.624 389)">Projektportfolios </text></g><g clip-path="url(#clip3)"><text font-family="Arial,Arial_MSFontService,sans-serif" font-weight="400" font-size="19" transform="translate(852.624 411)">hinsichtlich </text></g><g clip-path="url(#clip4)"><text font-family="Arial,Arial_MSFontService,sans-serif" font-weight="400" font-size="19" transform="translate(852.624 433)">Ausgewogenheit</text></g><text fill="#808080" font-family="Arial,Arial_MSFontService,sans-serif" font-weight="400" font-size="8" transform="translate(235.502 284)">D1<tspan font-size="8" x="0" y="77">D2</tspan><tspan font-size="8" x="0" y="144">D3</tspan><tspan font-size="8" x="71.1685" y="198">G1                                                      G2                                                          G3       </tspan><tspan font-size="8" x="451.928" y="198">G4</tspan></text><rect x="913" y="659" width="97" height="29" fill="#D6D4CE"/><text font-family="Arial,Arial_MSFontService,sans-serif" font-weight="400" font-size="8" transform="translate(922.93 672)">Felder mit <tspan font-size="8" x="0" y="9">verpflichtender WiRe</tspan><tspan font-size="11" x="-254.994" y="-258">Projekt M = System</tspan><tspan font-size="11" x="-161.994" y="-258">-</tspan><tspan font-size="11" x="-254.994" y="-245">Mobilisierung </tspan><tspan font-size="11" x="-254.994" y="-232">Projekt K = Wissens</tspan><tspan font-size="11" x="-158.994" y="-232">-</tspan><tspan font-size="11" x="-254.994" y="-219">Sharing</tspan></text><path d="M0 0 87.1951 0.000104987" stroke="#919191" stroke-miterlimit="8" fill="none" fill-rule="evenodd" transform="matrix(1 0 0 -1 915.5 652.5)"/><path d="M0 0 80.4879 29.8779" stroke="#919191" stroke-miterlimit="8" fill="none" fill-rule="evenodd" transform="matrix(1 0 0 -1 915.5 652.378)"/><text font-family="Arial,Arial_MSFontService,sans-serif" font-weight="400" font-size="8" transform="translate(903.565 586)">Legende<tspan font-size="8" x="0" y="9">•</tspan><tspan font-size="8" x="15.9333" y="9">Projektklasse = Kreisgrösse</tspan><tspan font-size="8" x="0" y="18">•</tspan><tspan font-size="8" x="15.9333" y="18">Projekttyp = Linientyp</tspan><tspan font-size="8" x="0" y="27">•</tspan><tspan font-size="8" x="15.9333" y="27">Prokektart = Farbe</tspan></text><path d="M535.5 449C535.5 442.096 541.32 436.5 548.5 436.5 555.68 436.5 561.5 442.096 561.5 449 561.5 455.904 555.68 461.5 548.5 461.5 541.32 461.5 535.5 455.904 535.5 449Z" stroke="#C00000" stroke-width="2.66667" stroke-miterlimit="8" stroke-dasharray="2.66667 2.66667" fill="#FFFFFF" fill-rule="evenodd"/><path d="M941.5 647.5C941.5 644.739 943.739 642.5 946.5 642.5 949.261 642.5 951.5 644.739 951.5 647.5 951.5 650.261 949.261 652.5 946.5 652.5 943.739 652.5 941.5 650.261 941.5 647.5Z" stroke="#4568BA" stroke-width="2.66667" stroke-miterlimit="8" fill="#FFFFFF" fill-rule="evenodd"/><path d="M959.5 644C959.5 639.306 963.082 635.5 967.5 635.5 971.918 635.5 975.5 639.306 975.5 644 975.5 648.694 971.918 652.5 967.5 652.5 963.082 652.5 959.5 648.694 959.5 644Z" stroke="#35FF35" stroke-width="2.66667" stroke-miterlimit="8" stroke-dasharray="8 2.66667" fill="#FFFFFF" fill-rule="evenodd"/><text fill="#FFFFFF" font-family="Arial,Arial_MSFontService,sans-serif" font-weight="400" font-size="24" transform="translate(967.158 666)">V</text><path d="M981.5 639.5C981.5 632.32 987.32 626.5 994.5 626.5 1001.68 626.5 1007.5 632.32 1007.5 639.5 1007.5 646.68 1001.68 652.5 994.5 652.5 987.32 652.5 981.5 646.68 981.5 639.5Z" stroke="#C00000" stroke-width="2.66667" stroke-miterlimit="8" stroke-dasharray="2.66667 2.66667" fill="#FFFFFF" fill-rule="evenodd"/><text fill="#FFFFFF" font-family="Arial,Arial_MSFontService,sans-serif" font-weight="400" font-size="24" transform="translate(993.715 658)">V</text><path d="M959.5 644C959.5 639.306 963.082 635.5 967.5 635.5 971.918 635.5 975.5 639.306 975.5 644 975.5 648.694 971.918 652.5 967.5 652.5 963.082 652.5 959.5 648.694 959.5 644Z" stroke="#35FF35" stroke-width="2.66667" stroke-miterlimit="8" stroke-dasharray="8 2.66667" fill="#FFFFFF" fill-rule="evenodd"/><path d="M491.5 379.5C491.5 375.082 495.306 371.5 500 371.5 504.694 371.5 508.5 375.082 508.5 379.5 508.5 383.918 504.694 387.5 500 387.5 495.306 387.5 491.5 383.918 491.5 379.5Z" stroke="#35FF35" stroke-width="2.66667" stroke-miterlimit="8" stroke-dasharray="8 2.66667" fill="#FFFFFF" fill-rule="evenodd"/><path d="M622.5 339C622.5 336.515 624.739 334.5 627.5 334.5 630.261 334.5 632.5 336.515 632.5 339 632.5 341.485 630.261 343.5 627.5 343.5 624.739 343.5 622.5 341.485 622.5 339Z" stroke="#4568BA" stroke-width="2.66667" stroke-miterlimit="8" fill="#FFFFFF" fill-rule="evenodd"/><path d="M717.5 451.5C717.5 448.739 719.739 446.5 722.5 446.5 725.261 446.5 727.5 448.739 727.5 451.5 727.5 454.261 725.261 456.5 722.5 456.5 719.739 456.5 717.5 454.261 717.5 451.5Z" stroke="#FFC000" stroke-width="2.66667" stroke-miterlimit="8" fill="#FFFFFF" fill-rule="evenodd"/><text font-family="Arial,Arial_MSFontService,sans-serif" font-weight="400" font-size="8" transform="translate(33.5013 686)">Quelle = platinus Consulting</text></g></svg>