<?xml version="1.0" encoding="UTF-8"?> <!-- Generator: Adobe Illustrator 25.4.1, SVG Export Plug-In . SVG Version: 6.00 Build 0) --> <svg xmlns="http://www.w3.org/2000/svg" xmlns:xlink="http://www.w3.org/1999/xlink" version="1.1" x="0px" y="0px" width="846px" height="420px" viewBox="0 0 846 420" xml:space="preserve"> <g id="Ebene_3"> <g> <path fill="#DAE2EA" d="M751.936,18.675H30.937c-5.523,0-10,4.477-10,10v31v253.067v27c0,5.523,6.257,13.742,15.16,14h705.839 c15.523,0,20-4.477,20-10v-31V59.675v-31C761.936,23.151,757.459,18.675,751.936,18.675z"></path> <path fill="#CCCCCC" d="M741.936,353.992H36.097c-9.267-0.269-15.41-8.755-15.41-14.25V28.675c0-5.652,4.598-10.25,10.25-10.25 h721c5.652,0,10.25,4.598,10.25,10.25v315.067C762.186,350.639,755.562,353.992,741.936,353.992z M30.937,18.925 c-5.376,0-9.75,4.374-9.75,9.75v311.067c0,5.302,5.95,13.49,14.917,13.75h705.832c13.29,0,19.75-3.189,19.75-9.75V28.675 c0-5.376-4.374-9.75-9.75-9.75H30.937z"></path> </g> <g> <path fill="#DAE2EA" d="M831.671,81.077V54.094c0-5.523,0.429-11.933-11.089-16l-42.819-14c-6.125,0-11.09,4.477-11.09,10v311.333 c0,0.756,0.101,1.49,0.277,2.198v0.641c0,2.762,1.616,6.292,3.611,7.887l52.777,46.188c1.995,1.595,8.774,2.097,8.611-5.957 C831.95,396.383,831.849,81.814,831.671,81.077z"></path> <path fill="#CCCCCC" d="M826.534,403.547c-1.332,0-2.593-0.405-3.352-1.012l-52.786-46.194c-2.034-1.626-3.696-5.252-3.696-8.075 v-0.641c-0.182-0.696-0.277-1.456-0.277-2.198V34.094c0-5.652,5.087-10.25,11.34-10.25l0.078,0.012l42.819,14 c11.293,3.988,11.276,10.191,11.262,15.664l-0.001,0.574l-0.003,26.983c0.178,4.706,0.272,283.335,0.282,315.306 c0.084,4.145-1.64,5.874-3.1,6.595C828.294,403.376,827.398,403.547,826.534,403.547z M777.722,24.344 c-5.959,0.019-10.8,4.386-10.8,9.75v311.333c0,0.701,0.091,1.42,0.27,2.138l0.008,0.701c0,2.69,1.578,6.142,3.518,7.691 l52.786,46.194c0.978,0.782,3.399,1.354,5.375,0.378c1.331-0.656,2.9-2.255,2.821-6.142c-0.001-3.137-0.103-313.223-0.277-315.281 l-0.007-0.029l0.005-0.001l0.001-27.558c0.015-5.307,0.03-11.321-10.923-15.189L777.722,24.344z"></path> </g> <g> <path fill="#C5CDD3" d="M828.644,102.548V54.094c0-5.523,0.429-11.933-11.089-16l-42.819-14c-6.125,0-11.09,4.477-11.09,10 v311.333c0,0.756,0.101,1.49,0.277,2.198v0.641c0,2.762,1.616,6.292,3.611,7.887l52.777,46.188 c1.995,1.595,8.774,2.097,8.611-5.957C828.924,396.383,828.823,103.285,828.644,102.548z"></path> <path fill="#CCCCCC" d="M823.507,403.547c-1.332,0-2.593-0.405-3.352-1.012l-52.786-46.194c-2.034-1.626-3.696-5.252-3.696-8.075 v-0.641c-0.182-0.696-0.277-1.456-0.277-2.198V34.094c0-5.652,5.087-10.25,11.34-10.25l0.078,0.012l42.819,14 c11.293,3.988,11.276,10.191,11.262,15.664l-0.001,0.574l-0.003,48.455c0.178,4.559,0.272,264.054,0.282,293.835 c0.084,4.145-1.64,5.874-3.1,6.595C825.267,403.376,824.372,403.547,823.507,403.547z M774.696,24.344 c-5.959,0.019-10.8,4.386-10.8,9.75v311.333c0,0.701,0.091,1.42,0.27,2.138l0.008,0.701c0,2.69,1.578,6.142,3.518,7.691 l52.786,46.194c0.979,0.782,3.399,1.353,5.375,0.378c1.331-0.656,2.9-2.255,2.821-6.142c-0.001-2.923-0.103-291.8-0.277-293.809 l-0.007-0.029l0.005-0.002l0.001-49.029c0.014-5.307,0.03-11.321-10.923-15.189L774.696,24.344z"></path> </g> </g> <g id="Ebene_1"> </g> <g id="DE" display="none"> <text transform="matrix(1 0 0 1 338.6452 83.4194)" display="inline"><tspan x="0" y="0" font-family="'OpenSans-Light'" font-size="13px">Projektportfolio- </tspan><tspan x="0" y="15.6" font-family="'OpenSans-Light'" font-size="13px">Management</tspan></text> <text transform="matrix(1 0 0 1 269.6452 178.4194)" display="inline"><tspan x="0" y="0" font-family="'OpenSans-Light'" font-size="13px">Programm- </tspan><tspan x="0" y="15.6" font-family="'OpenSans-Light'" font-size="13px">Management</tspan></text> <text transform="matrix(1 0 0 1 199.6452 271.4193)" display="inline"><tspan x="0" y="0" font-family="'OpenSans-Light'" font-size="13px">Projekt- </tspan><tspan x="0" y="15.6" font-family="'OpenSans-Light'" font-size="13px">Management</tspan></text> <text transform="matrix(1 0 0 1 129.6452 365.4193)" display="inline"><tspan x="0" y="0" font-family="'OpenSans-Light'" font-size="13px">Funktionales- </tspan><tspan x="0" y="15.6" font-family="'OpenSans-Light'" font-size="13px">Management</tspan></text> <text transform="matrix(1 0 0 1 408.6452 -9.5806)" display="inline" font-family="'OpenSans-Light'" font-size="13px">Vision/Mission, Strategie</text> <text transform="matrix(1 0 0 1 89.3966 -11.8668)" display="inline"><tspan x="0" y="0" font-family="'OpenSans-Semibold'" font-size="15px">Multiprojekt- </tspan><tspan x="0" y="18" font-family="'OpenSans-Semibold'" font-size="15px">Management</tspan></text> <polyline display="inline" fill="none" points="410.645,176.419 410.645,129.419 537.813,129.419 "></polyline> </g> <g id="DE_00000009556929203725155190000000569566741996660395_"> <g> <path fill="#C5CDD3" d="M440.806,287.851h-72.29c-12.131,0-22-9.869-22-22v-12.695h-145.71c-5.523,0-10,4.477-10,10v91.102h250 V287.851z"></path> <path fill="#CCCCCC" d="M441.056,354.508h-250.5v-91.353c0-5.652,4.598-10.25,10.25-10.25h145.959v12.945 c0,11.993,9.757,21.75,21.75,21.75h72.54V354.508z M191.057,354.008h249.5v-65.907h-72.04c-12.269,0-22.25-9.981-22.25-22.25 v-12.445H200.807c-5.376,0-9.75,4.374-9.75,9.75V354.008z"></path> </g> <g> <path fill="#C5CDD3" d="M768.193,263.156c0-5.523-4.477-10-10-10H704h-27.871h-44.613v19.407c0,8.444-6.845,15.288-15.288,15.288 h-99.034v36.294v30.113h251V263.156z"></path> <path fill="#CCCCCC" d="M768.443,354.508H516.944v-66.907h99.283c8.293,0,15.039-6.746,15.039-15.038v-19.657h126.927 c5.652,0,10.25,4.598,10.25,10.25V354.508z M517.444,354.008h250.499v-90.853c0-5.376-4.374-9.75-9.75-9.75H631.766v19.157 c0,8.567-6.971,15.538-15.539,15.538h-98.783V354.008z"></path> </g> <g> <path fill="#C5CDD3" d="M629.69,136.79c-2.423-1.344-5.226-2.112-8.216-2.112H352.518c-9.194,0-16.647,7.256-16.647,16.206 v101.458c0,3.314-6.077,11.093-4.323,13.658c2.923,4.274,31.638,18.574,33.324,20.54c2.136,2.491,9.198,30.557,12.791,30.557 h275.949c6.431,0,7.795-31.556,7.795-37.816V160.145c0-4.666-2.896-23.674-7.033-25.412 C652.961,134.139,634.131,139.254,629.69,136.79z"></path> <path fill="#CCCCCC" d="M653.613,317.347H377.664c-2.242,0-5.255-8.616-8.962-19.88c-1.669-5.072-3.246-9.862-4.019-10.764 c-0.618-0.722-5.355-3.354-10.84-6.4c-9.207-5.114-20.666-11.479-22.5-14.161c-1.092-1.599,0.524-4.865,2.087-8.023 c1.078-2.178,2.192-4.43,2.192-5.776V150.884c0-9.074,7.58-16.456,16.897-16.456h268.957c2.927,0,5.81,0.741,8.337,2.143l0,0 c2.862,1.587,12.181-0.116,18.349-1.244c3.895-0.712,5.789-1.045,6.312-0.825c4.318,1.814,7.187,21.266,7.187,25.643v119.136 C661.658,279.662,661.058,317.347,653.613,317.347z M352.518,134.928c-9.042,0-16.397,7.158-16.397,15.956v101.458 c0,1.464-1.09,3.666-2.244,5.998c-1.43,2.889-3.05,6.162-2.122,7.52c1.767,2.584,13.652,9.186,22.33,14.007 c5.755,3.196,10.301,5.722,10.978,6.511c0.837,0.977,2.283,5.37,4.114,10.934c2.714,8.244,6.43,19.536,8.488,19.536h275.949 c5.688,0,7.545-27.938,7.545-37.566V160.145c0-4.66-2.927-23.521-6.88-25.182c-0.412-0.172-3.139,0.327-6.028,0.855 c-6.61,1.209-15.664,2.863-18.681,1.189c-2.453-1.361-5.252-2.081-8.095-2.081H352.518z"></path> </g> <g> <path fill="#C5CDD3" d="M632.516,158.518v9.422h125.677c5.523,0,10-4.477,10-10V61.608c0-5.523-4.477-10-10-10h-230 c-5.523,0-10,4.477-10,10v74.911h92.322C622.647,136.518,632.516,146.387,632.516,158.518z"></path> <path fill="#CCCCCC" d="M758.193,168.191H632.266v-9.672c0-11.993-9.757-21.75-21.75-21.75h-92.572V61.608 c0-5.652,4.598-10.25,10.25-10.25h229.999c5.652,0,10.25,4.598,10.25,10.25v96.333 C768.443,163.593,763.845,168.191,758.193,168.191z M632.766,167.691h125.427c5.376,0,9.75-4.374,9.75-9.75V61.608 c0-5.376-4.374-9.75-9.75-9.75H528.194c-5.376,0-9.75,4.374-9.75,9.75v74.661h92.072c12.269,0,22.25,9.981,22.25,22.25V167.691z"></path> </g> <g> <path fill="#C5CDD3" d="M368.516,121.518h72.29V61.608c0-5.523-4.477-10-10-10h-230c-5.523,0-10,4.477-10,10v112.333 c0,5.523,4.477,10,10,10h145.71v-40.422C346.516,131.387,356.386,121.518,368.516,121.518z"></path> <path fill="#CCCCCC" d="M346.766,184.191H200.807c-5.652,0-10.25-4.598-10.25-10.25V61.608c0-5.652,4.598-10.25,10.25-10.25h230 c5.652,0,10.25,4.598,10.25,10.25v60.161h-72.54c-11.993,0-21.75,9.757-21.75,21.75V184.191z M200.807,51.858 c-5.376,0-9.75,4.374-9.75,9.75v112.333c0,5.376,4.374,9.75,9.75,9.75h145.459v-40.172c0-12.269,9.981-22.25,22.25-22.25h72.04 V61.608c0-5.376-4.374-9.75-9.75-9.75H200.807z"></path> </g> <g> <path fill="#ACB3B7" d="M611.92,159.817c-2.081-1.186-4.489-1.863-7.057-1.863H382.459c-7.896,0-14.297,6.401-14.297,14.297 V274.99c0,2.923,0.878,5.64,2.384,7.903c2.511,3.771,12.487,20.532,13.935,22.266c1.834,2.197,4.594,3.595,7.681,3.595h237 c5.523,0,10-4.477,10-10V180.421c0-4.117-2.487-7.652-6.041-9.186C631.906,170.711,615.734,161.991,611.92,159.817z"></path> <path fill="#CCCCCC" d="M629.161,309.004H392.161c-3.048,0-5.917-1.344-7.872-3.686c-0.852-1.021-4.5-6.981-8.028-12.747 c-2.505-4.095-4.872-7.961-5.923-9.541c-1.587-2.385-2.426-5.165-2.426-8.041V172.251c0-8.021,6.526-14.547,14.547-14.547h222.405 c2.521,0,5.004,0.656,7.181,1.896c3.984,2.271,20.014,10.905,21.175,11.406c3.762,1.623,6.191,5.319,6.191,9.416v118.333 C639.411,304.407,634.813,309.004,629.161,309.004z M382.459,158.204c-7.746,0-14.047,6.301-14.047,14.047V274.99 c0,2.777,0.81,5.462,2.342,7.764c1.057,1.588,3.426,5.459,5.934,9.557c3.355,5.482,7.158,11.696,7.986,12.688 c1.86,2.228,4.589,3.506,7.488,3.506h236.999c5.376,0,9.75-4.374,9.75-9.75V180.421c0-3.897-2.312-7.413-5.889-8.957 c-1.286-0.555-17.663-9.4-21.226-11.43c-2.101-1.198-4.498-1.831-6.933-1.831H382.459z"></path> </g> <g> <path fill="#FFFFFF" d="M385.161,302.706c0,5.523,4.477,10,10,10h237c5.523,0,10-4.477,10-10V184.373c0-5.523-4.477-10-10-10h-237 c-5.523,0-10,4.477-10,10V302.706z"></path> <path fill="#6785A5" d="M632.161,313.206H395.161c-5.79,0-10.5-4.71-10.5-10.5V184.373c0-5.79,4.71-10.5,10.5-10.5h236.999 c5.79,0,10.5,4.71,10.5,10.5v118.333C642.661,308.496,637.951,313.206,632.161,313.206z M395.161,174.873 c-5.238,0-9.5,4.262-9.5,9.5v118.333c0,5.238,4.262,9.5,9.5,9.5h236.999c5.238,0,9.5-4.262,9.5-9.5V184.373 c0-5.238-4.262-9.5-9.5-9.5H395.161z"></path> </g> <g> <path opacity="0.4062" fill-rule="evenodd" clip-rule="evenodd" fill="#FCD5B5" d="M457.535,212.074 c0-6.228,4.093-11.289,9.124-11.289c5.041,0,9.123,5.062,9.123,11.289c0,6.239-4.082,11.29-9.123,11.29 C461.628,223.364,457.535,218.312,457.535,212.074"></path> <polygon opacity="0.5" fill-rule="evenodd" clip-rule="evenodd" fill="#FFFFFF" points="459.91,226.529 464.732,230.664 465.429,235.132 464.732,241.318 468.866,247.504 468.866,247.504 451.64,248.192 447.163,245.443 446.121,242.349 451.985,233.07 459.91,226.529 "></polygon> <polygon opacity="0.5" fill-rule="evenodd" clip-rule="evenodd" fill="#FFFFFF" points="473.678,226.113 470.929,231.643 470.585,235.101 471.272,240.277 469.2,247.525 469.2,247.525 477.469,245.463 481.593,242.006 482.281,238.548 482.281,235.788 479.875,227.498 479.875,227.498 473.678,226.113 "></polygon> <path fill-rule="evenodd" clip-rule="evenodd" d="M474.74,226.436c1.312,0.333,3.124,0.583,4.031,1.656 c0.572,0.656,0.739,1.729,0.989,2.468c0.906,3.052,2.625,5.613,1.885,8.905c-1.645,6.769-11.424,8.248-17.1,8.749 c-3.541,0.25-7.082,0.406-10.613,0c-2.635-0.25-6.009-1.073-6.749-3.958c-0.739-3.052,1.562-6.603,3.208-8.905 c2.468-3.468,5.925-6.519,9.956-8.165c0.656-0.25-0.74-1.073-1.239-0.917c-3.697,1.489-6.822,4.125-9.29,7.259 c-1.978,2.395-4.03,5.447-4.28,8.582c-0.417,5.769,6.582,7.009,10.862,7.258c3.614,0.24,7.239,0,10.852-0.333 c3.624-0.416,7.322-1.323,10.529-2.968c2.385-1.239,4.447-3.135,5.27-5.686c0.979-2.968-0.25-5.697-1.406-8.332 c-0.489-1.323-0.656-2.885-1.562-4.041c-1.229-1.572-3.697-1.978-5.426-2.479C473.501,225.28,474.001,226.269,474.74,226.436"></path> <path fill-rule="evenodd" clip-rule="evenodd" d="M468.262,200.524c-4.52-0.323-9.373,0.667-11.914,4.708 c-2.063,3.385-1.729,7.675-0.5,11.227c1.322,3.552,4.03,6.853,7.644,8.092c4.114,1.395,8.384-0.5,10.602-4.051 c3.937-6.27,3.124-19.142-5.592-21.048c-0.822-0.167-1.635,0.989-0.656,1.239c5.593,1.156,7.155,7.842,6.738,12.799 c-0.323,4.697-2.791,10.227-8.216,10.227c-4.021,0.083-7.061-3.458-8.623-6.926c-1.562-3.551-1.896-8.092,0.323-11.476 c2.134-3.219,6.416-3.802,9.945-3.468C468.919,201.847,469.325,200.608,468.262,200.524"></path> <path fill-rule="evenodd" clip-rule="evenodd" d="M467.544,227.612c-0.896,0.25-1.802,0.584-2.614,1.083 c-0.49,0.25-0.99,0.667-1.146,1.25c-0.416,1,0.24,1.916,1.062,2.499c0.896,0.667,2.042,1.167,3.197,1.334 c0.979,0.166,2.374,0.249,3.187-0.584c1.553-1.499-0.323-3.749-1.395-4.998c-0.239-0.334-0.812-0.25-1.145,0 c-0.323,0.25-0.323,0.667-0.073,0.999c0.073,0,0.073,0.083,0.156,0.167c0,0,0.167,0.167,0,0c0.083,0.083,0.167,0.25,0.249,0.333 c0.167,0.167,0.323,0.334,0.407,0.584c0.25,0.25,0.405,0.583,0.572,0.916c0,0.083,0,0.083,0.083,0.167 c0,0.083-0.083-0.167-0.083-0.083c0.083,0.083,0.083,0.167,0.083,0.25c0.083,0.083,0.083,0.25,0.083,0.333s0,0.334,0,0 c0,0.083,0,0.083,0,0.167c0,0.083,0,0.083,0,0.167c0,0.167,0.083-0.167,0,0c0,0,0,0,0,0.083c-0.083,0.166,0.083-0.167,0-0.083 c0,0.083-0.083,0.083-0.083,0.167c-0.083,0.083,0.167-0.167,0-0.083c0,0.083,0,0.083-0.083,0.083c-0.083,0.083,0.25-0.083,0.083,0 c-0.083,0-0.49,0.166-0.083,0c-0.083,0.083-0.239,0.083-0.323,0.083c0,0-0.083,0.083-0.167,0.083c-0.167,0,0.323-0.083,0,0 c-0.167,0-0.405,0-0.656-0.083c-0.083,0-0.323,0,0,0c-0.083,0-0.166,0-0.239,0c-0.084,0-0.251,0-0.417-0.083 c-0.239,0-0.49-0.083-0.729-0.167c-0.083-0.083-0.167-0.083-0.167-0.083c-0.167-0.083,0.167,0.083,0,0c0,0,0,0-0.083,0 c-0.083-0.083-0.25-0.167-0.333-0.167c-0.24-0.167-0.49-0.249-0.73-0.416c0,0-0.083-0.083-0.167-0.083 c-0.083-0.083,0.167,0.083,0.084,0.083c0-0.083-0.084-0.083-0.084-0.083c-0.083-0.083-0.166-0.167-0.25-0.25 c-0.073-0.083-0.156-0.166-0.24-0.166c-0.083-0.167,0,0,0,0c0-0.083-0.083-0.083-0.083-0.167c-0.083-0.083-0.083-0.167-0.167-0.25 c-0.083-0.167,0.083,0.167,0,0.083c0-0.083,0-0.167,0-0.167c0-0.083,0-0.083,0-0.167c0,0,0,0.25,0,0.083c0-0.083,0-0.083,0-0.166 c0-0.167-0.083,0.25,0,0.083c0-0.083,0.167-0.416,0-0.083c0.083-0.167,0.167-0.167,0.249-0.25c0.084-0.167-0.166,0.083-0.083,0 c0.083-0.083,0.083-0.083,0.167-0.167c0.083-0.083,0.239-0.167,0.323-0.167c-0.24,0.083,0,0,0-0.083c0.083,0,0.167,0,0.249-0.083 c0.157-0.083,0.323-0.167,0.49-0.25c0.083,0,0.24-0.083,0.323-0.083c0,0,0.084,0,0.167-0.083c-0.25,0.083-0.083,0.083,0,0 c0.25,0,0.407-0.083,0.656-0.166c0.406-0.083,0.739-0.417,0.656-0.833C468.366,227.696,467.877,227.53,467.544,227.612"></path> <path fill-rule="evenodd" clip-rule="evenodd" fill="#B9CDE5" d="M470.783,232.32c0-1.218-1.302-2.208-2.916-2.208 c-1.604,0-2.917,0.989-2.917,2.208c0,1.229,1.313,2.208,2.917,2.208C469.481,234.528,470.783,233.549,470.783,232.32"></path> <path fill-rule="evenodd" clip-rule="evenodd" fill="#B9CDE5" d="M470.449,239.902c0-2.781-1.208-5.041-2.707-5.041 c-1.49,0-2.707,2.26-2.707,5.041c0,2.791,1.218,5.041,2.707,5.041C469.241,244.942,470.449,242.693,470.449,239.902"></path> <path opacity="0.4062" fill-rule="evenodd" clip-rule="evenodd" fill="#FCD5B5" d="M490.445,235.153 c0-7.561,4.967-13.706,11.081-13.706c6.123,0,11.081,6.145,11.081,13.706c0,7.572-4.958,13.706-11.081,13.706 C495.413,248.858,490.445,242.724,490.445,235.153"></path> <polygon opacity="0.8281" fill-rule="evenodd" clip-rule="evenodd" fill="#17375E" points="489.81,252.857 479.114,261.064 473.449,273.051 473.449,276.207 473.449,276.207 479.114,281.883 492.33,283.768 514.357,281.247 523.792,277.467 526.939,273.051 524.428,265.48 513.097,254.128 513.097,254.128 509.952,252.857 509.327,259.804 506.806,263.585 497.371,260.429 489.81,252.857 "></polygon> <path fill-rule="evenodd" clip-rule="evenodd" d="M509.557,253.18c5.114,1.656,9.175,4.676,12.184,9.061 c2.25,3.322,5.114,8.603,2.855,12.383c-2.105,3.625-7.519,4.676-11.133,5.436c-4.958,1.208-10.227,1.812-15.33,2.261 c-4.52,0.302-8.873,0.302-13.394-0.146c-3.457-0.458-7.519-1.364-9.623-4.53c-2.406-3.781,0.75-9.217,2.853-12.237 c3.166-4.832,7.978-9.206,13.394-11.477c1.802-0.75,1.052-2.864-0.605-2.114c-6.02,2.572-10.976,6.801-14.892,12.081 c-2.708,3.624-5.416,8.758-4.061,13.591c1.062,3.926,5.571,5.582,9.175,6.489c5.27,1.208,10.831,1.062,16.247,0.604 c6.165-0.302,12.476-1.208,18.495-2.708c4.208-1.062,9.176-2.718,11.581-6.801c2.551-4.228,0-9.061-2.104-12.831 c-3.156-5.592-8.123-9.362-14.142-11.175C509.702,250.608,507.754,252.722,509.557,253.18"></path> <path fill-rule="evenodd" clip-rule="evenodd" d="M492.216,256.044c1.208,4.999,6.343,8.03,11.019,9.238 c1.51,0.458,2.864,0.906,4.218-0.146c1.208-0.917,2.114-2.125,2.874-3.489c1.197-2.114,1.197-4.541,0.75-6.811 c-0.146-1.208-2.26-2.728-1.958-0.76c0.605,3.937-1.208,9.54-6.186,8.488c-3.322-0.761-7.998-2.885-8.904-6.52 C493.581,254.534,491.612,254.076,492.216,256.044"></path> <path fill-rule="evenodd" clip-rule="evenodd" d="M498.882,222.478c7.217-0.458,13.539,2.718,14.289,10.571 c0.603,5.895-2.105,12.237-6.77,15.862c-6.468,5.134-12.936-0.761-14.737-7.249c-1.957-6.801-0.907-18.736,7.519-20.693 c1.957-0.458,0.448-1.521-0.907-1.218c-9.467,2.124-11.581,13.299-9.768,21.454c1.802,8.009,8.873,12.987,16.84,10.269 c6.769-2.26,10.529-9.81,10.977-16.465c0.448-8.301-5.561-13.289-13.237-13.893c-1.5-0.146-2.854-0.146-4.354,0 C496.923,221.27,497.079,222.624,498.882,222.478"></path> <path fill-rule="evenodd" clip-rule="evenodd" d="M465.013,234.111c-2.062,4.801-1.323,10.436,3.28,13.258 c0.083,0.083,0.49,0.323,0.656,0.167c3.114-3.478,5.166-13.091-1.562-13.841c-0.489-0.083,0.573,0.999,0.989,1.083 c2.625,0.25,2.292,3.729,1.968,5.718c-0.417,2.145-1.312,4.467-2.707,6.041c0.167,0.083,0.405,0.083,0.572,0.166 c-3.781-2.322-3.447-8.029-1.885-11.591C466.481,234.694,465.086,233.861,465.013,234.111"></path> <polygon fill-rule="evenodd" clip-rule="evenodd" fill="#B6D19F" points="537.797,232.16 526.64,244.474 527.19,253.981 545.061,257.323 564.611,253.416 570.197,250.06 570.197,245.588 567.404,237.195 563.483,233.839 558.461,235.517 550.083,237.195 537.797,232.16 "></polygon> <g> <path fill-rule="evenodd" clip-rule="evenodd" fill="#FBB03B" d="M562.685,197.628c7.816,7.816-5.374,21.005,6.839,30.286 c-10.747-2.931-15.143-18.562-9.77-28.821"></path> <path d="M562.048,198.05c4.019,4.145,2.168,10.057,1.522,15.109c-0.336,2.631-0.47,5.311,0.214,7.901 c0.804,3.048,2.776,5.495,5.231,7.404c0.286-0.397,0.572-0.793,0.858-1.19c-11.19-3.187-14.238-18.557-9.443-27.908 c0.449-0.875-0.947-1.336-1.352-0.545c-5.123,9.99-1.865,26.326,10.097,29.733c0.674,0.192,1.598-0.615,0.858-1.19 c-2.556-1.988-4.453-4.569-5.014-7.806c-0.476-2.744-0.085-5.546,0.336-8.27c0.748-4.832,1.728-10.204-2.032-14.082 C562.719,196.584,561.411,197.393,562.048,198.05L562.048,198.05z"></path> </g> <path fill-rule="evenodd" clip-rule="evenodd" fill="#F8E8DB" d="M543.341,210.495c0-7.97,3.879-14.444,8.688-14.444 c4.796,0,8.689,6.474,8.689,14.444c0,7.984-3.893,14.443-8.689,14.443C547.22,224.938,543.341,218.478,543.341,210.495"></path> <path fill-rule="evenodd" clip-rule="evenodd" fill="none" d="M546.684,196.164c-9.211,7.334-6.15,34.529,7.616,27.871 C565.796,218.168,563.525,191.086,546.684,196.164"></path> <path fill-rule="evenodd" clip-rule="evenodd" d="M545.852,195.148c-5.868,4.937-6.122,14.81-4.133,21.623 c1.876,6.403,7.334,12.003,14.007,8.011c6.403-3.879,7.475-13.625,5.472-20.029C559.054,197.687,553.327,193.004,545.852,195.148 c0,0,0.945,2.398,1.466,2.13c3.075-0.804,6.277-0.93,9.07,0.804c2.933,1.876,3.879,5.473,4.132,8.816 c0.536,5.727-1.199,12.413-6.263,15.742c-2.271,1.466-5.332,1.876-7.871,0.535c-2.934-1.608-3.724-5.599-4.132-8.674 c-0.663-5.74,0.409-13.216,5.063-17.223C547.727,197.01,546.119,195.008,545.852,195.148"></path> <path fill-rule="evenodd" clip-rule="evenodd" d="M555.697,231.44c4.795,1.736,8.66,4.952,11.468,9.225 c2.003,3.074,3.737,7.348,1.593,10.692c-2.129,3.469-8.266,4.006-11.863,4.542c-4.006,0.535-8.011,0.93-12.003,0.93 c-5.614,0-15.205-0.127-17.885-6.277c-1.594-3.469,0.677-7.49,2.948-10.155c3.187-3.737,7.603-6.953,12.13-8.957 c0.931-0.395,1.862-1.875,0.268-1.072c-4.542,2.003-8.801,4.951-12.398,8.421c-3.075,3.074-6.136,6.686-5.741,11.368 c0.663,8.407,14.134,8.279,20.001,8.153c4.81,0,9.747-0.677,14.415-1.608c3.864-0.677,7.997-2.003,11.072-4.682 c3.202-2.807,2.666-6.545,1.058-10.156c-2.271-5.614-7.334-9.887-12.934-11.89C557.163,229.705,555.287,231.173,555.697,231.44"></path> <g> <path fill-rule="evenodd" clip-rule="evenodd" fill="#FBB03B" d="M553.602,197.224c-4.884,6.839-10.258,9.77-14.654,17.585 c1.466,3.42,1.466,7.327,1.954,11.235c-9.281,0-11.724-15.632-7.817-21.982c3.42-5.373,15.632-14.655,21.005-8.793"></path> <path d="M552.79,195.97c-3.26,4.511-7.56,8.053-11.068,12.345c-0.9,1.101-1.74,2.25-2.508,3.448 c-0.359,0.56-1.029,1.331-1.139,1.997c-0.097,0.591,0.297,1.246,0.487,1.778c1.1,3.085,1.077,6.508,1.465,9.728 c0.118-0.207,0.235-0.414,0.353-0.621c-6.759-0.107-8.578-8.016-8.149-13.485c0.233-2.973,1.16-5.491,3.11-7.753 c2.378-2.76,5.39-5.121,8.622-6.798c3.05-1.583,7.474-3.053,10.231-0.172c0.455,0.476,0.755,0.117,0.771-0.388 c0.023-0.697-0.523-1.47-0.978-1.946c-2.682-2.803-6.585-2.356-9.875-0.969c-3.851,1.624-7.357,4.356-10.129,7.463 c-4.81,5.393-4.375,13.906-1.368,20.12c1.7,3.513,4.67,6.662,8.808,6.727c0.338,0.005,0.385-0.353,0.353-0.621 c-0.483-4.017-0.565-8.118-2.119-11.913c0.034,0.384,0.068,0.768,0.102,1.152c3.855-6.751,10.148-11.35,14.654-17.585 C554.922,197.775,553.321,195.236,552.79,195.97L552.79,195.97z"></path> </g> <g> <path fill-rule="evenodd" clip-rule="evenodd" fill="#C7B299" d="M512.066,227.335c0.772-0.807,2.317-5.65,1.545-6.054 c-3.862-2.421-5.407,0.808-9.266,0.808c-10.036,0-13.898-0.404-14.67,5.246c4.634,0.808,9.266,0.404,14.67-0.404"></path> <path d="M514.547,227.237c0.639-0.748,0.942-1.855,1.232-2.773c0.278-0.879,0.809-2.209,0.567-3.149 c-0.321-1.247-2.708-1.625-3.777-1.71c-1.911-0.15-3.806,0.221-5.584,0.906c-0.577,0.222-1.157,0.458-1.725,0.703 c-0.373,0.161-0.393,0.077,0.031,0.058c-0.519,0.024-1.042,0.009-1.561,0.008c-1.663-0.004-3.326-0.02-4.989,0.021 c-2.728,0.068-5.674,0.234-8.199,1.373c-2.141,0.965-3.083,2.712-3.414,4.968c-0.041,0.282,0.714,0.425,0.81,0.441 c5.483,0.915,11.036,0.406,16.498-0.401c0.45-0.066,2.549-0.299,2.457-1.059c-0.088-0.731-2.292-0.494-2.639-0.443 c-4.268,0.631-8.552,1.121-12.841,0.406c0.27,0.147,0.54,0.294,0.81,0.441c0.148-1.009,0.392-2.004,1.014-2.833 c0.236-0.314,0.495-0.557,0.824-0.771c0.281-0.182-0.118,0.063,0.211-0.122c0.107-0.049,0.215-0.095,0.325-0.138 c-0.217,0.076-0.209,0.076,0.023,0c0.256-0.071,0.247-0.071-0.028,0c0.135-0.031,0.271-0.059,0.407-0.084 c0.29-0.052,0.282-0.05-0.023,0.003c0.154-0.021,0.308-0.04,0.462-0.057c0.161-0.018,0.323-0.034,0.484-0.048 c-0.261,0.022-0.231,0.021,0.089-0.001c0.369-0.021,0.738-0.038,1.108-0.05c1.68-0.055,3.361-0.039,5.041-0.034 c2.075,0.005,4.1-0.102,6.082-0.777c0.78-0.266,1.612-0.55,2.347-0.927c0.694-0.356-0.444,0.443-0.72,0.002 c0.079,0.126,0.747,0.274,0.89,0.346c0.538,0.273,0.518,0.315,0.511,0.866c-0.008,0.605-0.176,1.227-0.33,1.808 c-0.28,1.054-0.629,2.373-1.355,3.222c-0.571,0.668,1.695,0.716,1.891,0.709C512.385,228.107,513.895,228.001,514.547,227.237 L514.547,227.237z"></path> </g> <g> <path fill="#A67C52" d="M471.164,199.612c-7.114-3.274-15.245-2.822-16.328,7.026c4.358-2.282,11.72-1.877,14.317-6.506"></path> <path d="M472.567,199.11c-2.883-1.312-6.042-2.148-9.23-1.862c-3.136,0.281-6.34,1.553-8.163,4.231 c-1.118,1.643-1.597,3.608-1.825,5.558c-0.062,0.534,2.171-0.13,2.341-0.217c4.77-2.441,11.872-1.697,14.93-6.954 c0.267-0.459-1.055-0.291-1.185-0.267c-0.52,0.093-1.448,0.287-1.747,0.8c-1.269,2.182-3.548,3.008-5.867,3.617 c-2.64,0.693-5.386,1.186-7.838,2.44c0.78-0.072,1.561-0.144,2.341-0.217c0.221-1.888,0.733-3.789,1.832-5.367 c0.41-0.589,0.917-1.128,1.496-1.555c0.48-0.353,1.057-0.625,1.402-0.729c-0.197,0.06,0.515-0.123,0.197-0.053 c0.162-0.036,0.326-0.065,0.49-0.089c0.14-0.02,0.582-0.057,0.837-0.063c0.748-0.018,1.497,0.049,2.234,0.171 c1.716,0.285,3.369,0.84,4.95,1.56c0.565,0.257,1.362,0.018,1.913-0.18C471.793,199.891,473.023,199.317,472.567,199.11 L472.567,199.11z"></path> </g> </g> <g> <path d="M595.248,291.486c0,1.267-0.415,2.238-1.245,2.913c-0.83,0.676-2.012,1.013-3.545,1.013h-1.262v4.541h-1.983v-12.136 h3.494c1.517,0,2.652,0.31,3.407,0.93C594.87,289.366,595.248,290.279,595.248,291.486z M589.196,293.744h1.055 c1.018,0,1.765-0.178,2.241-0.531c0.476-0.354,0.714-0.908,0.714-1.66c0-0.697-0.213-1.218-0.64-1.561 c-0.426-0.344-1.09-0.515-1.992-0.515h-1.378V293.744z"></path> <path d="M602.918,299.953l-3.52-10.136h-0.066c0.094,1.506,0.141,2.917,0.141,4.233v5.902h-1.801v-12.136h2.797l3.37,9.653h0.05 l3.47-9.653h2.806v12.136h-1.909v-6.002c0-0.603,0.016-1.389,0.046-2.357c0.03-0.968,0.057-1.555,0.079-1.76h-0.066l-3.645,10.119 H602.918z"></path> <path d="M624.134,293.868c0,1.976-0.494,3.512-1.482,4.607c-0.987,1.096-2.386,1.644-4.195,1.644 c-1.832,0-3.239-0.544-4.222-1.631c-0.981-1.088-1.473-2.633-1.473-4.637c0-2.003,0.493-3.541,1.481-4.615 c0.987-1.073,2.397-1.61,4.229-1.61c1.804,0,3.198,0.545,4.184,1.636C623.641,290.351,624.134,291.887,624.134,293.868z M614.871,293.868c0,1.494,0.302,2.628,0.904,3.399c0.604,0.772,1.497,1.158,2.682,1.158c1.179,0,2.068-0.382,2.668-1.146 c0.601-0.764,0.901-1.901,0.901-3.412c0-1.488-0.298-2.617-0.893-3.387c-0.595-0.769-1.481-1.153-2.66-1.153 c-1.19,0-2.088,0.385-2.694,1.153C615.173,291.25,614.871,292.379,614.871,293.868z"></path> </g> <g> <path d="M58.928,195.592c0,1.491-0.488,2.633-1.465,3.428s-2.367,1.191-4.17,1.191h-1.484v5.342h-2.334v-14.277h4.111 c1.784,0,3.12,0.365,4.009,1.094S58.928,194.172,58.928,195.592z M51.809,198.248h1.24c1.198,0,2.077-0.208,2.637-0.625 s0.84-1.068,0.84-1.953c0-0.82-0.25-1.432-0.752-1.836s-1.283-0.605-2.344-0.605h-1.621V198.248z"></path> <path d="M67.014,194.557c0.462,0,0.843,0.033,1.143,0.098l-0.225,2.139c-0.326-0.078-0.664-0.117-1.016-0.117 c-0.918,0-1.662,0.299-2.231,0.898s-0.854,1.377-0.854,2.334v5.645h-2.295v-10.801h1.797l0.303,1.904h0.117 c0.358-0.645,0.825-1.156,1.401-1.533S66.35,194.557,67.014,194.557z"></path> <path d="M79.738,200.133c0,1.764-0.453,3.141-1.357,4.131s-2.165,1.484-3.779,1.484c-1.009,0-1.901-0.228-2.676-0.684 s-1.371-1.11-1.787-1.963s-0.625-1.842-0.625-2.969c0-1.751,0.449-3.119,1.348-4.102s2.165-1.475,3.799-1.475 c1.562,0,2.799,0.503,3.711,1.509S79.738,198.427,79.738,200.133z M71.877,200.133c0,2.494,0.921,3.74,2.764,3.74 c1.823,0,2.734-1.247,2.734-3.74c0-2.467-0.918-3.701-2.754-3.701c-0.963,0-1.662,0.319-2.095,0.957 S71.877,198.941,71.877,200.133z"></path> <path d="M81.272,210.357c-0.69,0-1.263-0.082-1.719-0.244v-1.816c0.443,0.117,0.895,0.176,1.357,0.176 c0.977,0,1.465-0.553,1.465-1.66v-12.061h2.295v12.217c0,1.113-0.292,1.957-0.874,2.529S82.372,210.357,81.272,210.357z M82.238,191.891c0-0.41,0.112-0.726,0.337-0.947s0.545-0.332,0.962-0.332c0.404,0,0.718,0.111,0.942,0.332 s0.337,0.537,0.337,0.947c0,0.391-0.112,0.698-0.337,0.923s-0.539,0.337-0.942,0.337c-0.417,0-0.737-0.112-0.962-0.337 S82.238,192.281,82.238,191.891z"></path> <path d="M92.668,205.748c-1.68,0-2.993-0.49-3.94-1.47s-1.421-2.329-1.421-4.048c0-1.764,0.439-3.151,1.318-4.16 s2.086-1.514,3.623-1.514c1.426,0,2.552,0.433,3.379,1.299s1.24,2.057,1.24,3.574v1.24H89.67c0.033,1.048,0.316,1.854,0.85,2.417 s1.286,0.845,2.256,0.845c0.638,0,1.232-0.06,1.782-0.181s1.141-0.321,1.772-0.601v1.865c-0.56,0.267-1.126,0.456-1.699,0.566 S93.404,205.748,92.668,205.748z M92.248,196.295c-0.729,0-1.313,0.231-1.753,0.693s-0.702,1.136-0.786,2.021h4.902 c-0.013-0.892-0.228-1.567-0.645-2.026S92.977,196.295,92.248,196.295z"></path> <path d="M103.83,205.748c-1.634,0-2.876-0.477-3.726-1.431s-1.274-2.323-1.274-4.106c0-1.816,0.444-3.213,1.333-4.189 s2.173-1.465,3.853-1.465c1.139,0,2.165,0.211,3.076,0.635l-0.693,1.846c-0.97-0.377-1.771-0.566-2.402-0.566 c-1.869,0-2.803,1.24-2.803,3.721c0,1.211,0.233,2.121,0.698,2.729s1.147,0.913,2.046,0.913c1.022,0,1.989-0.254,2.9-0.762v2.002 c-0.41,0.241-0.848,0.414-1.313,0.518S104.494,205.748,103.83,205.748z"></path> <path d="M113.401,203.893c0.56,0,1.12-0.088,1.68-0.264v1.729c-0.254,0.111-0.581,0.204-0.981,0.278s-0.815,0.112-1.245,0.112 c-2.174,0-3.262-1.146-3.262-3.438v-5.82h-1.475v-1.016l1.582-0.84l0.781-2.285h1.416v2.402h3.076v1.738h-3.076v5.781 c0,0.553,0.138,0.962,0.415,1.226S112.951,203.893,113.401,203.893z"></path> <path d="M55.647,229.553l-4.141-11.924h-0.078c0.111,1.771,0.166,3.431,0.166,4.98v6.943h-2.119v-14.277h3.291l3.965,11.357h0.059 l4.082-11.357h3.301v14.277h-2.246v-7.061c0-0.709,0.018-1.634,0.054-2.773s0.067-1.83,0.093-2.07h-0.078l-4.287,11.904H55.647z"></path> <path d="M74.445,229.553l-0.459-1.504h-0.078c-0.521,0.658-1.045,1.105-1.572,1.343s-1.205,0.356-2.031,0.356 c-1.061,0-1.89-0.287-2.485-0.859s-0.894-1.383-0.894-2.432c0-1.113,0.414-1.953,1.24-2.52s2.086-0.875,3.779-0.928l1.865-0.059 v-0.576c0-0.69-0.161-1.206-0.483-1.548s-0.822-0.513-1.499-0.513c-0.553,0-1.084,0.082-1.592,0.244s-0.996,0.355-1.465,0.576 l-0.742-1.641c0.586-0.306,1.227-0.539,1.924-0.698s1.354-0.239,1.973-0.239c1.374,0,2.411,0.299,3.11,0.898s1.05,1.54,1.05,2.822 v7.275H74.445z M71.027,227.99c0.833,0,1.502-0.233,2.007-0.698s0.757-1.118,0.757-1.958v-0.938l-1.387,0.059 c-1.081,0.039-1.867,0.22-2.358,0.542s-0.737,0.815-0.737,1.479c0,0.482,0.143,0.854,0.43,1.118S70.455,227.99,71.027,227.99z"></path> <path d="M88.791,229.553h-2.305v-6.641c0-0.833-0.167-1.455-0.503-1.865s-0.868-0.615-1.597-0.615c-0.97,0-1.68,0.287-2.129,0.859 s-0.674,1.533-0.674,2.881v5.381h-2.295v-10.801h1.797l0.322,1.416h0.117c0.326-0.514,0.788-0.912,1.387-1.191 s1.263-0.42,1.992-0.42c2.591,0,3.887,1.318,3.887,3.955V229.553z"></path> <path d="M98.742,229.553l-0.459-1.504h-0.078c-0.521,0.658-1.045,1.105-1.572,1.343s-1.205,0.356-2.031,0.356 c-1.061,0-1.89-0.287-2.485-0.859s-0.894-1.383-0.894-2.432c0-1.113,0.414-1.953,1.24-2.52s2.086-0.875,3.779-0.928l1.865-0.059 v-0.576c0-0.69-0.161-1.206-0.483-1.548s-0.822-0.513-1.499-0.513c-0.553,0-1.084,0.082-1.592,0.244s-0.996,0.355-1.465,0.576 l-0.742-1.641c0.586-0.306,1.227-0.539,1.924-0.698s1.354-0.239,1.973-0.239c1.374,0,2.411,0.299,3.11,0.898s1.05,1.54,1.05,2.822 v7.275H98.742z M95.324,227.99c0.833,0,1.502-0.233,2.007-0.698s0.757-1.118,0.757-1.958v-0.938l-1.387,0.059 c-1.081,0.039-1.867,0.22-2.358,0.542s-0.737,0.815-0.737,1.479c0,0.482,0.143,0.854,0.43,1.118S94.752,227.99,95.324,227.99z"></path> <path d="M112.707,218.752v1.26l-1.846,0.342c0.169,0.228,0.309,0.508,0.42,0.84s0.166,0.684,0.166,1.055 c0,1.113-0.384,1.989-1.152,2.627s-1.826,0.957-3.174,0.957c-0.345,0-0.658-0.026-0.938-0.078 c-0.495,0.306-0.742,0.664-0.742,1.074c0,0.248,0.116,0.433,0.347,0.557s0.656,0.186,1.274,0.186h1.885 c1.191,0,2.096,0.254,2.715,0.762s0.928,1.24,0.928,2.197c0,1.224-0.504,2.167-1.514,2.832s-2.467,0.996-4.375,0.996 c-1.471,0-2.594-0.26-3.369-0.781c-0.775-0.521-1.162-1.263-1.162-2.226c0-0.664,0.21-1.222,0.63-1.675s1.007-0.767,1.763-0.942 c-0.306-0.13-0.558-0.34-0.757-0.63s-0.298-0.594-0.298-0.913c0-0.404,0.114-0.746,0.342-1.025s0.566-0.557,1.016-0.83 c-0.56-0.241-1.014-0.633-1.362-1.177s-0.522-1.18-0.522-1.909c0-1.172,0.37-2.08,1.108-2.725s1.792-0.967,3.159-0.967 c0.306,0,0.626,0.021,0.962,0.063s0.587,0.086,0.757,0.132H112.707z M104.221,231.232c0,0.495,0.223,0.875,0.669,1.142 c0.446,0.268,1.073,0.4,1.88,0.4c1.25,0,2.181-0.179,2.793-0.537c0.612-0.357,0.918-0.833,0.918-1.425 c0-0.469-0.167-0.802-0.503-1.001s-0.958-0.298-1.87-0.298h-1.738c-0.658,0-1.18,0.155-1.567,0.464 S104.221,230.705,104.221,231.232z M105.207,222.248c0,0.677,0.174,1.198,0.522,1.562s0.848,0.547,1.499,0.547 c1.328,0,1.992-0.709,1.992-2.129c0-0.703-0.165-1.245-0.493-1.626s-0.829-0.571-1.499-0.571c-0.664,0-1.167,0.189-1.509,0.566 S105.207,221.525,105.207,222.248z"></path> <path d="M119.426,229.748c-1.68,0-2.993-0.49-3.94-1.47s-1.421-2.329-1.421-4.048c0-1.764,0.439-3.151,1.318-4.16 s2.086-1.514,3.623-1.514c1.426,0,2.552,0.433,3.379,1.299s1.24,2.057,1.24,3.574v1.24h-7.197c0.033,1.048,0.316,1.854,0.85,2.417 s1.286,0.845,2.256,0.845c0.638,0,1.232-0.06,1.782-0.181s1.141-0.321,1.772-0.601v1.865c-0.56,0.267-1.126,0.456-1.699,0.566 S120.162,229.748,119.426,229.748z M119.006,220.295c-0.729,0-1.313,0.231-1.753,0.693s-0.702,1.136-0.786,2.021h4.902 c-0.013-0.892-0.228-1.567-0.645-2.026S119.735,220.295,119.006,220.295z"></path> <path d="M135.334,229.553h-2.305v-6.66c0-0.827-0.156-1.444-0.469-1.851s-0.801-0.61-1.465-0.61c-0.885,0-1.535,0.288-1.948,0.864 s-0.62,1.535-0.62,2.876v5.381h-2.295v-10.801h1.797l0.322,1.416h0.117c0.299-0.514,0.734-0.912,1.304-1.191s1.196-0.42,1.88-0.42 c1.66,0,2.76,0.566,3.301,1.699h0.156c0.319-0.534,0.768-0.951,1.348-1.25s1.244-0.449,1.992-0.449 c1.289,0,2.228,0.326,2.817,0.977s0.884,1.644,0.884,2.979v7.041h-2.295v-6.66c0-0.827-0.158-1.444-0.474-1.851 s-0.806-0.61-1.47-0.61c-0.892,0-1.544,0.278-1.958,0.835s-0.62,1.411-0.62,2.563V229.553z"></path> <path d="M150.07,229.748c-1.68,0-2.993-0.49-3.94-1.47s-1.421-2.329-1.421-4.048c0-1.764,0.439-3.151,1.318-4.16 s2.086-1.514,3.623-1.514c1.426,0,2.552,0.433,3.379,1.299s1.24,2.057,1.24,3.574v1.24h-7.197c0.033,1.048,0.316,1.854,0.85,2.417 s1.286,0.845,2.256,0.845c0.638,0,1.232-0.06,1.782-0.181s1.141-0.321,1.772-0.601v1.865c-0.56,0.267-1.126,0.456-1.699,0.566 S150.806,229.748,150.07,229.748z M149.651,220.295c-0.729,0-1.313,0.231-1.753,0.693s-0.702,1.136-0.786,2.021h4.902 c-0.013-0.892-0.228-1.567-0.645-2.026S150.38,220.295,149.651,220.295z"></path> <path d="M166.379,229.553h-2.305v-6.641c0-0.833-0.167-1.455-0.503-1.865s-0.868-0.615-1.597-0.615 c-0.97,0-1.68,0.287-2.129,0.859s-0.674,1.533-0.674,2.881v5.381h-2.295v-10.801h1.797l0.322,1.416h0.117 c0.326-0.514,0.788-0.912,1.387-1.191s1.263-0.42,1.992-0.42c2.591,0,3.887,1.318,3.887,3.955V229.553z"></path> <path d="M173.596,227.893c0.56,0,1.12-0.088,1.68-0.264v1.729c-0.254,0.111-0.581,0.204-0.981,0.278s-0.815,0.112-1.245,0.112 c-2.174,0-3.262-1.146-3.262-3.438v-5.82h-1.475v-1.016l1.582-0.84l0.781-2.285h1.416v2.402h3.076v1.738h-3.076v5.781 c0,0.553,0.138,0.962,0.415,1.226S173.147,227.893,173.596,227.893z"></path> <path d="M62.151,246.394c0,2.324-0.581,4.131-1.743,5.42s-2.808,1.934-4.937,1.934c-2.155,0-3.81-0.64-4.966-1.919 s-1.733-3.097-1.733-5.454c0-2.356,0.581-4.166,1.743-5.43c1.162-1.263,2.821-1.895,4.976-1.895c2.123,0,3.763,0.642,4.922,1.924 C61.571,242.257,62.151,244.064,62.151,246.394z M51.252,246.394c0,1.758,0.355,3.091,1.064,3.999s1.761,1.362,3.154,1.362 c1.387,0,2.433-0.449,3.14-1.348s1.06-2.236,1.06-4.014c0-1.751-0.35-3.079-1.05-3.984c-0.7-0.904-1.743-1.357-3.13-1.357 c-1.4,0-2.456,0.453-3.169,1.357C51.609,243.315,51.252,244.643,51.252,246.394z"></path> <path d="M70.393,244.49h-2.637v9.062h-2.305v-9.062h-1.777v-1.074l1.777-0.703v-0.703c0-1.275,0.299-2.222,0.898-2.837 s1.514-0.923,2.744-0.923c0.807,0,1.602,0.134,2.383,0.4l-0.605,1.738c-0.566-0.182-1.107-0.273-1.621-0.273 c-0.521,0-0.9,0.161-1.138,0.483s-0.356,0.806-0.356,1.45v0.703h2.637V244.49z M77.649,244.49h-2.637v9.062h-2.305v-9.062H70.93 v-1.074l1.777-0.703v-0.703c0-1.275,0.299-2.222,0.898-2.837s1.514-0.923,2.744-0.923c0.807,0,1.602,0.134,2.383,0.4l-0.605,1.738 c-0.566-0.182-1.107-0.273-1.621-0.273c-0.521,0-0.9,0.161-1.138,0.483s-0.356,0.806-0.356,1.45v0.703h2.637V244.49z M79.358,239.89c0-0.41,0.112-0.726,0.337-0.947c0.225-0.221,0.545-0.332,0.962-0.332c0.404,0,0.718,0.111,0.942,0.332 c0.225,0.222,0.337,0.537,0.337,0.947c0,0.391-0.112,0.698-0.337,0.923s-0.539,0.337-0.942,0.337 c-0.417,0-0.737-0.112-0.962-0.337S79.358,240.281,79.358,239.89z M81.789,253.552h-2.295v-10.801h2.295V253.552z"></path> <path d="M89.426,253.747c-1.634,0-2.876-0.477-3.726-1.431c-0.85-0.953-1.274-2.322-1.274-4.106c0-1.816,0.444-3.213,1.333-4.189 s2.173-1.465,3.853-1.465c1.139,0,2.165,0.212,3.076,0.635l-0.693,1.846c-0.97-0.377-1.771-0.566-2.402-0.566 c-1.869,0-2.803,1.24-2.803,3.721c0,1.211,0.233,2.121,0.698,2.729c0.465,0.609,1.147,0.913,2.046,0.913 c1.022,0,1.989-0.254,2.9-0.762v2.002c-0.41,0.241-0.848,0.414-1.313,0.518C90.655,253.696,90.09,253.747,89.426,253.747z"></path> <path d="M99.69,253.747c-1.68,0-2.993-0.489-3.94-1.47c-0.947-0.979-1.421-2.329-1.421-4.048c0-1.764,0.439-3.15,1.318-4.16 c0.879-1.009,2.086-1.514,3.623-1.514c1.426,0,2.552,0.434,3.379,1.299c0.827,0.866,1.24,2.058,1.24,3.574v1.24h-7.197 c0.033,1.049,0.316,1.854,0.85,2.417c0.534,0.563,1.286,0.845,2.256,0.845c0.638,0,1.232-0.06,1.782-0.181 c0.55-0.12,1.141-0.32,1.772-0.601v1.865c-0.56,0.268-1.126,0.456-1.699,0.566C101.08,253.693,100.425,253.747,99.69,253.747z M99.27,244.294c-0.729,0-1.313,0.231-1.753,0.693c-0.439,0.463-0.702,1.137-0.786,2.021h4.902 c-0.013-0.892-0.228-1.567-0.645-2.026S99.999,244.294,99.27,244.294z"></path> </g> <g> <path fill="#FFFFFF" d="M630.684,309.591c-0.497,0.076-1.005,0.115-1.523,0.115h0 C629.679,309.706,630.187,309.667,630.684,309.591z"></path> <path fill="#666666" d="M629.161,309.956v-0.5c0.493,0,0.993-0.038,1.486-0.112l0.074,0.494 C630.204,309.916,629.678,309.956,629.161,309.956z"></path> </g> <g> <path fill="#F4F7F9" d="M647.161,172.373v24.422h125.677c5.523,0,10-4.477,10-10V75.463c0-5.523-4.477-10-10-10h-210 c-5.523,0-10,4.477-10,10v74.911h72.322C637.292,150.373,647.161,160.242,647.161,172.373z"></path> <path fill="#CCCCCC" d="M772.839,197.045H646.911v-24.672c0-11.993-9.757-21.75-21.75-21.75h-72.572V75.462 c0-5.652,4.598-10.25,10.25-10.25h210c5.652,0,10.25,4.598,10.25,10.25v111.333C783.089,192.447,778.491,197.045,772.839,197.045z M647.411,196.545h125.428c5.376,0,9.75-4.374,9.75-9.75V75.462c0-5.376-4.374-9.75-9.75-9.75h-210c-5.376,0-9.75,4.374-9.75,9.75 v74.661h72.072c12.269,0,22.25,9.981,22.25,22.25V196.545z"></path> </g> <path fill="#FFFFFF" d="M630.684,309.591c-0.497,0.076-1.005,0.115-1.523,0.115h0C629.679,309.706,630.187,309.667,630.684,309.591 z"></path> <g> <path fill="#F4F7F9" d="M383.161,150.373h72.29V75.463c0-5.523-4.477-10-10-10h-210c-5.523,0-10,4.477-10,10v111.333 c0,5.523,4.477,10,10,10h125.71v-24.422C361.161,160.242,371.031,150.373,383.161,150.373z"></path> <path fill="#CCCCCC" d="M361.411,197.045H235.452c-5.652,0-10.25-4.598-10.25-10.25V75.462c0-5.652,4.598-10.25,10.25-10.25h210 c5.652,0,10.25,4.598,10.25,10.25v75.161h-72.541c-11.993,0-21.75,9.757-21.75,21.75V197.045z M235.452,65.712 c-5.376,0-9.75,4.374-9.75,9.75v111.333c0,5.376,4.374,9.75,9.75,9.75h125.459v-24.172c0-12.269,9.981-22.25,22.25-22.25h72.041 V75.462c0-5.376-4.374-9.75-9.75-9.75H235.452z"></path> </g> <g> <path fill="#F4F7F9" d="M361.161,295.706v-27.695h-125.71c-5.523,0-10,4.477-10,10v111.333c0,5.523,4.477,10,10,10h210 c5.523,0,10-4.477,10-10v-71.638h-72.29C371.031,317.706,361.161,307.837,361.161,295.706z"></path> <path fill="#CCCCCC" d="M445.452,399.594h-210c-5.652,0-10.25-4.598-10.25-10.25V278.011c0-5.652,4.598-10.25,10.25-10.25h125.959 v27.945c0,11.993,9.757,21.75,21.75,21.75h72.541v71.888C455.702,394.996,451.104,399.594,445.452,399.594z M235.452,268.261 c-5.376,0-9.75,4.374-9.75,9.75v111.333c0,5.376,4.374,9.75,9.75,9.75h210c5.376,0,9.75-4.374,9.75-9.75v-71.388h-72.041 c-12.269,0-22.25-9.981-22.25-22.25v-27.445H235.452z"></path> </g> <g> <path fill="#1F497D" d="M385.582,88.741c0,1.079-0.39,1.926-1.17,2.54s-1.856,0.921-3.229,0.921s-2.496-0.213-3.37-0.639v-1.876 c0.553,0.26,1.142,0.465,1.764,0.614c0.623,0.149,1.203,0.224,1.739,0.224c0.786,0,1.365-0.149,1.739-0.448 c0.373-0.299,0.56-0.7,0.56-1.204c0-0.454-0.171-0.838-0.515-1.154s-1.051-0.689-2.125-1.121c-1.107-0.448-1.887-0.96-2.341-1.536 s-0.681-1.267-0.681-2.075c0-1.013,0.36-1.81,1.079-2.391s1.685-0.872,2.897-0.872c1.162,0,2.319,0.254,3.47,0.764l-0.631,1.619 c-1.079-0.454-2.042-0.681-2.889-0.681c-0.642,0-1.129,0.14-1.461,0.419c-0.332,0.28-0.498,0.649-0.498,1.108 c0,0.315,0.066,0.585,0.199,0.81c0.133,0.224,0.352,0.436,0.656,0.635s0.852,0.462,1.644,0.789 c0.891,0.371,1.544,0.717,1.959,1.038s0.719,0.684,0.913,1.087S385.582,88.193,385.582,88.741z"></path> <path fill="#1F497D" d="M394.198,92.037l-0.274-1.204h-0.1c-0.271,0.426-0.657,0.761-1.158,1.004 c-0.501,0.244-1.072,0.365-1.714,0.365c-1.112,0-1.942-0.277-2.49-0.83s-0.822-1.392-0.822-2.515v-6.001h1.967v5.661 c0,0.703,0.144,1.23,0.432,1.581c0.288,0.352,0.739,0.527,1.353,0.527c0.819,0,1.421-0.245,1.806-0.734 c0.384-0.49,0.577-1.311,0.577-2.461v-4.574h1.959v9.181H394.198z"></path> <path fill="#1F497D" d="M403.172,92.203c-1.162,0-2.064-0.418-2.706-1.253h-0.116c0.078,0.775,0.116,1.245,0.116,1.411v3.76 h-1.951V82.856h1.577c0.044,0.171,0.136,0.581,0.274,1.229h0.1c0.609-0.93,1.522-1.395,2.739-1.395 c1.146,0,2.038,0.415,2.677,1.245c0.639,0.83,0.958,1.995,0.958,3.495s-0.325,2.67-0.975,3.511 C405.215,91.782,404.317,92.203,403.172,92.203z M402.698,84.284c-0.775,0-1.341,0.227-1.697,0.681 c-0.357,0.454-0.536,1.179-0.536,2.175v0.291c0,1.118,0.177,1.927,0.531,2.428c0.354,0.5,0.933,0.751,1.735,0.751 c0.675,0,1.195-0.277,1.561-0.83s0.548-1.342,0.548-2.366c0-1.029-0.181-1.808-0.544-2.336 C403.934,84.548,403.401,84.284,402.698,84.284z"></path> <path fill="#1F497D" d="M413.763,92.203c-1.162,0-2.064-0.418-2.706-1.253h-0.116c0.078,0.775,0.116,1.245,0.116,1.411v3.76 h-1.951V82.856h1.577c0.044,0.171,0.136,0.581,0.274,1.229h0.1c0.609-0.93,1.522-1.395,2.739-1.395 c1.146,0,2.037,0.415,2.677,1.245c0.639,0.83,0.959,1.995,0.959,3.495s-0.325,2.67-0.976,3.511S414.909,92.203,413.763,92.203z M413.29,84.284c-0.775,0-1.341,0.227-1.697,0.681c-0.357,0.454-0.536,1.179-0.536,2.175v0.291c0,1.118,0.177,1.927,0.531,2.428 c0.354,0.5,0.933,0.751,1.735,0.751c0.675,0,1.195-0.277,1.56-0.83c0.365-0.553,0.548-1.342,0.548-2.366 c0-1.029-0.181-1.808-0.544-2.336C414.526,84.548,413.993,84.284,413.29,84.284z"></path> <path fill="#1F497D" d="M427.841,87.43c0,1.5-0.385,2.67-1.154,3.511c-0.769,0.841-1.84,1.262-3.212,1.262 c-0.858,0-1.616-0.194-2.274-0.581c-0.659-0.387-1.165-0.943-1.52-1.668c-0.354-0.725-0.531-1.566-0.531-2.523 c0-1.489,0.382-2.651,1.146-3.486s1.84-1.253,3.229-1.253c1.328,0,2.379,0.428,3.154,1.282 C427.454,84.828,427.841,85.98,427.841,87.43z M421.159,87.43c0,2.12,0.783,3.179,2.35,3.179c1.549,0,2.324-1.06,2.324-3.179 c0-2.097-0.78-3.146-2.341-3.146c-0.819,0-1.413,0.271-1.781,0.813C421.343,85.64,421.159,86.417,421.159,87.43z"></path> <path fill="#1F497D" d="M434.739,82.69c0.394,0,0.717,0.028,0.972,0.083l-0.191,1.818c-0.276-0.066-0.564-0.1-0.863-0.1 c-0.78,0-1.412,0.254-1.896,0.764s-0.727,1.17-0.727,1.984v4.798h-1.95v-9.181h1.527l0.257,1.619h0.1 c0.305-0.548,0.702-0.982,1.191-1.303C433.648,82.851,434.174,82.69,434.739,82.69z"></path> <path fill="#1F497D" d="M440.832,90.625c0.477,0,0.952-0.075,1.428-0.224v1.469c-0.216,0.094-0.494,0.173-0.834,0.236 c-0.341,0.064-0.693,0.096-1.059,0.096c-1.848,0-2.772-0.974-2.772-2.922v-4.947h-1.253V83.47l1.345-0.714l0.664-1.942h1.203 v2.042h2.615v1.478h-2.615v4.914c0,0.47,0.118,0.817,0.353,1.042C440.141,90.513,440.45,90.625,440.832,90.625z"></path> </g> <g> <g> <path fill="#1F497D" d="M570.632,80.062h3.603c1.672,0,2.879,0.244,3.624,0.73c0.744,0.487,1.116,1.256,1.116,2.308 c0,0.708-0.183,1.298-0.548,1.768s-0.892,0.767-1.577,0.888v0.083c0.852,0.161,1.479,0.478,1.88,0.95 c0.401,0.474,0.602,1.114,0.602,1.922c0,1.09-0.38,1.944-1.141,2.561c-0.762,0.617-1.819,0.926-3.176,0.926h-4.383V80.062z M572.617,85.076h1.909c0.83,0,1.436-0.131,1.817-0.395c0.382-0.263,0.573-0.709,0.573-1.34c0-0.57-0.206-0.982-0.618-1.237 c-0.413-0.254-1.067-0.382-1.964-0.382h-1.718V85.076z M572.617,86.686v3.843h2.108c0.83,0,1.457-0.159,1.88-0.477 c0.424-0.318,0.635-0.821,0.635-1.507c0-0.631-0.216-1.099-0.647-1.403s-1.087-0.457-1.967-0.457H572.617z"></path> <path fill="#1F497D" d="M585.657,92.364c-1.428,0-2.544-0.417-3.349-1.249c-0.806-0.833-1.208-1.98-1.208-3.441 c0-1.5,0.373-2.678,1.12-3.536s1.773-1.287,3.08-1.287c1.212,0,2.169,0.368,2.872,1.104c0.702,0.736,1.054,1.749,1.054,3.038 v1.054h-6.117c0.027,0.891,0.269,1.576,0.722,2.055c0.454,0.479,1.093,0.718,1.918,0.718c0.542,0,1.047-0.051,1.515-0.153 c0.468-0.103,0.97-0.273,1.507-0.511v1.585c-0.477,0.227-0.958,0.387-1.444,0.481C586.839,92.317,586.283,92.364,585.657,92.364z M585.3,84.329c-0.62,0-1.116,0.196-1.49,0.589c-0.373,0.393-0.597,0.966-0.668,1.718h4.167 c-0.012-0.758-0.194-1.332-0.548-1.723C586.407,84.524,585.92,84.329,585.3,84.329z"></path> <path fill="#1F497D" d="M596.099,82.851c0.394,0,0.717,0.028,0.972,0.083l-0.191,1.818c-0.276-0.066-0.564-0.1-0.863-0.1 c-0.78,0-1.412,0.254-1.896,0.764s-0.727,1.17-0.727,1.984v4.798h-1.95v-9.181h1.527l0.257,1.619h0.1 c0.305-0.548,0.702-0.982,1.191-1.303C595.008,83.012,595.535,82.851,596.099,82.851z"></path> <path fill="#1F497D" d="M604.516,92.198l-0.39-1.278h-0.066c-0.443,0.559-0.889,0.939-1.337,1.142 c-0.448,0.202-1.023,0.303-1.727,0.303c-0.901,0-1.606-0.244-2.112-0.73c-0.507-0.487-0.76-1.176-0.76-2.067 c0-0.946,0.352-1.66,1.055-2.142c0.702-0.481,1.773-0.744,3.212-0.789l1.586-0.05v-0.49c0-0.586-0.138-1.025-0.411-1.316 c-0.274-0.29-0.698-0.436-1.274-0.436c-0.47,0-0.921,0.069-1.353,0.208s-0.847,0.302-1.245,0.49l-0.631-1.395 c0.498-0.26,1.043-0.458,1.635-0.594c0.593-0.135,1.151-0.203,1.677-0.203c1.168,0,2.049,0.254,2.644,0.764 c0.596,0.509,0.893,1.309,0.893,2.399v6.184H604.516z M601.611,90.87c0.709,0,1.277-0.198,1.706-0.594 c0.429-0.396,0.644-0.95,0.644-1.664v-0.797l-1.179,0.05c-0.919,0.033-1.587,0.187-2.005,0.461 c-0.418,0.273-0.627,0.693-0.627,1.257c0,0.41,0.122,0.726,0.365,0.951C600.759,90.757,601.125,90.87,601.611,90.87z"></path> <path fill="#1F497D" d="M612.053,90.787c0.477,0,0.952-0.075,1.428-0.224v1.469c-0.216,0.094-0.494,0.173-0.834,0.236 c-0.341,0.064-0.693,0.096-1.059,0.096c-1.848,0-2.772-0.974-2.772-2.922v-4.947h-1.253v-0.863l1.345-0.714l0.664-1.942h1.203 v2.042h2.615v1.478h-2.615v4.914c0,0.47,0.118,0.817,0.353,1.042C611.363,90.674,611.672,90.787,612.053,90.787z"></path> <path fill="#1F497D" d="M621.791,92.198l-0.274-1.204h-0.1c-0.271,0.426-0.657,0.761-1.157,1.004 c-0.501,0.244-1.072,0.365-1.715,0.365c-1.112,0-1.942-0.277-2.49-0.83s-0.821-1.392-0.821-2.515v-6.001h1.967v5.661 c0,0.703,0.145,1.23,0.432,1.581c0.288,0.352,0.739,0.527,1.354,0.527c0.818,0,1.421-0.245,1.806-0.734 c0.384-0.49,0.576-1.311,0.576-2.461v-4.574h1.959v9.181H621.791z"></path> <path fill="#1F497D" d="M634.183,92.198h-1.959v-5.645c0-0.708-0.143-1.237-0.427-1.585c-0.285-0.349-0.738-0.523-1.357-0.523 c-0.825,0-1.428,0.244-1.81,0.73s-0.573,1.303-0.573,2.449v4.574h-1.95v-9.181h1.527l0.273,1.204h0.1 c0.277-0.437,0.67-0.775,1.179-1.013c0.51-0.238,1.074-0.357,1.693-0.357c2.203,0,3.304,1.121,3.304,3.362V92.198z"></path> <path fill="#1F497D" d="M644.651,83.017v1.071l-1.569,0.291c0.145,0.194,0.263,0.432,0.357,0.714 c0.094,0.282,0.141,0.581,0.141,0.896c0,0.946-0.326,1.69-0.979,2.233c-0.652,0.542-1.552,0.813-2.697,0.813 c-0.294,0-0.56-0.022-0.797-0.066c-0.421,0.26-0.631,0.564-0.631,0.913c0,0.21,0.098,0.368,0.295,0.473 c0.196,0.105,0.557,0.158,1.083,0.158h1.602c1.013,0,1.782,0.216,2.308,0.647c0.526,0.432,0.789,1.054,0.789,1.868 c0,1.041-0.429,1.843-1.287,2.407c-0.857,0.564-2.097,0.847-3.719,0.847c-1.25,0-2.205-0.221-2.863-0.664 c-0.659-0.443-0.988-1.074-0.988-1.893c0-0.564,0.179-1.039,0.536-1.424c0.356-0.384,0.855-0.651,1.498-0.801 c-0.261-0.111-0.475-0.289-0.644-0.535c-0.169-0.247-0.253-0.505-0.253-0.776c0-0.343,0.097-0.634,0.29-0.872 c0.194-0.238,0.481-0.473,0.863-0.706c-0.476-0.205-0.861-0.538-1.157-1c-0.297-0.462-0.444-1.003-0.444-1.623 c0-0.996,0.313-1.768,0.942-2.316c0.628-0.548,1.522-0.822,2.685-0.822c0.261,0,0.533,0.018,0.818,0.054 c0.284,0.036,0.499,0.074,0.643,0.112H644.651z M637.437,93.625c0,0.42,0.189,0.744,0.569,0.971 c0.379,0.227,0.911,0.34,1.598,0.34c1.062,0,1.854-0.152,2.374-0.457c0.52-0.304,0.78-0.708,0.78-1.212 c0-0.398-0.143-0.682-0.428-0.851c-0.285-0.168-0.814-0.253-1.59-0.253h-1.478c-0.559,0-1.003,0.131-1.332,0.395 C637.602,92.822,637.437,93.177,637.437,93.625z M638.276,85.989c0,0.576,0.147,1.018,0.444,1.328 c0.296,0.31,0.721,0.465,1.273,0.465c1.129,0,1.693-0.603,1.693-1.81c0-0.598-0.14-1.059-0.419-1.382 c-0.279-0.324-0.704-0.486-1.274-0.486c-0.564,0-0.991,0.161-1.282,0.481C638.422,84.907,638.276,85.374,638.276,85.989z"></path> </g> </g> <g> <g> <path fill="#1F497D" d="M343.777,385.908h-2.299l-3.81-5.495l-1.17,0.954v4.541h-1.984v-12.136h1.984v5.794 c0.542-0.664,1.082-1.304,1.619-1.918l3.279-3.876h2.258c-2.12,2.49-3.639,4.264-4.557,5.32L343.777,385.908z"></path> <path fill="#1F497D" d="M353.314,381.3c0,1.5-0.385,2.67-1.154,3.512c-0.769,0.841-1.84,1.262-3.212,1.262 c-0.858,0-1.616-0.194-2.274-0.581c-0.659-0.388-1.165-0.943-1.519-1.669c-0.354-0.725-0.531-1.565-0.531-2.523 c0-1.488,0.382-2.65,1.146-3.486c0.764-0.835,1.84-1.253,3.229-1.253c1.328,0,2.379,0.428,3.154,1.282 C352.927,378.699,353.314,379.851,353.314,381.3z M346.632,381.3c0,2.12,0.783,3.18,2.349,3.18c1.549,0,2.324-1.06,2.324-3.18 c0-2.097-0.78-3.146-2.341-3.146c-0.819,0-1.413,0.271-1.781,0.813C346.816,379.51,346.632,380.288,346.632,381.3z"></path> <path fill="#1F497D" d="M363.698,381.3c0,1.5-0.385,2.67-1.154,3.512c-0.769,0.841-1.84,1.262-3.212,1.262 c-0.858,0-1.616-0.194-2.274-0.581c-0.659-0.388-1.165-0.943-1.519-1.669c-0.354-0.725-0.531-1.565-0.531-2.523 c0-1.488,0.382-2.65,1.146-3.486c0.764-0.835,1.84-1.253,3.229-1.253c1.328,0,2.379,0.428,3.154,1.282 C363.311,378.699,363.698,379.851,363.698,381.3z M357.016,381.3c0,2.12,0.783,3.18,2.349,3.18c1.549,0,2.324-1.06,2.324-3.18 c0-2.097-0.78-3.146-2.341-3.146c-0.819,0-1.413,0.271-1.781,0.813C357.2,379.51,357.016,380.288,357.016,381.3z"></path> <path fill="#1F497D" d="M370.596,376.561c0.393,0,0.717,0.027,0.971,0.083l-0.191,1.817c-0.277-0.066-0.564-0.1-0.863-0.1 c-0.78,0-1.413,0.255-1.897,0.764c-0.484,0.51-0.726,1.171-0.726,1.984v4.798h-1.951v-9.181h1.527l0.257,1.618h0.1 c0.304-0.548,0.702-0.982,1.191-1.303C369.505,376.721,370.032,376.561,370.596,376.561z"></path> <path fill="#1F497D" d="M376.365,386.074c-1.146,0-2.039-0.415-2.681-1.245s-0.963-1.995-0.963-3.495 c0-1.505,0.325-2.677,0.976-3.515c0.65-0.839,1.551-1.258,2.702-1.258c1.207,0,2.125,0.445,2.756,1.336h0.1 c-0.094-0.658-0.141-1.179-0.141-1.561v-3.345h1.959v12.916h-1.527l-0.34-1.204h-0.091 C378.487,385.617,377.572,386.074,376.365,386.074z M376.888,384.496c0.802,0,1.386-0.226,1.751-0.677s0.553-1.183,0.564-2.195 v-0.274c0-1.156-0.188-1.979-0.564-2.465c-0.376-0.487-0.966-0.73-1.768-0.73c-0.686,0-1.215,0.278-1.585,0.834 c-0.371,0.557-0.556,1.349-0.556,2.378c0,1.019,0.18,1.795,0.54,2.329C375.63,384.229,376.169,384.496,376.888,384.496z"></path> <path fill="#1F497D" d="M383.745,374.294c0-0.349,0.096-0.617,0.286-0.805c0.191-0.188,0.464-0.282,0.818-0.282 c0.343,0,0.61,0.094,0.801,0.282c0.19,0.188,0.286,0.456,0.286,0.805c0,0.332-0.096,0.594-0.286,0.785 c-0.191,0.19-0.458,0.286-0.801,0.286c-0.354,0-0.626-0.096-0.818-0.286C383.84,374.888,383.745,374.626,383.745,374.294z M385.812,385.908h-1.951v-9.181h1.951V385.908z"></path> <path fill="#1F497D" d="M396.677,385.908h-1.959v-5.645c0-0.709-0.143-1.237-0.427-1.586c-0.285-0.349-0.738-0.522-1.357-0.522 c-0.825,0-1.428,0.243-1.81,0.73c-0.382,0.486-0.573,1.303-0.573,2.448v4.574h-1.951v-9.181h1.527l0.274,1.203h0.1 c0.277-0.437,0.669-0.774,1.179-1.013c0.509-0.237,1.074-0.356,1.693-0.356c2.203,0,3.304,1.12,3.304,3.361V385.908z"></path> <path fill="#1F497D" d="M405.136,385.908l-0.39-1.278h-0.066c-0.443,0.559-0.888,0.939-1.336,1.142 c-0.448,0.201-1.024,0.303-1.727,0.303c-0.902,0-1.606-0.244-2.112-0.73c-0.507-0.487-0.76-1.176-0.76-2.067 c0-0.946,0.352-1.66,1.054-2.142s1.773-0.744,3.212-0.788l1.585-0.05v-0.49c0-0.586-0.137-1.024-0.411-1.315 c-0.274-0.29-0.699-0.436-1.274-0.436c-0.47,0-0.921,0.069-1.353,0.207c-0.432,0.139-0.847,0.302-1.245,0.49l-0.631-1.395 c0.498-0.261,1.043-0.458,1.635-0.594s1.151-0.203,1.677-0.203c1.167,0,2.049,0.254,2.644,0.764 c0.595,0.509,0.893,1.309,0.893,2.398v6.185H405.136z M402.231,384.579c0.708,0,1.277-0.198,1.706-0.594 c0.429-0.396,0.643-0.95,0.643-1.664v-0.797l-1.179,0.05c-0.918,0.033-1.587,0.187-2.004,0.461 c-0.418,0.273-0.627,0.692-0.627,1.257c0,0.41,0.122,0.727,0.365,0.951C401.379,384.467,401.744,384.579,402.231,384.579z"></path> <path fill="#1F497D" d="M412.673,384.496c0.476,0,0.952-0.075,1.428-0.225v1.47c-0.216,0.094-0.494,0.173-0.834,0.236 c-0.341,0.063-0.693,0.096-1.059,0.096c-1.848,0-2.772-0.975-2.772-2.922v-4.947h-1.253v-0.863l1.345-0.714l0.664-1.942h1.204 v2.042h2.615v1.478h-2.615v4.914c0,0.47,0.118,0.817,0.353,1.042C411.983,384.384,412.291,384.496,412.673,384.496z"></path> <path fill="#1F497D" d="M415.819,374.294c0-0.349,0.096-0.617,0.286-0.805c0.191-0.188,0.464-0.282,0.818-0.282 c0.343,0,0.609,0.094,0.801,0.282c0.19,0.188,0.286,0.456,0.286,0.805c0,0.332-0.096,0.594-0.286,0.785 c-0.191,0.19-0.458,0.286-0.801,0.286c-0.354,0-0.627-0.096-0.818-0.286C415.915,374.888,415.819,374.626,415.819,374.294z M417.886,385.908h-1.951v-9.181h1.951V385.908z"></path> <path fill="#1F497D" d="M428.818,381.3c0,1.5-0.385,2.67-1.153,3.512c-0.77,0.841-1.84,1.262-3.213,1.262 c-0.857,0-1.615-0.194-2.274-0.581c-0.658-0.388-1.165-0.943-1.519-1.669c-0.354-0.725-0.531-1.565-0.531-2.523 c0-1.488,0.382-2.65,1.146-3.486c0.764-0.835,1.84-1.253,3.229-1.253c1.328,0,2.38,0.428,3.154,1.282 C428.431,378.699,428.818,379.851,428.818,381.3z M422.136,381.3c0,2.12,0.783,3.18,2.349,3.18c1.55,0,2.324-1.06,2.324-3.18 c0-2.097-0.78-3.146-2.341-3.146c-0.818,0-1.412,0.271-1.78,0.813C422.32,379.51,422.136,380.288,422.136,381.3z"></path> <path fill="#1F497D" d="M439.136,385.908h-1.959v-5.645c0-0.709-0.143-1.237-0.428-1.586s-0.737-0.522-1.357-0.522 c-0.824,0-1.428,0.243-1.81,0.73c-0.382,0.486-0.572,1.303-0.572,2.448v4.574h-1.951v-9.181h1.527l0.274,1.203h0.1 c0.276-0.437,0.669-0.774,1.179-1.013c0.509-0.237,1.073-0.356,1.693-0.356c2.202,0,3.304,1.12,3.304,3.361V385.908z"></path> </g> </g> <g> <path fill="#F4F7F9" d="M772.839,268.011h-54.193h-27.871h-44.613v34.407c0,8.444-6.845,15.288-15.288,15.288h-79.034V354v35.344 c0,5.523,4.477,10,10,10h211c5.523,0,10-4.477,10-10V278.011C782.839,272.488,778.361,268.011,772.839,268.011z"></path> <path fill="#CCCCCC" d="M772.839,399.594h-211c-5.652,0-10.25-4.598-10.25-10.25v-71.888h79.284 c8.292,0,15.038-6.746,15.038-15.039v-34.656h126.928c5.652,0,10.25,4.598,10.25,10.25v111.333 C783.089,394.996,778.491,399.594,772.839,399.594z M552.089,317.956v71.388c0,5.376,4.374,9.75,9.75,9.75h211 c5.376,0,9.75-4.374,9.75-9.75V278.011c0-5.376-4.374-9.75-9.75-9.75H646.411v34.156c0,8.568-6.971,15.539-15.538,15.539H552.089z "></path> </g> <g> <g> <path fill="#1F497D" d="M574.983,379.325h4.466v6.093c-0.73,0.238-1.432,0.407-2.104,0.507c-0.673,0.1-1.399,0.149-2.18,0.149 c-1.837,0-3.254-0.544-4.25-1.631c-0.996-1.088-1.494-2.622-1.494-4.604c0-1.953,0.562-3.481,1.686-4.586 c1.123-1.104,2.67-1.656,4.64-1.656c1.268,0,2.469,0.244,3.603,0.73l-0.697,1.652c-0.984-0.454-1.97-0.681-2.955-0.681 c-1.295,0-2.318,0.406-3.071,1.22c-0.752,0.813-1.129,1.926-1.129,3.337c0,1.483,0.339,2.611,1.018,3.383 c0.678,0.772,1.652,1.158,2.926,1.158c0.642,0,1.328-0.08,2.059-0.241v-3.129h-2.516V379.325z"></path> <path fill="#1F497D" d="M590.298,381.3c0,1.5-0.385,2.67-1.154,3.512c-0.769,0.841-1.84,1.262-3.212,1.262 c-0.858,0-1.616-0.194-2.274-0.581c-0.659-0.388-1.165-0.943-1.52-1.669c-0.354-0.725-0.531-1.565-0.531-2.523 c0-1.488,0.382-2.65,1.146-3.486c0.764-0.835,1.84-1.253,3.229-1.253c1.328,0,2.379,0.428,3.154,1.282 C589.911,378.699,590.298,379.851,590.298,381.3z M583.616,381.3c0,2.12,0.783,3.18,2.35,3.18c1.549,0,2.324-1.06,2.324-3.18 c0-2.097-0.78-3.146-2.341-3.146c-0.819,0-1.413,0.271-1.781,0.813C583.8,379.51,583.616,380.288,583.616,381.3z"></path> <path fill="#1F497D" d="M594.631,385.908l-3.486-9.181h2.059l1.867,5.337c0.321,0.896,0.515,1.622,0.581,2.175h0.066 c0.05-0.398,0.244-1.123,0.581-2.175l1.868-5.337h2.075l-3.503,9.181H594.631z"></path> <path fill="#1F497D" d="M605.646,386.074c-1.428,0-2.544-0.417-3.349-1.249c-0.806-0.833-1.208-1.98-1.208-3.441 c0-1.499,0.373-2.678,1.12-3.536c0.747-0.857,1.773-1.286,3.08-1.286c1.212,0,2.169,0.368,2.872,1.104 c0.702,0.736,1.054,1.749,1.054,3.038v1.055h-6.117c0.027,0.891,0.269,1.575,0.722,2.055c0.454,0.479,1.093,0.718,1.918,0.718 c0.542,0,1.047-0.052,1.515-0.153c0.468-0.103,0.97-0.273,1.507-0.511v1.585c-0.477,0.228-0.958,0.388-1.444,0.481 C606.828,386.027,606.272,386.074,605.646,386.074z M605.29,378.038c-0.62,0-1.116,0.196-1.49,0.589 c-0.373,0.394-0.597,0.966-0.668,1.719h4.167c-0.012-0.759-0.194-1.332-0.548-1.723 C606.396,378.234,605.909,378.038,605.29,378.038z"></path> <path fill="#1F497D" d="M616.089,376.561c0.394,0,0.717,0.027,0.972,0.083l-0.191,1.817c-0.276-0.066-0.564-0.1-0.863-0.1 c-0.78,0-1.412,0.255-1.896,0.764c-0.484,0.51-0.727,1.171-0.727,1.984v4.798h-1.95v-9.181h1.527l0.257,1.618h0.1 c0.305-0.548,0.702-0.982,1.191-1.303C614.998,376.721,615.524,376.561,616.089,376.561z"></path> <path fill="#1F497D" d="M626.839,385.908h-1.959v-5.645c0-0.709-0.143-1.237-0.428-1.586s-0.737-0.522-1.357-0.522 c-0.824,0-1.428,0.243-1.81,0.73c-0.382,0.486-0.572,1.303-0.572,2.448v4.574h-1.951v-9.181h1.527l0.274,1.203h0.1 c0.276-0.437,0.669-0.774,1.179-1.013c0.509-0.237,1.073-0.356,1.693-0.356c2.202,0,3.304,1.12,3.304,3.361V385.908z"></path> <path fill="#1F497D" d="M635.297,385.908l-0.39-1.278h-0.066c-0.443,0.559-0.889,0.939-1.337,1.142 c-0.448,0.201-1.023,0.303-1.727,0.303c-0.901,0-1.606-0.244-2.112-0.73c-0.507-0.487-0.76-1.176-0.76-2.067 c0-0.946,0.352-1.66,1.055-2.142c0.702-0.481,1.773-0.744,3.212-0.788l1.586-0.05v-0.49c0-0.586-0.138-1.024-0.411-1.315 c-0.274-0.29-0.698-0.436-1.274-0.436c-0.47,0-0.921,0.069-1.353,0.207c-0.432,0.139-0.847,0.302-1.245,0.49l-0.631-1.395 c0.498-0.261,1.043-0.458,1.635-0.594c0.593-0.136,1.151-0.203,1.677-0.203c1.168,0,2.049,0.254,2.644,0.764 c0.596,0.509,0.893,1.309,0.893,2.398v6.185H635.297z M632.391,384.579c0.709,0,1.277-0.198,1.706-0.594s0.644-0.95,0.644-1.664 v-0.797l-1.179,0.05c-0.919,0.033-1.587,0.187-2.005,0.461c-0.418,0.273-0.627,0.692-0.627,1.257c0,0.41,0.122,0.727,0.365,0.951 C631.54,384.467,631.905,384.579,632.391,384.579z"></path> <path fill="#1F497D" d="M647.491,385.908h-1.959v-5.645c0-0.709-0.143-1.237-0.428-1.586s-0.737-0.522-1.357-0.522 c-0.824,0-1.428,0.243-1.81,0.73c-0.382,0.486-0.572,1.303-0.572,2.448v4.574h-1.951v-9.181h1.527l0.274,1.203h0.1 c0.276-0.437,0.669-0.774,1.179-1.013c0.509-0.237,1.073-0.356,1.693-0.356c2.202,0,3.304,1.12,3.304,3.361V385.908z"></path> <path fill="#1F497D" d="M653.907,386.074c-1.389,0-2.444-0.405-3.167-1.216c-0.722-0.812-1.083-1.975-1.083-3.491 c0-1.544,0.378-2.73,1.133-3.561c0.756-0.83,1.848-1.245,3.275-1.245c0.968,0,1.84,0.18,2.614,0.539l-0.589,1.569 c-0.825-0.321-1.506-0.481-2.042-0.481c-1.589,0-2.383,1.054-2.383,3.162c0,1.029,0.198,1.803,0.594,2.32 s0.976,0.776,1.739,0.776c0.868,0,1.69-0.216,2.465-0.647v1.701c-0.349,0.205-0.721,0.352-1.116,0.44 C654.952,386.029,654.471,386.074,653.907,386.074z"></path> <path fill="#1F497D" d="M662.631,386.074c-1.428,0-2.545-0.417-3.35-1.249c-0.806-0.833-1.208-1.98-1.208-3.441 c0-1.499,0.374-2.678,1.121-3.536c0.747-0.857,1.773-1.286,3.079-1.286c1.212,0,2.17,0.368,2.872,1.104 c0.703,0.736,1.055,1.749,1.055,3.038v1.055h-6.118c0.028,0.891,0.269,1.575,0.723,2.055c0.453,0.479,1.093,0.718,1.917,0.718 c0.543,0,1.048-0.052,1.515-0.153c0.468-0.103,0.971-0.273,1.507-0.511v1.585c-0.476,0.228-0.957,0.388-1.444,0.481 C663.813,386.027,663.256,386.074,662.631,386.074z M662.274,378.038c-0.619,0-1.116,0.196-1.49,0.589 c-0.373,0.394-0.596,0.966-0.668,1.719h4.167c-0.011-0.759-0.193-1.332-0.548-1.723 C663.381,378.234,662.894,378.038,662.274,378.038z"></path> </g> </g> <g> <path fill="#FFFFFF" d="M668.908,127.331c-3.708-3.347-3.767-9.487-1.204-13.775c2.562-4.288,9.913-10.379,22.885-8.895 c8.424,0.963,13.102,4.432,16.287,8.955c0.232,0.329,7.664,9.287,1.574,15.458c-9.412,9.537-24.008,5.521-25.988,6.161 c-5.006,1.619-12.448,4.947-17.969,6.453c-0.066-5.054,6.481-7.206,7.163-9.579"></path> <path d="M669.707,126.099c-3.205-3.013-3.509-8.11-1.321-11.819c1.47-2.492,3.878-4.42,6.405-5.761 c3.986-2.116,8.572-2.824,13.043-2.623c4.751,0.214,9.701,1.321,13.61,4.158c2.24,1.626,4.036,3.794,5.571,6.081 c1.728,2.576,3.439,6.129,2.567,9.294c-0.575,2.088-2.438,3.591-4.145,4.778c-1.783,1.24-3.762,2.144-5.839,2.768 c-3.568,1.072-7.329,1.258-11.031,1.08c-1.426-0.069-2.847-0.218-4.272-0.296c-1.361-0.075-2.41,0.299-3.703,0.762 c-5.345,1.914-10.548,4.268-16.028,5.788c0.326,0.334,0.653,0.668,0.979,1.003c0.055-4.311,5.745-5.148,6.984-8.832 c0.174-0.517,0.385-1.466-0.281-1.751c-0.612-0.261-1.289,0.505-1.458,1.009c-0.153,0.455-0.829,1.003-1.376,1.446 c-0.904,0.733-1.828,1.441-2.68,2.236c-1.879,1.752-3.251,4.018-3.285,6.645c-0.008,0.6,0.285,1.195,0.979,1.003 c5.421-1.504,10.574-3.822,15.858-5.726c1.58-0.569,2.026-0.806,3.565-0.709c1.432,0.09,2.859,0.231,4.293,0.294 c4.123,0.18,8.332-0.137,12.255-1.494c4.326-1.497,9.243-4.555,10.875-9.057c1.404-3.875,0.189-8.038-1.853-11.444 c-1.531-2.552-3.447-5.028-5.778-6.882c-4.002-3.183-9.015-4.561-14.05-4.944c-4.954-0.377-10.078,0.323-14.538,2.594 c-3.402,1.732-6.529,4.332-8.362,7.73c-2.529,4.689-2.692,11.269,1.421,15.136C669.133,129.526,670.593,126.932,669.707,126.099 L669.707,126.099z"></path> </g> <path fill="#6785A5" d="M709.964,122.89c0,7.62-9.207,11.796-21.28,12.084c-3.224,0.077-4.931-0.197-7.779-1.151 c-0.916-0.307-9.803,4.998-10.645,4.603c-2.085-0.978,4.9-6.634,3.453-8.056c-2.175-2.137-5.754-6.168-5.754-8.919 c0-7.62,8.01-16.112,18.701-16.112S709.964,115.27,709.964,122.89z"></path> <g> <path fill="#808080" d="M727.935,133.355c-5.469,1.591-11.956,2.167-17.029-0.543c-0.526,0.528-1.073,1.018-1.638,1.469 c5.458,3.681,12.881,3.435,19.266,1.578C729.568,135.558,728.949,133.06,727.935,133.355z"></path> <path fill="#808080" d="M752.312,139.108c-1.706-1.653-3.175-3.444-4.225-5.581c-0.346-0.705-0.67-1.422-1.031-2.12 c-0.252-0.487-0.514-0.935-0.854-1.368c-0.49-0.623-0.644-0.692-0.234-1.43c0.457-0.821,1.008-1.517,1.361-2.398 c0.313-0.782,0.506-1.605,0.654-2.432c0.324-1.818,0.322-3.719,0.081-5.547c-0.527-4.003-2.149-8.116-5.428-10.648 c-3.391-2.618-8.147-3.68-12.318-4.117c-4.615-0.484-9.494-0.209-13.889,1.366c-2.671,0.958-5.039,2.496-6.999,4.471 c0.489,0.599,0.967,1.227,1.43,1.891c1.617-1.564,3.51-2.832,5.645-3.663c4.115-1.6,8.695-1.986,13.069-1.639 c4.088,0.324,8.467,1.233,11.98,3.449c3.139,1.98,4.644,5.759,4.968,9.327c0.166,1.828,0.084,3.734-0.496,5.488 c-0.659,1.993-2.502,3.408-1.851,5.705c0.322,1.135,1.25,1.914,1.771,2.946c0.389,0.772,0.739,1.563,1.136,2.331 c0.391,0.755,0.84,1.464,1.313,2.153c-2.324-1.011-4.667-1.98-7.034-2.88c-1.82-0.692-3.663-1.368-5.553-1.844 c-0.946-0.238-2.403-0.69-3.298-0.079c-0.828,0.565,0.013,2.979,0.983,2.317c0.018-0.012,0.016-0.014,0.021-0.02 c0.009,0,0.009,0.002,0.03-0.001c0.099-0.016,0.194-0.047,0.295-0.049c0.176-0.004,0.391,0.012,0.586,0.034 c0.68,0.079,1.352,0.249,2.011,0.428c1.812,0.494,3.584,1.144,5.337,1.816c3.411,1.306,6.771,2.757,10.09,4.281 C753.102,141.863,752.835,139.614,752.312,139.108z"></path> </g> <g> <path fill="#D5D8DC" d="M316.228,102.109c-1.021,1.021-1.276,1.276-2.169,2.425c-1.129,1.452-0.031,3.892,1.25,5.212 c0.239,0.246,0.523,0.503,0.544,0.846c0.022,0.351-0.242,0.647-0.489,0.899c-2.571,2.623-18.043,18.146-20.614,20.769 c-0.995,1.015-2.229,2.115-3.632,1.889c-0.855-0.137-1.545-0.747-2.322-1.129c-2.103-1.034-4.765-0.261-6.458,1.359 c-1.692,1.62-2.566,3.919-3.075,6.206c-0.093,0.419-0.172,0.877,0.015,1.263c0.361,0.747,1.492,0.74,2.168,0.258 c0.676-0.481,1.068-1.256,1.612-1.883c2.294-2.643,6.043-2.139,7.961,0.789c2.579,3.938-5.58,7.009-4.161,8.227 c0.622,2.355,8.726-1.124,11.214-5.171c0.257-0.418,0.495-0.872,0.515-1.363c0.062-1.521-0.874-2.916-1.181-4.407 c-0.296-1.434,0.98-2.664,2.129-3.571c2.956-2.334,17.081-15.839,20.037-18.174c0.483-0.381,0.999-0.777,1.609-0.853 c1.171-0.146,2.116,0.895,3.21,1.338c2.318,0.939,4.27-1.394,6.057-3.143c1.195-1.17,2.415-2.434,2.863-4.045 c0.448-1.611,0.31-3.154-1.27-3.7c-1.647,1.296-3.365,2.628-5.404,3.114c-2.039,0.486-4.253,0.123-5.27-1.71 c-0.832-1.5,0.253-2.692,1.167-4.144c0.914-1.452,2.313-2.521,3.693-3.54c-4.383-2.866-6.169-0.824-9.105,1.601"></path> <path d="M315.783,101.831c-0.501,0.501-1.005,1-1.462,1.542c-0.424,0.504-0.902,1.009-1.09,1.654 c-0.345,1.185,0.158,2.5,0.772,3.509c0.339,0.558,0.767,1.005,1.19,1.494c0.503,0.581-0.222,1.129-0.619,1.533 c-0.771,0.785-1.545,1.569-2.318,2.352c-1.912,1.937-13.019,13.064-14.932,15.001c-0.805,0.815-1.61,1.631-2.414,2.448 c-0.858,0.872-1.729,1.9-2.914,2.321c-0.771,0.274-1.433,0.07-2.11-0.334c-0.641-0.383-1.267-0.765-1.994-0.963 c-1.325-0.36-2.738-0.187-3.987,0.361c-3.049,1.336-4.557,4.721-5.147,7.816c-0.137,0.719,0.012,1.371,0.626,1.82 c0.566,0.414,1.305,0.514,1.965,0.289c0.816-0.278,1.302-1.056,1.792-1.715c0.446-0.599,0.963-1.121,1.611-1.5 c2.16-1.263,5.16-0.37,6.125,2.015c0.689,1.703-0.735,3.275-1.897,4.346c-0.607,0.559-1.258,1.068-1.866,1.625 c-0.338,0.309-0.876,0.74-0.888,1.247c-0.007,0.282,0.186,0.507,0.382,0.685c-0.068-0.089-0.135-0.178-0.203-0.267 c0.206,0.712,0.948,1.109,1.637,1.213c0.851,0.128,1.742-0.091,2.549-0.344c2.284-0.714,4.467-2.01,6.222-3.632 c0.852-0.788,1.794-1.775,2.14-2.911c0.432-1.415-0.465-2.94-0.889-4.248c-0.227-0.7-0.339-1.352-0.017-2.042 c0.297-0.636,0.799-1.165,1.319-1.626c0.985-0.872,2.051-1.664,3.063-2.506c2.302-1.915,13.766-13.06,16.081-14.96 c0.482-0.395,0.965-0.789,1.455-1.174c0.592-0.466,1.28-0.997,2.081-0.789c0.663,0.173,1.231,0.665,1.826,0.986 c0.564,0.304,1.171,0.52,1.817,0.527c1.224,0.012,2.281-0.694,3.172-1.467c1.059-0.918,2.073-1.943,3.023-2.973 c1.097-1.189,1.968-2.572,2.101-4.222c0.112-1.395-0.606-2.671-1.989-3.1c-0.377-0.117-0.595,0.178-0.878,0.397 c-0.358,0.278-0.718,0.552-1.086,0.815c-0.69,0.493-1.409,0.95-2.178,1.311c-1.362,0.639-3.046,1.018-4.517,0.53 c-1.304-0.432-2.151-1.778-1.614-3.105c0.244-0.605,0.632-1.143,0.988-1.684c0.491-0.746,0.993-1.445,1.639-2.067 c0.703-0.677,1.488-1.263,2.272-1.843c0.227-0.168-0.126-0.46-0.256-0.545c-1.585-1.026-3.521-1.922-5.435-1.351 c-1.636,0.488-2.916,1.782-4.199,2.844c-0.313,0.259,0.527,0.866,0.785,0.652c1.186-0.982,2.361-2.159,3.825-2.718 c1.681-0.641,3.332,0.091,4.751,1.01c-0.085-0.182-0.171-0.363-0.256-0.545c-1.486,1.099-2.866,2.234-3.88,3.799 c-0.631,0.975-1.521,2.055-1.316,3.297c0.221,1.339,1.461,2.381,2.672,2.831c1.379,0.512,2.912,0.406,4.292-0.042 c1.817-0.59,3.348-1.787,4.83-2.953c-0.135-0.014-0.271-0.028-0.406-0.042c1.284,0.478,1.139,2.043,0.836,3.139 c-0.39,1.413-1.377,2.554-2.386,3.574c-0.85,0.858-1.691,1.755-2.623,2.525c-0.778,0.643-1.747,1.295-2.804,1.223 c-1.155-0.079-2.029-1.083-3.107-1.429c-1.314-0.421-2.28,0.369-3.252,1.149c-1.952,1.568-13.049,12.387-14.964,13.999 c-0.979,0.824-1.958,1.647-2.946,2.46c-0.842,0.693-1.74,1.339-2.528,2.092c-0.807,0.771-1.521,1.772-1.311,2.944 c0.23,1.289,0.979,2.436,1.149,3.74c0.157,1.198-0.529,2.176-1.284,3.039c-0.711,0.813-1.546,1.51-2.428,2.129 c-1.608,1.128-3.478,2.137-5.421,2.522c-0.334,0.066-0.679,0.119-1.021,0.109c-0.127-0.003-0.267-0.015-0.385-0.039 c-0.045-0.009-0.099-0.031-0.149-0.044c0.009,0.002,0.003-0.003,0.001,0.001c0.006-0.012,0.003,0.026-0.017-0.018 c0.029,0.065-0.035-0.059-0.032-0.051c-0.012-0.026-0.027-0.094-0.044-0.129c-0.032-0.062-0.252-0.33-0.16-0.225 c0.001,0.001,0.001,0.009,0.005-0.004c0.022-0.068,0.012-0.131,0.033-0.188c0.164-0.445,0.654-0.812,0.997-1.112 c0.544-0.476,1.106-0.932,1.637-1.422c1.024-0.944,2.201-2.176,2.167-3.674c-0.02-0.868-0.459-1.618-0.991-2.277 c-0.712-0.884-1.668-1.583-2.734-1.977c-2.098-0.774-4.343-0.143-5.76,1.582c-0.512,0.623-0.921,1.458-1.668,1.837 c-0.26,0.132-0.643,0.245-0.934,0.162c-0.325-0.092-0.289-0.554-0.257-0.828c0.167-1.433,0.727-2.941,1.391-4.214 c1.209-2.318,3.516-4.328,6.288-4.114c0.605,0.047,1.169,0.218,1.696,0.516c0.575,0.326,1.116,0.707,1.746,0.924 c1.187,0.409,2.322-0.007,3.271-0.755c0.752-0.593,1.4-1.314,2.07-1.995c0.714-0.726,1.43-1.451,2.146-2.175 c1.646-1.667,12.486-12.524,14.132-14.191c0.739-0.748,1.478-1.497,2.217-2.246c0.297-0.301,0.593-0.602,0.889-0.904 c0.322-0.328,0.776-0.684,0.823-1.175c0.057-0.594-0.488-1.014-0.84-1.41c-0.357-0.401-0.658-0.855-0.899-1.334 c-0.458-0.911-0.778-2.112-0.264-3.066c0.273-0.506,0.706-0.96,1.083-1.391c0.405-0.462,0.843-0.893,1.278-1.328 C316.894,102.166,316.057,101.558,315.783,101.831L315.783,101.831z"></path> </g> <g> <g> <path fill="#D5D8DC" d="M283.62,105.217c-1.51,0.842-0.951,1.983-0.396,3.62c0.555,1.637,4.964,7.94,6.401,9.364 c0.362,0.359,0.742,0.729,1.226,0.889c1.634,0.542,2.299-0.837,3.943-1.35c5.582,6.416,11.399,12.627,17.435,18.618 c0.293,0.29,0.617,0.596,1.027,0.647c0.468,0.058,0.9-0.234,1.282-0.511c1.214-0.883,3.54-3.261,2.884-4.611 c-0.177-0.364-0.483-0.647-0.781-0.921c-5.718-5.242-11.435-10.484-17.153-15.726c-0.791-0.725-0.695-2.739-0.227-3.704 c0.318-0.655-0.13,0.332,0.166-0.334c0.424-0.952-0.457-1.945-1.254-2.616c-1.78-1.5-9.047-5.817-10.762-6.067 c-1.714-0.25-1.484-0.219-2.551,1.292"></path> <path d="M283.455,104.559c-1.035,0.61-1.086,1.47-0.845,2.557c0.206,0.931,0.502,1.898,0.916,2.76 c0.826,1.721,1.972,3.317,3.064,4.874c1.045,1.49,2.099,3.121,3.451,4.358c0.49,0.449,1.057,0.783,1.744,0.763 c0.61-0.018,1.124-0.348,1.62-0.668c0.391-0.252,1.206-0.945,1.676-0.655c0.326,0.201,0.629,0.72,0.884,1.011 c0.345,0.392,0.69,0.784,1.036,1.175c4.848,5.472,9.868,10.792,15.05,15.948c0.449,0.447,0.964,1.088,1.676,0.972 c0.539-0.088,1.024-0.519,1.43-0.861c0.816-0.687,1.596-1.5,2.125-2.432c0.504-0.889,0.49-1.693,0.186-2.652 c-0.207-0.653-0.639-1.083-1.135-1.539c-0.721-0.662-1.443-1.323-2.165-1.985c-3.053-2.799-6.106-5.598-9.159-8.397 c-1.499-1.374-2.998-2.748-4.496-4.122c-0.386-0.354-0.803-0.692-1.166-1.069c-0.278-0.289-0.282-0.489-0.26-0.891 c0.031-0.586,0.143-1.245,0.458-1.752c-0.115-0.429-0.229-0.859-0.344-1.288c-0.006,0.038-0.034,0.091-0.047,0.117 c0.115,0.429,0.229,0.859,0.344,1.288c0.621-1.463-0.297-3.126-1.411-4.081c-0.867-0.743-1.86-1.355-2.823-1.963 c-1.354-0.855-2.736-1.669-4.143-2.434c-1.082-0.588-2.194-1.21-3.367-1.602c-0.523-0.175-1.199-0.329-1.745-0.24 c-0.632,0.103-0.99,0.934-1.315,1.398c-0.094,0.134,0.056,0.534,0.092,0.677c0.016,0.064,0.244,0.632,0.239,0.64 c0.287-0.41,0.589-1.085,1.061-1.321c0.423-0.212,1.079-0.049,1.513,0.034c0.88,0.167,1.726,0.632,2.518,1.031 c2.412,1.214,4.768,2.603,6.996,4.129c0.449,0.307,0.897,0.62,1.307,0.978c0.325,0.284,0.568,0.615,0.858,0.927 c0.014,0.02,0.028,0.04,0.042,0.06c0.082,0.164,0.1,0.164,0.054-0.001c-0.017-0.167-0.031-0.165-0.042,0.007 c-0.012,0.043-0.023,0.087-0.034,0.13c-0.039,0.128-0.104,0.249-0.157,0.372c-0.072,0.17,0.086,0.576,0.129,0.735 c0.02,0.073,0.227,0.53,0.216,0.552c0.026-0.053,0.065-0.115,0.074-0.174c0.036-0.225-0.072-0.524-0.129-0.735 c-0.017-0.063-0.22-0.546-0.216-0.552c-0.735,1.183-0.556,2.821-0.176,4.086c0.262,0.874,0.756,1.305,1.421,1.916 c0.888,0.814,1.776,1.629,2.664,2.443c3.442,3.155,6.883,6.311,10.325,9.466c0.888,0.814,1.776,1.629,2.665,2.443 c0.392,0.36,0.827,0.704,1.167,1.115c0.039,0.047,0.129,0.218,0.181,0.241c-0.548-0.248-0.025-0.816-0.11-0.445 c-0.036,0.156-0.047,0.309-0.096,0.464c-0.401,1.277-1.546,2.397-2.56,3.219c-0.562,0.456-1.274,1.019-2.013,0.62 c-0.47-0.254-0.855-0.745-1.228-1.118c-0.422-0.422-0.844-0.844-1.264-1.268c-1.655-1.668-3.293-3.353-4.914-5.054 c-3.628-3.808-7.169-7.698-10.622-11.665c-0.008-0.006-0.017-0.012-0.026-0.019c-1.42,0.477-2.689,2.096-4.288,1.193 c-0.975-0.55-1.736-1.7-2.402-2.572c-1.583-2.075-3.153-4.244-4.397-6.543c-0.251-0.463-0.428-0.927-0.597-1.427 c-0.273-0.808,0.105-1.425,0.841-1.859C283.981,105.76,283.446,104.564,283.455,104.559L283.455,104.559z"></path> </g> <g> <path fill="#6785A5" d="M307.285,132.862c-0.469,0.312-0.864,0.782-0.947,1.339s0.223,1.187,0.763,1.348 c0.581,0.174,1.17-0.206,1.769-0.3c0.963-0.15,1.904,0.474,2.466,1.27c0.562,0.796,0.841,1.75,1.209,2.652 c1.654,4.055,5.108,7.053,8.443,9.892c0.466,0.397,0.973,0.811,1.581,0.875c0.554,0.057,1.09-0.188,1.584-0.443 c2.48-1.282,3.258-1.191,5.626-4.322c0.304-0.403,0.895-2.338,0.867-2.842c-0.022-0.411-0.298-0.759-0.564-1.073 c-3.499-4.12-6.842-6.813-11.489-9.575c-0.495-0.294-1.028-0.616-1.251-1.147c-0.345-0.822,0.188-1.81-0.136-2.64 c-0.324-0.831-1.413-1.137-2.27-0.888c-0.857,0.248-1.531,0.896-2.168,1.52c-1.355,1.329-2.71,2.658-4.065,3.987"></path> <path d="M307.176,132.293c-0.964,0.681-1.393,1.866-0.925,2.985c0.176,0.42,0.483,0.78,0.944,0.878 c0.509,0.108,0.976-0.134,1.459-0.257c1.194-0.304,2.234,0.491,2.8,1.488c0.656,1.157,0.98,2.477,1.616,3.652 c1.316,2.431,3.233,4.465,5.262,6.314c0.968,0.882,1.948,1.783,2.984,2.584c0.421,0.325,0.898,0.597,1.444,0.604 c0.578,0.007,1.121-0.286,1.622-0.54c1.476-0.75,2.92-1.339,4.086-2.558c0.684-0.715,1.431-1.5,1.8-2.43 c0.298-0.752,0.59-1.613,0.636-2.427c0.07-1.238-0.963-2.147-1.725-2.991c-0.916-1.016-1.876-1.992-2.887-2.914 c-2.015-1.839-4.221-3.447-6.536-4.887c-0.659-0.41-1.528-0.765-2.045-1.355c-0.407-0.463-0.153-1.103-0.137-1.66 c0.036-1.214-0.529-2.295-1.831-2.437c-1.425-0.156-2.518,1.06-3.436,1.961c-1.238,1.214-2.476,2.429-3.714,3.643 c-0.183,0.18-0.177,0.509-0.131,0.744c0.018,0.091,0.17,0.568,0.348,0.393c0.981-0.962,1.962-1.925,2.943-2.887 c0.858-0.841,1.72-1.919,2.826-2.441c0.786-0.371,2.522-0.353,2.466,0.871c-0.044,0.939-0.252,1.911,0.368,2.728 c0.339,0.446,0.843,0.724,1.315,1.006c0.589,0.353,1.173,0.713,1.751,1.085c1.017,0.655,2.013,1.345,2.977,2.078 c1.956,1.487,3.756,3.163,5.409,4.981c0.415,0.456,0.836,0.914,1.221,1.396c0.34,0.425,0.311,0.453,0.179,0.981 c-0.186,0.743-0.409,1.476-0.881,2.085c-1.041,1.342-2.148,2.409-3.68,3.152c-0.767,0.372-1.554,0.858-2.362,1.121 c-1.219,0.396-2.086-0.546-2.936-1.275c-1.894-1.623-3.771-3.297-5.33-5.254c-0.873-1.096-1.633-2.281-2.203-3.564 c-0.52-1.17-0.823-2.505-1.705-3.478c-0.706-0.778-1.683-1.223-2.723-0.922c-0.476,0.138-1.077,0.432-1.546,0.119 c-0.672-0.448,0.059-1.125,0.496-1.434C307.693,133.219,307.479,132.079,307.176,132.293L307.176,132.293z"></path> </g> </g> <g> <g> <path fill="#6785A5" d="M269.654,333.136c-0.042,2.244-0.025,4.489,0.049,6.733c0.023,0.708,0.077,1.477,0.56,2.008 c0.598,0.657,1.618,0.704,2.521,0.702c6.681-0.01,13.362-0.02,20.043-0.03c0.459-0.001,0.959,0.012,1.315,0.295 c0.343,0.272,0.461,0.729,0.504,1.157c0.122,1.214-0.197,2.436-0.112,3.653s0.775,2.557,2.01,2.776 c1.691-0.124,9.299-9.298,13.105-14.741c0.887-1.375-13.118-14.264-14.331-13.085c-1.559,0.842-1.242,3.116-1.573,5.44 c-0.052,0.367-0.115,0.759-0.371,1.034c-0.371,0.401-1.001,0.415-1.556,0.4c-6.377-0.173-11.811,0.295-18.187,0.122 c-1.511-0.041-4.678-0.505-4.158,1.683"></path> </g> <path d="M266.018,331.949c-0.028,1.678-0.032,3.357-0.005,5.035c0.013,0.789,0.026,1.58,0.057,2.369 c0.025,0.635,0.055,1.32,0.361,1.894c0.576,1.079,2.01,1.373,3.12,1.489c1.526,0.16,3.103,0.049,4.635,0.047 c3.418-0.005,6.836-0.01,10.254-0.016c1.709-0.003,3.418-0.005,5.127-0.008c0.804-0.001,1.608-0.003,2.413-0.004 c0.375,0,0.415,0.066,0.571,0.412c0.178,0.396,0.19,0.875,0.197,1.301c0.033,2.335-0.832,5.598,2.029,6.666 c1.516,0.566,2.329,0.108,3.431-0.882c3.076-2.762,5.662-6.173,8.176-9.437c1.367-1.776,2.702-3.579,3.97-5.427 c0.437-0.637,0.033-1.212-0.339-1.814c-1.499-2.422-3.555-4.562-5.504-6.621c-2.153-2.275-4.391-4.535-6.861-6.468 c-0.747-0.585-1.539-1.175-2.456-1.457c-1.349-0.414-2.237-0.071-2.729,1.325c-0.366,1.038-0.423,2.182-0.492,3.271 c-0.035,0.554-0.063,1.109-0.107,1.663c-0.047,0.598-0.041,1.351-0.314,1.893c-0.407,0.808-1.363,0.638-2.117,0.623 c-0.796-0.017-1.592-0.024-2.388-0.025c-1.606-0.003-3.212,0.024-4.818,0.061c-3.231,0.075-6.463,0.189-9.695,0.151 c-1.119-0.013-2.234-0.081-3.352-0.106c-0.823-0.019-1.726-0.032-2.501,0.289c-0.763,0.316-1.009,0.952-0.854,1.738 c0.093,0.473,1.826,0.476,1.801,0.35c-0.285-1.446,0.897-1.805,2.103-1.82c1.66-0.02,3.329,0.114,4.991,0.117 c4.513,0.008,9.023-0.231,13.537-0.22c1.056,0.003,2.116,0.062,3.172,0.047c0.917-0.013,1.781-0.205,2.042-1.199 c0.4-1.522,0.244-3.206,0.432-4.762c0.086-0.708,0.202-1.447,0.511-2.096c0.136-0.287,0.308-0.547,0.553-0.752 c0.031-0.026,0.197-0.109,0.225-0.152c0.059-0.09,0.012-0.009,0.013-0.029c-0.017,0.297-1.352-0.419-0.615-0.004 c0.183,0.103,0.494,0.305,0.715,0.46c1.622,1.138,3.078,2.527,4.499,3.901c1.704,1.649,3.349,3.363,4.923,5.137 c1.25,1.409,2.531,2.858,3.525,4.465c0.194,0.313,0.584,0.837,0.534,1.239c-0.039,0.316-0.361,0.627-0.537,0.881 c-0.47,0.676-0.948,1.345-1.433,2.01c-2.181,2.991-4.468,5.916-6.898,8.711c-0.975,1.121-1.971,2.232-3.051,3.255 c-0.359,0.34-0.728,0.677-1.127,0.971c-0.154,0.114-0.312,0.23-0.482,0.319c-0.064,0.033-0.34,0.132-0.221,0.119 c0.296,0.038,0.591,0.075,0.887,0.113c-1.128-0.264-1.512-2.048-1.541-2.997c-0.042-1.39,0.408-2.866,0.043-4.234 c-0.294-1.102-1.402-1.391-2.419-1.507c-1.395-0.159-2.856-0.037-4.259-0.035c-3.167,0.005-6.333,0.01-9.5,0.014 c-1.608,0.002-3.217,0.005-4.825,0.007c-0.754,0.001-1.508,0.002-2.262,0.003c-0.649,0.001-1.611,0.182-2.235-0.035 c-0.794-0.275-0.98-1.3-1.035-2.016c-0.065-0.844-0.059-1.699-0.074-2.545c-0.032-1.777-0.03-3.554,0-5.331 C267.826,331.895,266.022,331.704,266.018,331.949L266.018,331.949z"></path> </g> <path fill="#808080" d="M361.348,331.949c0.028,1.678,0.032,3.357,0.005,5.035c-0.013,0.789-0.026,1.58-0.057,2.369 c-0.025,0.635-0.055,1.32-0.361,1.894c-0.576,1.079-2.01,1.373-3.12,1.489c-1.526,0.16-3.103,0.049-4.635,0.047 c-3.418-0.005-6.836-0.01-10.254-0.016c-1.709-0.003-3.418-0.005-5.127-0.008c-0.804-0.001-1.608-0.003-2.413-0.004 c-0.375,0-0.415,0.066-0.571,0.412c-0.178,0.396-0.19,0.875-0.197,1.301c-0.033,2.335,0.832,5.598-2.029,6.666 c-1.516,0.566-2.329,0.108-3.431-0.882c-3.076-2.762-5.662-6.173-8.176-9.437c-1.367-1.776-2.702-3.579-3.97-5.427 c-0.437-0.637-0.033-1.212,0.339-1.814c1.499-2.422,3.555-4.562,5.504-6.621c2.153-2.275,4.391-4.535,6.861-6.468 c0.747-0.585,1.539-1.175,2.456-1.457c1.349-0.414,2.237-0.071,2.729,1.325c0.366,1.038,0.423,2.182,0.492,3.271 c0.035,0.554,0.063,1.109,0.107,1.663c0.047,0.598,0.041,1.351,0.314,1.893c0.407,0.808,1.363,0.638,2.117,0.623 c0.796-0.017,1.592-0.024,2.388-0.025c1.606-0.003,3.212,0.024,4.818,0.061c3.231,0.075,6.463,0.189,9.695,0.151 c1.119-0.013,2.234-0.081,3.352-0.106c0.823-0.019,1.726-0.032,2.501,0.289c0.763,0.316,1.009,0.952,0.854,1.738 c-0.093,0.473-1.826,0.476-1.801,0.35c0.285-1.446-0.897-1.805-2.103-1.82c-1.66-0.02-3.329,0.114-4.991,0.117 c-4.514,0.008-9.023-0.231-13.537-0.22c-1.056,0.003-2.116,0.062-3.172,0.047c-0.917-0.013-1.781-0.205-2.042-1.199 c-0.4-1.522-0.244-3.206-0.432-4.762c-0.086-0.708-0.202-1.447-0.511-2.096c-0.136-0.287-0.308-0.547-0.553-0.752 c-0.031-0.026-0.197-0.109-0.225-0.152c-0.059-0.09-0.012-0.009-0.013-0.029c0.017,0.297,1.352-0.419,0.615-0.004 c-0.183,0.103-0.494,0.305-0.715,0.46c-1.622,1.138-3.078,2.527-4.499,3.901c-1.704,1.649-3.349,3.363-4.923,5.137 c-1.25,1.409-2.531,2.858-3.525,4.465c-0.194,0.313-0.584,0.837-0.534,1.239c0.039,0.316,0.361,0.627,0.537,0.881 c0.47,0.676,0.948,1.345,1.433,2.01c2.181,2.991,4.468,5.916,6.898,8.711c0.975,1.121,1.971,2.232,3.051,3.255 c0.359,0.34,0.728,0.677,1.127,0.971c0.154,0.114,0.312,0.23,0.482,0.319c0.064,0.033,0.34,0.132,0.221,0.119 c-0.296,0.038-0.591,0.075-0.887,0.113c1.128-0.264,1.512-2.048,1.541-2.997c0.042-1.39-0.408-2.866-0.043-4.234 c0.294-1.102,1.402-1.391,2.419-1.507c1.395-0.159,2.856-0.037,4.259-0.035c3.167,0.005,6.333,0.01,9.5,0.014 c1.608,0.002,3.217,0.005,4.825,0.007c0.754,0.001,1.508,0.002,2.262,0.003c0.649,0.001,1.611,0.182,2.235-0.035 c0.794-0.275,0.98-1.3,1.035-2.016c0.065-0.844,0.059-1.699,0.074-2.545c0.032-1.777,0.03-3.554,0-5.331 C359.54,331.895,361.344,331.704,361.348,331.949L361.348,331.949z"></path> <g> <path fill="#6785A5" d="M702.327,301.465c-3.379-3.042-24.462,10.729-24.565,14.418c-0.103,3.689,32.762,4.425,45.608,0.846 c0.498-0.139,1.037-0.239,1.403-0.628c1.102-1.17-0.236-3.084-1.501-4.044c-4.053-3.075-13.782-8.687-18.273-10.948"></path> </g> <path d="M701.77,300.868c-0.73-0.581-1.827-0.492-2.689-0.364c-1.474,0.219-2.912,0.714-4.294,1.255 c-3.753,1.469-7.33,3.418-10.752,5.537c-3.082,1.909-6.208,3.964-8.803,6.517c-0.644,0.633-1.523,1.451-1.739,2.37 c-0.147,0.624,0.272,0.967,0.785,1.241c2.192,1.174,5.113,1.337,7.529,1.596c4.246,0.454,8.526,0.61,12.794,0.649 c4.792,0.044,9.589-0.082,14.37-0.419c4.087-0.288,8.201-0.692,12.212-1.556c0.971-0.209,2.037-0.382,2.931-0.817 c0.947-0.462,2.331-1.252,2.291-2.471c-0.076-2.283-3.231-3.768-4.914-4.801c-4.558-2.798-9.289-5.343-14.068-7.742 c-0.918-0.461-1.841-0.914-2.772-1.35c-0.244-0.114-0.817,0.336-1.008,0.46c-0.067,0.043-0.9,0.702-0.83,0.734 c4.271,2.001,8.439,4.248,12.542,6.57c2.046,1.158,4.084,2.342,6.051,3.63c0.932,0.61,1.867,1.224,2.529,2.141 c0.321,0.444,0.625,0.988,0.632,1.551c0.002,0.162-0.148,0.47-0.104,0.57c-0.014,0.033-0.029,0.066-0.043,0.1 c0.225-0.115,0.451-0.23,0.676-0.345c-0.001,0.06-0.921,0.249-1.024,0.275c-3.574,0.884-7.265,1.31-10.926,1.632 c-4.445,0.391-8.91,0.572-13.372,0.612c-4.222,0.038-8.45-0.048-12.663-0.339c-3.039-0.21-6.156-0.45-9.117-1.21 c-1.07-0.275-3.275-0.768-2.484-2.276c0.479-0.915,1.327-1.66,2.09-2.333c1.17-1.031,2.432-1.957,3.716-2.839 c3.058-2.102,6.307-3.972,9.676-5.529c1.474-0.681,2.981-1.308,4.539-1.768c1.063-0.314,2.25-0.62,3.369-0.479 c0.376,0.047,0.731,0.154,1.031,0.393C700.272,302.333,701.788,300.883,701.77,300.868L701.77,300.868z"></path> <path d="M674.992,329.042c-0.01,3.381-0.021,6.761-0.031,10.142c-0.005,1.69-0.01,3.381-0.016,5.071 c-0.004,1.282-0.081,2.552,0.342,3.782c0.288,0.84,0.819,1.845,1.721,2.147c0.834,0.279,2.253-0.17,2.744-0.909 c0.347-0.524,0.263-1.484,0.314-2.098c0.07-0.836,0.13-1.672,0.18-2.509c0.1-1.674,0.159-3.351,0.179-5.028 c0.045-3.834-0.126-7.667-0.493-11.484c-0.065-0.673-2.015,0.219-1.956,0.837c0.666,6.923,0.655,13.889-0.031,20.81 c0.253-0.268,0.506-0.536,0.76-0.804c0.092-0.05-0.354-0.24-0.442-0.306c-0.267-0.199-0.465-0.495-0.633-0.778 c-0.339-0.573-0.565-1.232-0.669-1.889c-0.289-1.825-0.055-3.842-0.05-5.688c0.012-4.045,0.025-8.089,0.037-12.134 C676.95,327.574,674.994,328.397,674.992,329.042L674.992,329.042z"></path> <path d="M685.743,329.042c-0.01,3.381-0.021,6.761-0.031,10.142c-0.005,1.69-0.01,3.381-0.016,5.071 c-0.004,1.282-0.081,2.552,0.342,3.782c0.288,0.84,0.819,1.845,1.721,2.147c0.834,0.279,2.253-0.17,2.744-0.909 c0.347-0.524,0.263-1.484,0.314-2.098c0.07-0.836,0.13-1.672,0.18-2.509c0.1-1.674,0.159-3.351,0.179-5.028 c0.045-3.834-0.126-7.667-0.493-11.484c-0.065-0.673-2.015,0.219-1.956,0.837c0.666,6.923,0.655,13.889-0.031,20.81 c0.253-0.268,0.506-0.536,0.76-0.804c0.092-0.05-0.354-0.24-0.442-0.306c-0.267-0.199-0.465-0.495-0.633-0.778 c-0.339-0.573-0.565-1.232-0.669-1.889c-0.289-1.825-0.055-3.842-0.05-5.688c0.012-4.045,0.025-8.089,0.037-12.134 C687.701,327.574,685.745,328.397,685.743,329.042L685.743,329.042z"></path> <path d="M708.66,329.042c-0.01,3.381-0.021,6.761-0.031,10.142c-0.005,1.69-0.01,3.381-0.016,5.071 c-0.004,1.282-0.081,2.552,0.342,3.782c0.288,0.84,0.819,1.845,1.721,2.147c0.834,0.279,2.253-0.17,2.744-0.909 c0.347-0.524,0.263-1.484,0.314-2.098c0.07-0.836,0.13-1.672,0.18-2.509c0.1-1.674,0.159-3.351,0.179-5.028 c0.045-3.834-0.126-7.667-0.493-11.484c-0.065-0.673-2.015,0.219-1.956,0.837c0.666,6.923,0.655,13.889-0.031,20.81 c0.253-0.268,0.506-0.536,0.76-0.804c0.092-0.05-0.354-0.24-0.442-0.306c-0.267-0.199-0.465-0.495-0.633-0.778 c-0.339-0.573-0.565-1.232-0.669-1.889c-0.289-1.825-0.055-3.842-0.05-5.688c0.012-4.045,0.025-8.089,0.037-12.134 C710.618,327.574,708.662,328.397,708.66,329.042L708.66,329.042z"></path> <path d="M719.411,329.042c-0.01,3.381-0.021,6.761-0.031,10.142c-0.005,1.69-0.01,3.381-0.016,5.071 c-0.004,1.282-0.081,2.552,0.342,3.782c0.288,0.84,0.819,1.845,1.721,2.147c0.834,0.279,2.253-0.17,2.744-0.909 c0.347-0.524,0.263-1.484,0.314-2.098c0.07-0.836,0.13-1.672,0.18-2.509c0.1-1.674,0.159-3.351,0.179-5.028 c0.045-3.834-0.126-7.667-0.493-11.484c-0.065-0.673-2.015,0.219-1.956,0.837c0.666,6.923,0.655,13.889-0.031,20.81 c0.253-0.268,0.506-0.536,0.76-0.804c0.092-0.05-0.354-0.24-0.442-0.306c-0.267-0.199-0.465-0.495-0.633-0.778 c-0.339-0.573-0.565-1.232-0.669-1.889c-0.289-1.825-0.055-3.842-0.05-5.688c0.012-4.045,0.025-8.089,0.037-12.134 C721.369,327.574,719.413,328.397,719.411,329.042L719.411,329.042z"></path> <path d="M696.777,329.042c-0.01,3.381-0.021,6.761-0.031,10.142c-0.005,1.69-0.01,3.381-0.016,5.071 c-0.004,1.282-0.081,2.552,0.341,3.782c0.288,0.84,0.819,1.845,1.721,2.147c0.834,0.279,2.253-0.17,2.744-0.909 c0.347-0.524,0.263-1.484,0.314-2.098c0.07-0.836,0.13-1.672,0.18-2.509c0.1-1.674,0.159-3.351,0.179-5.028 c0.045-3.834-0.126-7.667-0.493-11.484c-0.065-0.673-2.015,0.219-1.956,0.837c0.666,6.923,0.655,13.889-0.031,20.81 c0.253-0.268,0.506-0.536,0.76-0.804c0.092-0.05-0.354-0.24-0.442-0.306c-0.267-0.199-0.465-0.495-0.633-0.778 c-0.339-0.573-0.565-1.232-0.669-1.889c-0.289-1.825-0.055-3.842-0.05-5.688c0.012-4.045,0.025-8.089,0.037-12.134 C698.735,327.574,696.779,328.397,696.777,329.042L696.777,329.042z"></path> <g> <path fill="#6785A5" d="M682.427,322.843c-2.796,0.068-5.06,0.068-7.176,0.073c-1.392,0.003-2.393,1.135-1.542,1.977 c0.506,0.501,1.453,0.552,2.281,0.559c14.778,0.132,29.557,0.111,44.334-0.06c1.985-0.023,4.038-0.06,5.837-0.702 c1.799-0.642,0.398-0.236,0.153-1.742c-2.546-0.433-23.483-0.036-41.307-0.216"></path> <path d="M682.843,321.939c-2.384,0.056-4.797-0.061-7.176,0.073c-1.389,0.078-3.752,1.473-3.038,3.2 c0.313,0.757,1.18,1.005,1.917,1.091c1.292,0.15,2.636,0.068,3.936,0.078c2.665,0.02,5.33,0.035,7.995,0.046 c10.781,0.042,21.562,0.002,32.342-0.117c2.601-0.029,5.295,0.034,7.742-0.985c0.583-0.243,1.453-0.829,1.37-1.578 c-0.028-0.25-0.16-0.348-0.303-0.525c-0.252-0.31-0.391-0.533-0.477-0.94c-0.044-0.112-0.124-0.185-0.238-0.22 c-1.155-0.186-2.361-0.163-3.527-0.185c-2.204-0.042-4.409-0.044-6.613-0.044c-6.437-0.001-12.874,0.043-19.311,0.045 c-4.013,0.001-8.025-0.01-12.038-0.05c-0.761-0.008-1.906,1.799-0.831,1.809c12.8,0.127,25.613-0.23,38.41,0.058 c0.757,0.017,1.515,0.033,2.27,0.091c0.105,0.008,0.242,0.029,0.207,0.018c0.339,0.11-0.027-0.108,0.074,0.117 c0.112,0.253,0.214,0.486,0.392,0.702c0.056,0.068,0.121,0.165,0.196,0.211c0.173,0.103,0.039,0.22,0.052-0.071 c0.079-0.224,0.159-0.448,0.238-0.672c1.067-1.626,0.588-0.401,0.387-0.426c-0.152-0.019-0.447,0.164-0.599,0.215 c-0.444,0.147-0.893,0.261-1.353,0.342c-0.977,0.172-1.972,0.222-2.962,0.248c-2.082,0.054-4.168,0.053-6.25,0.073 c-4.179,0.039-8.358,0.065-12.537,0.08c-8.419,0.029-16.838,0.009-25.256-0.06c-0.943-0.008-2.197,0.174-3.071-0.255 c-0.173-0.085-0.267-0.22-0.412-0.323c-0.112-0.079-0.44-0.042-0.11-0.078c0.474-0.05,0.924-0.084,1.406-0.085 c2.114-0.005,4.227-0.021,6.34-0.071C682.772,323.73,683.908,321.914,682.843,321.939L682.843,321.939z"></path> </g> <g> <path fill="#6785A5" d="M682.427,352.833c-2.796,0.068-5.06,0.068-7.176,0.073c-1.392,0.003-2.393,1.135-1.542,1.977 c0.506,0.501,1.453,0.552,2.281,0.559c14.778,0.132,29.557,0.111,44.334-0.06c1.985-0.023,4.038-0.06,5.837-0.702 c1.799-0.642,0.398-0.236,0.153-1.742c-2.546-0.433-23.483-0.036-41.307-0.216"></path> <path d="M682.843,351.929c-2.384,0.056-4.797-0.061-7.176,0.073c-1.389,0.078-3.752,1.473-3.038,3.2 c0.313,0.757,1.18,1.005,1.917,1.091c1.292,0.15,2.636,0.069,3.936,0.078c2.665,0.02,5.33,0.035,7.995,0.046 c10.781,0.042,21.562,0.002,32.342-0.117c2.601-0.029,5.295,0.034,7.742-0.985c0.583-0.243,1.453-0.829,1.37-1.578 c-0.028-0.25-0.16-0.348-0.303-0.525c-0.252-0.31-0.391-0.533-0.477-0.94c-0.044-0.112-0.124-0.185-0.238-0.22 c-1.155-0.186-2.361-0.163-3.527-0.185c-2.204-0.042-4.409-0.044-6.613-0.044c-6.437-0.001-12.874,0.043-19.311,0.045 c-4.013,0.001-8.025-0.01-12.038-0.05c-0.761-0.008-1.906,1.799-0.831,1.809c12.8,0.127,25.613-0.23,38.41,0.058 c0.757,0.017,1.515,0.033,2.27,0.091c0.105,0.008,0.242,0.029,0.207,0.018c0.339,0.11-0.027-0.108,0.074,0.117 c0.112,0.253,0.214,0.486,0.392,0.702c0.056,0.068,0.121,0.165,0.196,0.211c0.173,0.103,0.039,0.22,0.052-0.071 c0.079-0.224,0.159-0.448,0.238-0.672c1.067-1.626,0.588-0.401,0.387-0.426c-0.152-0.019-0.447,0.164-0.599,0.215 c-0.444,0.147-0.893,0.261-1.353,0.342c-0.977,0.172-1.972,0.222-2.962,0.248c-2.082,0.054-4.168,0.053-6.25,0.073 c-4.179,0.039-8.358,0.065-12.537,0.08c-8.419,0.029-16.838,0.009-25.256-0.06c-0.943-0.008-2.197,0.174-3.071-0.255 c-0.173-0.085-0.267-0.22-0.412-0.323c-0.112-0.079-0.44-0.042-0.11-0.078c0.474-0.05,0.924-0.084,1.406-0.085 c2.114-0.005,4.227-0.021,6.34-0.071C682.772,353.72,683.908,351.904,682.843,351.929L682.843,351.929z"></path> </g> <path d="M700.202,309.238c-0.976-0.645-2.298-0.152-3.2,0.388c-0.997,0.597-1.963,1.504-1.834,2.762 c0.104,1.024,0.917,1.878,1.863,2.219c1.351,0.486,2.916-0.194,3.962-1.047c0.541-0.441,1.009-1.031,1.085-1.746 c0.062-0.582-0.098-1.184-0.524-1.597c-0.246-0.239-0.882,0.135-1.109,0.267c-0.097,0.056-1.002,0.616-0.8,0.813 c0.569,0.552,0.702,1.503,0.253,2.168c-0.026,0.038-0.053,0.076-0.082,0.113c0.072-0.092-0.026,0.022-0.043,0.043 c-0.077,0.098,0.114-0.087,0.016-0.01c-0.05,0.039-0.187,0.144,0.018-0.009c-0.054,0.04-0.182,0.101,0.069-0.043 c0.249-0.142,0.134-0.065,0.071-0.038c0.235-0.098,0.073-0.034,0.014-0.01c-0.061,0.021-0.044,0.016,0.049-0.014 c-0.034,0.009-0.068,0.018-0.103,0.026c-0.015,0.003-0.157,0.031-0.083,0.019c0.09-0.015-0.137,0.013-0.12,0.012 c-0.091,0.007-0.182,0.011-0.273,0.007c-0.193-0.009-0.395-0.056-0.581-0.118c-0.755-0.251-1.387-0.846-1.655-1.599 c-0.129-0.362-0.16-0.743-0.061-1.117c0.044-0.166,0.097-0.289,0.163-0.397c0.039-0.065,0.085-0.125,0.128-0.187 c0.1-0.144-0.07,0.056,0.01-0.013c0.035-0.03,0.067-0.069,0.099-0.102c0.134-0.14-0.113,0.105-0.019,0.019 c0.166-0.152-0.111,0.076-0.029,0.02c0.122-0.083-0.262,0.153-0.078,0.048c0.163-0.093-0.205,0.101-0.081,0.043 c0.125-0.058-0.251,0.092-0.06,0.026c0.162-0.056-0.183,0.037-0.002,0c0.036-0.008,0.073-0.017,0.109-0.025 c0.169-0.04-0.133,0.001,0.04-0.004c0.354-0.011,0.68,0.042,1.028,0.272c0.107,0.071,0.447-0.055,0.531-0.085 c0.258-0.092,0.526-0.232,0.751-0.388C699.876,309.846,700.498,309.434,700.202,309.238L700.202,309.238z"></path> </g> </svg> 