<?xml version="1.0" encoding="UTF-8"?>
<!DOCTYPE svg PUBLIC "-//W3C//DTD SVG 1.1//EN" "http://www.w3.org/Graphics/SVG/1.1/DTD/svg11.dtd">
<svg xmlns="http://www.w3.org/2000/svg" version="1.1" width="668px" height="494px" style="shape-rendering:geometricPrecision; text-rendering:geometricPrecision; image-rendering:optimizeQuality; fill-rule:evenodd; clip-rule:evenodd" xmlns:xlink="http://www.w3.org/1999/xlink">
<g><path style="opacity:1" fill="#fefefe" d="M -0.5,-0.5 C 222.167,-0.5 444.833,-0.5 667.5,-0.5C 667.5,164.167 667.5,328.833 667.5,493.5C 444.833,493.5 222.167,493.5 -0.5,493.5C -0.5,328.833 -0.5,164.167 -0.5,-0.5 Z"/></g>
<g><path style="opacity:1" fill="#fe6d66" d="M 414.5,92.5 C 410.504,143.83 382.837,171.496 331.5,175.5C 288.207,171.374 262.04,148.04 253,105.5C 252.501,99.8431 252.334,94.1764 252.5,88.5C 257.541,47.6235 280.208,22.7902 320.5,14C 361.724,10.5229 391.224,27.3562 409,64.5C 412.402,73.5344 414.235,82.8677 414.5,92.5 Z"/></g>
<g><path style="opacity:1" fill="#d74c44" d="M 324.5,45.5 C 353.197,43.7227 372.03,56.3893 381,83.5C 384.729,113.566 372.229,133.066 343.5,142C 321.726,145.692 304.559,138.525 292,120.5C 278.531,94.5605 283.031,72.3938 305.5,54C 311.62,50.4694 317.953,47.636 324.5,45.5 Z"/></g>
<g><path style="opacity:1" fill="#fefcfb" d="M 326.5,48.5 C 352.947,47.4742 370.114,59.4742 378,84.5C 381.101,112.04 369.601,130.206 343.5,139C 319.181,142.593 301.681,133.426 291,111.5C 282.598,78.9623 294.431,57.9623 326.5,48.5 Z"/></g>
<g><path style="opacity:1" fill="#ff726b" d="M 312.5,73.5 C 317.844,73.334 323.177,73.5006 328.5,74C 329.798,78.1179 329.798,82.2846 328.5,86.5C 323.22,87.6178 317.887,87.7845 312.5,87C 311.194,82.5006 311.194,78.0006 312.5,73.5 Z"/></g>
<g><path style="opacity:1" fill="#ff726b" d="M 314.5,106.5 C 319.65,107.651 324.984,107.817 330.5,107C 329.956,106.283 329.289,105.783 328.5,105.5C 327.859,104.518 327.193,103.518 326.5,102.5C 326.833,102.167 327.167,101.833 327.5,101.5C 330.167,103.5 332.5,105.833 334.5,108.5C 332.5,111.167 330.167,113.5 327.5,115.5C 326.275,113.157 326.941,111.323 329.5,110C 323.833,109.667 318.167,109.333 312.5,109C 311.365,104.252 311.198,99.419 312,94.5C 325.092,93.6764 338.258,93.1764 351.5,93C 353.733,89.5582 354.067,85.8915 352.5,82C 350.167,81.3333 347.833,81.3333 345.5,82C 343.627,84.2089 341.46,86.0422 339,87.5C 337,85.5 335,83.5 333,81.5C 335.325,72.1751 339.492,71.3418 345.5,79C 348.758,79.2117 351.924,79.7117 355,80.5C 355.667,84.8333 355.667,89.1667 355,93.5C 354.5,94 354,94.5 353.5,95C 340.5,95.3333 327.5,95.6667 314.5,96C 313.18,99.6013 313.18,103.101 314.5,106.5 Z"/></g>
<g><path style="opacity:1" fill="#fff8f8" d="M 314.5,75.5 C 318.514,75.3345 322.514,75.5012 326.5,76C 327.444,78.7191 327.777,81.5525 327.5,84.5C 322.833,84.5 318.167,84.5 313.5,84.5C 313.264,81.3915 313.597,78.3915 314.5,75.5 Z"/></g>
<g><path style="opacity:1" fill="#fff4f3" d="M 338.5,76.5 C 343.518,78.8672 343.684,81.5338 339,84.5C 337.647,83.3147 336.48,81.9814 335.5,80.5C 336.524,79.1482 337.524,77.8149 338.5,76.5 Z"/></g>
<g><path style="opacity:1" fill="#f2f3fb" d="M 252.5,88.5 C 252.334,94.1764 252.501,99.8431 253,105.5C 262.04,148.04 288.207,171.374 331.5,175.5C 382.837,171.496 410.504,143.83 414.5,92.5C 437.078,103.745 456.411,119.078 472.5,138.5C 433.571,161.724 420.071,195.391 432,239.5C 446.113,272.818 471.28,290.818 507.5,293.5C 503.886,307.677 498.886,321.343 492.5,334.5C 459.875,312.393 426.875,311.893 393.5,333C 363.06,358.161 353.727,389.661 365.5,427.5C 347.252,430.73 328.919,431.23 310.5,429C 307.149,428.943 304.149,428.109 301.5,426.5C 313.309,382.724 299.975,349.224 261.5,326C 231.346,312.617 202.679,315.117 175.5,333.5C 174.624,333.631 173.957,333.298 173.5,332.5C 167.243,320.062 162.577,307.062 159.5,293.5C 161.735,293.795 163.735,293.461 165.5,292.5C 202.778,287.392 226.611,266.725 237,230.5C 243.807,190.124 229.64,159.791 194.5,139.5C 209.491,119.514 228.157,103.847 250.5,92.5C 251.172,91.0508 251.839,89.7175 252.5,88.5 Z"/></g>
<g><path style="opacity:1" fill="#ff766f" d="M 337.5,101.5 C 343.176,101.334 348.843,101.501 354.5,102C 355.626,105.744 355.793,109.577 355,113.5C 354.5,114 354,114.5 353.5,115C 348.5,115.667 343.5,115.667 338.5,115C 336.16,110.747 335.827,106.247 337.5,101.5 Z"/></g>
<g><path style="opacity:1" fill="#ffc0bc" d="M 339.5,104.5 C 343.646,103.353 347.98,103.186 352.5,104C 353.814,106.605 353.814,109.105 352.5,111.5C 351.448,111.649 350.448,111.483 349.5,111C 350.728,110.221 351.728,109.221 352.5,108C 351.031,107.76 349.697,106.593 348.5,104.5C 347.5,105.833 346.5,107.167 345.5,108.5C 345.957,109.298 346.624,109.631 347.5,109.5C 347.53,110.497 347.03,111.164 346,111.5C 343.587,109.259 341.42,106.926 339.5,104.5 Z"/></g>
<g><path style="opacity:1" fill="#ffb5b1" d="M 328.5,105.5 C 329.289,105.783 329.956,106.283 330.5,107C 324.984,107.817 319.65,107.651 314.5,106.5C 319.363,106.819 324.03,106.486 328.5,105.5 Z"/></g>
<g><path style="opacity:1" fill="#fff6f5" d="M 339.5,104.5 C 341.42,106.926 343.587,109.259 346,111.5C 347.03,111.164 347.53,110.497 347.5,109.5C 346.624,109.631 345.957,109.298 345.5,108.5C 346.5,107.167 347.5,105.833 348.5,104.5C 349.697,106.593 351.031,107.76 352.5,108C 351.728,109.221 350.728,110.221 349.5,111C 350.448,111.483 351.448,111.649 352.5,111.5C 348.366,112.485 344.032,112.818 339.5,112.5C 339.5,109.833 339.5,107.167 339.5,104.5 Z"/></g>
<g><path style="opacity:1" fill="#ff837c" d="M 347.5,109.5 C 347.639,107.663 348.306,107.33 349.5,108.5C 349.043,109.298 348.376,109.631 347.5,109.5 Z"/></g>
<g><path style="opacity:1" fill="#ff837c" d="M 340.5,109.5 C 342.337,109.639 342.67,110.306 341.5,111.5C 340.702,111.043 340.369,110.376 340.5,109.5 Z"/></g>
<g><path style="opacity:1" fill="#fe8c3e" d="M 194.5,139.5 C 229.64,159.791 243.807,190.124 237,230.5C 226.611,266.725 202.778,287.392 165.5,292.5C 121.441,293.723 92.6074,273.39 79,231.5C 71.8385,187.321 88.3385,155.488 128.5,136C 151.026,127.847 173.026,129.013 194.5,139.5 Z"/></g>
<g><path style="opacity:1" fill="#0fccd1" d="M 507.5,293.5 C 471.28,290.818 446.113,272.818 432,239.5C 420.071,195.391 433.571,161.724 472.5,138.5C 510.168,123.127 543.001,130.127 571,159.5C 591.912,187.4 595.245,217.4 581,249.5C 564.675,277.588 540.175,292.255 507.5,293.5 Z"/></g>
<g><path style="opacity:1" fill="#fff4f4" d="M 294.5,139.5 C 295.93,139.421 297.264,139.754 298.5,140.5C 299.167,142.5 299.833,144.5 300.5,146.5C 303.697,143.516 306.364,143.849 308.5,147.5C 306.561,151.434 304.228,155.101 301.5,158.5C 297.926,156.965 297.592,154.799 300.5,152C 298.953,151.667 297.62,152.167 296.5,153.5C 295.702,151.922 295.202,150.256 295,148.5C 293.826,153.937 291.659,154.604 288.5,150.5C 290.528,146.816 292.528,143.15 294.5,139.5 Z"/></g>
<g><path style="opacity:1" fill="#fff3f2" d="M 366.5,140.5 C 368.361,143.022 370.361,145.522 372.5,148C 374.456,147.778 376.29,146.945 378,145.5C 379.022,146.354 379.855,147.354 380.5,148.5C 377.466,151.178 374.133,153.011 370.5,154C 367.795,150.758 365.461,147.258 363.5,143.5C 364.77,142.712 365.77,141.712 366.5,140.5 Z"/></g>
<g><path style="opacity:1" fill="#fff4f3" d="M 355.5,145.5 C 357.167,145.5 358.833,145.5 360.5,145.5C 360.649,146.552 360.483,147.552 360,148.5C 358.013,149.218 356.179,150.218 354.5,151.5C 354.667,151.833 354.833,152.167 355,152.5C 357.015,151.158 359.182,150.658 361.5,151C 361.957,151.414 362.291,151.914 362.5,152.5C 360.5,153.5 358.5,154.5 356.5,155.5C 356.833,155.833 357.167,156.167 357.5,156.5C 359.382,155.907 361.215,155.24 363,154.5C 364.188,155.563 364.688,156.897 364.5,158.5C 360.457,159.589 356.457,160.589 352.5,161.5C 351.868,157.439 350.535,153.606 348.5,150C 350.691,148.222 353.024,146.722 355.5,145.5 Z"/></g>
<g><path style="opacity:1" fill="#fff6f5" d="M 313.5,149.5 C 324.192,148.094 327.525,152.261 323.5,162C 314.406,165.235 310.239,162.068 311,152.5C 312.045,151.627 312.878,150.627 313.5,149.5 Z"/></g>
<g><path style="opacity:1" fill="#fff9f8" d="M 331.5,151.5 C 335.182,151.335 338.848,151.501 342.5,152C 346.105,155.315 346.439,158.982 343.5,163C 339.969,164.406 336.302,165.24 332.5,165.5C 332.002,160.848 331.669,156.181 331.5,151.5 Z"/></g>
<g><path style="opacity:1" fill="#ff6f68" d="M 316.5,153.5 C 320.35,153.701 321.35,155.534 319.5,159C 315.537,159.118 314.537,157.284 316.5,153.5 Z"/></g>
<g><path style="opacity:1" fill="#ff7972" d="M 336.5,154.5 C 339.697,155.112 341.031,157.112 340.5,160.5C 339.167,160.5 337.833,160.5 336.5,160.5C 336.5,158.5 336.5,156.5 336.5,154.5 Z"/></g>
<g><path style="opacity:1" fill="#df6e23" d="M 147.5,163.5 C 177.585,160.769 197.085,173.769 206,202.5C 208.956,230.776 197.123,249.61 170.5,259C 139.505,263.921 119.338,251.421 110,221.5C 107.196,192.078 119.696,172.745 147.5,163.5 Z"/></g>
<g><path style="opacity:1" fill="#1f9c9d" d="M 498.5,163.5 C 517.855,161.116 534.021,167.116 547,181.5C 562.944,206.334 560.444,229.168 539.5,250C 521.632,262.284 502.965,263.617 483.5,254C 464.74,241.088 457.24,223.255 461,200.5C 466.788,181.211 479.288,168.877 498.5,163.5 Z"/></g>
<g><path style="opacity:1" fill="#fefcfb" d="M 148.5,166.5 C 176.865,164.082 195.032,176.415 203,203.5C 205.481,229.392 194.647,246.892 170.5,256C 141.506,260.757 122.339,249.257 113,221.5C 110.155,193.54 121.989,175.207 148.5,166.5 Z"/></g>
<g><path style="opacity:1" fill="#fdfefe" d="M 499.5,166.5 C 528.641,164.464 546.808,177.464 554,205.5C 555.087,233.185 542.254,250.352 515.5,257C 489.091,258.593 471.925,246.76 464,221.5C 461.163,193.535 472.996,175.201 499.5,166.5 Z"/></g>
<g><path style="opacity:1" fill="#37d2d6" d="M 501.5,186.5 C 508.877,185.689 515.877,186.856 522.5,190C 524.049,191.214 525.215,192.714 526,194.5C 526.667,204.5 526.667,214.5 526,224.5C 524.636,227.363 522.47,229.363 519.5,230.5C 518.571,231.689 518.238,233.022 518.5,234.5C 517.167,234.5 515.833,234.5 514.5,234.5C 514.294,241.284 513.294,241.784 511.5,236C 511.629,234.019 512.296,232.353 513.5,231C 510.267,225.176 507.267,225.176 504.5,231C 506.478,233.497 506.978,236.331 506,239.5C 505.586,239.957 505.086,240.291 504.5,240.5C 503.534,238.604 503.201,236.604 503.5,234.5C 501.712,234.785 500.045,234.452 498.5,233.5C 498.709,232.914 499.043,232.414 499.5,232C 496.265,230.64 493.765,228.473 492,225.5C 491.333,214.833 491.333,204.167 492,193.5C 492.465,192.069 493.299,190.903 494.5,190C 496.925,188.787 499.259,187.621 501.5,186.5 Z"/></g>
<g><path style="opacity:1" fill="#fcfefe" d="M 504.5,189.5 C 509.637,189.494 514.637,190.327 519.5,192C 524.143,197.366 522.809,200.699 515.5,202C 509.747,202.851 504.08,202.517 498.5,201C 495.125,199.971 493.958,197.804 495,194.5C 497.907,192.132 501.074,190.465 504.5,189.5 Z"/></g>
<g><path style="opacity:1" fill="#ff8d3f" d="M 182.5,223.5 C 175.833,223.5 169.167,223.5 162.5,223.5C 162.198,226.059 162.532,228.393 163.5,230.5C 165.604,230.201 167.604,230.534 169.5,231.5C 161.5,232.833 153.5,232.833 145.5,231.5C 147.743,230.526 150.076,230.192 152.5,230.5C 152.5,228.167 152.5,225.833 152.5,223.5C 145.833,223.5 139.167,223.5 132.5,223.5C 132.5,212.833 132.5,202.167 132.5,191.5C 149.5,191.5 166.5,191.5 183.5,191.5C 183.809,202.248 183.476,212.915 182.5,223.5 Z"/></g>
<g><path style="opacity:1" fill="#fffbf8" d="M 134.5,193.5 C 150.167,193.5 165.833,193.5 181.5,193.5C 181.5,202.833 181.5,212.167 181.5,221.5C 165.833,221.5 150.167,221.5 134.5,221.5C 134.5,212.167 134.5,202.833 134.5,193.5 Z"/></g>
<g><path style="opacity:1" fill="#ff9751" d="M 152.5,195.5 C 159.298,194.263 164.798,196.263 169,201.5C 171.887,213.619 167.054,219.452 154.5,219C 146.936,215.994 144.103,210.494 146,202.5C 147.694,199.642 149.861,197.309 152.5,195.5 Z"/></g>
<g><path style="opacity:1" fill="#fffaf6" d="M 154.5,197.5 C 164.536,197.032 168.702,201.699 167,211.5C 160.924,218.099 154.924,218.099 149,211.5C 147.025,205.177 148.858,200.51 154.5,197.5 Z"/></g>
<g><path style="opacity:1" fill="#ff9a55" d="M 161.5,202.5 C 163.225,202.843 163.725,203.843 163,205.5C 161.207,208.295 159.04,210.795 156.5,213C 152.818,213.157 150.818,211.323 150.5,207.5C 152.39,207.297 153.89,207.963 155,209.5C 157.372,207.297 159.539,204.963 161.5,202.5 Z"/></g>
<g><path style="opacity:1" fill="#fbfefe" d="M 494.5,202.5 C 503.668,207.8 512.834,207.8 522,202.5C 524.067,208.586 522.233,212.752 516.5,215C 508.703,217.439 501.537,216.273 495,211.5C 494.502,208.518 494.335,205.518 494.5,202.5 Z"/></g>
<g><path style="opacity:1" fill="#fcfefe" d="M 494.5,215.5 C 503.256,220.421 512.256,220.755 521.5,216.5C 524.209,222.915 522.209,226.915 515.5,228.5C 513.162,226.661 510.996,224.661 509,222.5C 506.367,224.296 503.867,226.296 501.5,228.5C 495.026,226.548 492.693,222.215 494.5,215.5 Z"/></g>
<g><path style="opacity:1" fill="#ffdbc3" d="M 182.5,223.5 C 176.355,224.49 170.022,224.823 163.5,224.5C 163.5,226.5 163.5,228.5 163.5,230.5C 162.532,228.393 162.198,226.059 162.5,223.5C 169.167,223.5 175.833,223.5 182.5,223.5 Z"/></g>
<g><path style="opacity:1" fill="#fff3eb" d="M 154.5,223.5 C 156.5,223.5 158.5,223.5 160.5,223.5C 160.5,225.833 160.5,228.167 160.5,230.5C 158.5,230.5 156.5,230.5 154.5,230.5C 154.5,228.167 154.5,225.833 154.5,223.5 Z"/></g>
<g><path style="opacity:1" fill="#153c61" d="M 275.5,235.5 C 284.608,235.057 293.608,235.557 302.5,237C 306.753,240.42 307.587,244.587 305,249.5C 304.097,250.701 302.931,251.535 301.5,252C 305.171,253.828 307.504,256.661 308.5,260.5C 307.754,265.747 304.754,268.914 299.5,270C 291.507,270.5 283.507,270.666 275.5,270.5C 275.5,258.833 275.5,247.167 275.5,235.5 Z"/></g>
<g><path style="opacity:1" fill="#163c62" d="M 313.5,235.5 C 322.347,234.874 331.014,235.707 339.5,238C 346.167,244.667 346.167,251.333 339.5,258C 335.116,260.208 330.449,261.041 325.5,260.5C 325.5,263.833 325.5,267.167 325.5,270.5C 321.5,270.5 317.5,270.5 313.5,270.5C 313.5,258.833 313.5,247.167 313.5,235.5 Z"/></g>
<g><path style="opacity:1" fill="#133a60" d="M 377.5,270.5 C 377.666,264.824 377.499,259.157 377,253.5C 376.283,254.044 375.783,254.711 375.5,255.5C 373.163,258.681 370.996,262.014 369,265.5C 366.574,262.309 364.407,258.975 362.5,255.5C 362.217,254.711 361.717,254.044 361,253.5C 360.501,259.157 360.334,264.824 360.5,270.5C 356.833,270.5 353.167,270.5 349.5,270.5C 349.5,258.833 349.5,247.167 349.5,235.5C 353.514,235.334 357.514,235.501 361.5,236C 363.876,239.919 366.376,243.752 369,247.5C 371.5,243.667 374,239.833 376.5,236C 380.486,235.501 384.486,235.334 388.5,235.5C 388.5,247.167 388.5,258.833 388.5,270.5C 384.833,270.5 381.167,270.5 377.5,270.5 Z"/></g>
<g><path style="opacity:1" fill="#fff7f1" d="M 208.5,241.5 C 212.388,243.829 212.222,246.162 208,248.5C 207.333,249.167 207.333,249.833 208,250.5C 209.667,248.833 211.333,247.167 213,245.5C 213.87,246.108 214.37,246.941 214.5,248C 213.073,249.7 212.24,251.533 212,253.5C 213.667,251.833 215.333,250.167 217,248.5C 217.925,249.047 218.758,249.713 219.5,250.5C 217.528,254.105 214.861,257.105 211.5,259.5C 208.126,256.49 204.792,253.49 201.5,250.5C 204.084,247.651 206.417,244.651 208.5,241.5 Z"/></g>
<g><path style="opacity:1" fill="#e0e4ef" d="M 286.5,244.5 C 289.187,244.336 291.854,244.503 294.5,245C 295.833,246.333 295.833,247.667 294.5,249C 291.854,249.497 289.187,249.664 286.5,249.5C 286.5,247.833 286.5,246.167 286.5,244.5 Z"/></g>
<g><path style="opacity:1" fill="#e0e4ef" d="M 325.5,244.5 C 329.558,243.692 332.224,245.192 333.5,249C 333.241,250.261 332.574,251.261 331.5,252C 329.527,252.495 327.527,252.662 325.5,252.5C 325.5,249.833 325.5,247.167 325.5,244.5 Z"/></g>
<g><path style="opacity:1" fill="#fff8f3" d="M 102.5,246.5 C 110.656,245.821 114.156,249.488 113,257.5C 107.492,263.25 102.825,262.583 99,255.5C 98.3333,253.833 98.3333,252.167 99,250.5C 100.376,249.295 101.542,247.962 102.5,246.5 Z"/></g>
<g><path style="opacity:1" fill="#f9fdfd" d="M 558.5,245.5 C 559.627,246.122 560.627,246.955 561.5,248C 559.649,249.684 557.982,251.517 556.5,253.5C 556.833,253.833 557.167,254.167 557.5,254.5C 559.167,253.167 560.833,251.833 562.5,250.5C 563.308,250.808 563.975,251.308 564.5,252C 563.333,253.167 562.167,254.333 561,255.5C 560.312,256.332 560.479,256.998 561.5,257.5C 563.167,256.167 564.833,254.833 566.5,253.5C 567.5,253.833 568.167,254.5 568.5,255.5C 566.183,258.317 563.683,260.984 561,263.5C 557.505,260.838 554.338,257.838 551.5,254.5C 553.475,251.195 555.809,248.195 558.5,245.5 Z"/></g>
<g><path style="opacity:1" fill="#f6fdfd" d="M 460.5,247.5 C 463.631,250.129 466.631,252.962 469.5,256C 468.667,256.833 467.833,257.667 467,258.5C 465.26,256.046 463.093,254.546 460.5,254C 462.227,255.389 463.561,257.056 464.5,259C 464.37,260.059 463.87,260.892 463,261.5C 456.532,254.929 456.032,255.429 461.5,263C 461.387,264.28 460.72,265.113 459.5,265.5C 457.016,262.516 454.35,259.682 451.5,257C 454.704,253.964 457.704,250.797 460.5,247.5 Z"/></g>
<g><path style="opacity:1" fill="#ff954d" d="M 104.5,250.5 C 108.527,250.26 109.861,251.926 108.5,255.5C 103.732,256.889 102.398,255.223 104.5,250.5 Z"/></g>
<g><path style="opacity:1" fill="#fff6f0" d="M 197.5,253.5 C 199.26,256.701 200.094,260.367 200,264.5C 202.496,261.023 204.663,261.023 206.5,264.5C 202.858,266.975 199.358,269.642 196,272.5C 194.904,268.976 194.071,265.31 193.5,261.5C 191.302,264.243 189.302,264.077 187.5,261C 190.734,258.252 194.068,255.752 197.5,253.5 Z"/></g>
<g><path style="opacity:1" fill="#b1becf" d="M 362.5,255.5 C 361.833,260.5 361.167,265.5 360.5,270.5C 360.334,264.824 360.501,259.157 361,253.5C 361.717,254.044 362.217,254.711 362.5,255.5 Z"/></g>
<g><path style="opacity:1" fill="#8a9db3" d="M 377.5,270.5 C 376.833,265.5 376.167,260.5 375.5,255.5C 375.783,254.711 376.283,254.044 377,253.5C 377.499,259.157 377.666,264.824 377.5,270.5 Z"/></g>
<g><path style="opacity:1" fill="#e7eaf4" d="M 286.5,256.5 C 289.518,256.335 292.518,256.502 295.5,257C 296.833,258.333 296.833,259.667 295.5,261C 292.518,261.498 289.518,261.665 286.5,261.5C 286.5,259.833 286.5,258.167 286.5,256.5 Z"/></g>
<g><path style="opacity:1" fill="#fff6f0" d="M 119.5,257.5 C 122.965,258.484 126.131,260.15 129,262.5C 129.358,269.967 126.192,271.967 119.5,268.5C 118.201,269.09 117.368,270.09 117,271.5C 116,270.833 115,270.167 114,269.5C 115.51,265.472 117.343,261.472 119.5,257.5 Z"/></g>
<g><path style="opacity:1" fill="#f5fdfd" d="M 547.5,256.5 C 550.432,258.828 550.098,260.661 546.5,262C 548.423,264.515 550.09,267.182 551.5,270C 550.902,271.301 549.902,272.135 548.5,272.5C 546.512,269.872 544.512,267.205 542.5,264.5C 540.449,267.215 538.783,267.048 537.5,264C 540.734,261.252 544.068,258.752 547.5,256.5 Z"/></g>
<g><path style="opacity:1" fill="#f3fcfc" d="M 472.5,258.5 C 475.129,259.129 476.796,260.795 477.5,263.5C 479.945,262.035 481.945,262.535 483.5,265C 481.254,266.039 479.087,267.206 477,268.5C 478.271,278.317 476.437,278.984 471.5,270.5C 469.249,271.865 467.249,271.531 465.5,269.5C 467.583,268.041 469.75,266.708 472,265.5C 472.497,263.19 472.663,260.857 472.5,258.5 Z"/></g>
<g><path style="opacity:1" fill="#ff9a56" d="M 122.5,262.5 C 124.476,263.427 124.809,264.76 123.5,266.5C 121.358,265.563 121.024,264.23 122.5,262.5 Z"/></g>
<g><path style="opacity:1" fill="#fff8f3" d="M 182.5,262.5 C 183.376,262.369 184.043,262.702 184.5,263.5C 185.973,267.251 187.64,270.917 189.5,274.5C 188.562,275.553 187.395,276.22 186,276.5C 183.666,273.166 181.833,269.499 180.5,265.5C 180.942,264.261 181.609,263.261 182.5,262.5 Z"/></g>
<g><path style="opacity:1" fill="#fff6f1" d="M 133.5,264.5 C 137.342,264.868 141.009,265.868 144.5,267.5C 145.429,268.689 145.762,270.022 145.5,271.5C 144.07,271.579 142.736,271.246 141.5,270.5C 140.104,272.972 139.27,275.638 139,278.5C 136.2,280.118 134.7,279.285 134.5,276C 135.322,273.528 135.989,271.028 136.5,268.5C 135.167,268.5 133.833,268.5 132.5,268.5C 132.433,267.041 132.766,265.708 133.5,264.5 Z"/></g>
<g><path style="opacity:1" fill="#f9fdfe" d="M 530.5,265.5 C 532.124,265.36 533.29,266.027 534,267.5C 537.959,277.2 534.793,281.367 524.5,280C 522.677,276.701 521.344,273.201 520.5,269.5C 521.628,268.738 522.795,268.071 524,267.5C 525.299,270.006 526.299,272.673 527,275.5C 528.049,276.517 529.216,276.684 530.5,276C 530.395,272.509 530.395,269.009 530.5,265.5 Z"/></g>
<g><path style="opacity:1" fill="#f8fdfd" d="M 487.5,266.5 C 491.136,267.326 494.803,267.992 498.5,268.5C 498.762,269.978 498.429,271.311 497.5,272.5C 495.232,271.456 492.899,271.289 490.5,272C 492.392,272.973 494.392,273.64 496.5,274C 497.833,274.667 497.833,275.333 496.5,276C 494.064,275.947 491.731,276.113 489.5,276.5C 491.51,278.171 493.843,278.838 496.5,278.5C 496.5,279.833 496.5,281.167 496.5,282.5C 492.263,281.777 488.263,280.443 484.5,278.5C 485.915,274.591 486.915,270.591 487.5,266.5 Z"/></g>
<g><path style="opacity:1" fill="#fff5ef" d="M 170.5,267.5 C 172.288,267.215 173.955,267.548 175.5,268.5C 176.707,272.744 177.374,277.077 177.5,281.5C 173.241,281.898 171.408,279.898 172,275.5C 171.193,279.397 169.526,280.063 167,277.5C 166.749,279.433 166.249,281.266 165.5,283C 164.5,283.667 163.5,283.667 162.5,283C 161.059,278.31 160.392,273.477 160.5,268.5C 164.182,267.725 166.682,269.059 168,272.5C 169.372,271.09 170.205,269.423 170.5,267.5 Z"/></g>
<g><path style="opacity:1" fill="#fffaf6" d="M 150.5,268.5 C 151.833,268.5 153.167,268.5 154.5,268.5C 154.5,273.167 154.5,277.833 154.5,282.5C 152.833,282.5 151.167,282.5 149.5,282.5C 149.833,277.833 150.167,273.167 150.5,268.5 Z"/></g>
<g><path style="opacity:1" fill="#f7fdfd" d="M 507.5,269.5 C 511.122,268.924 514.122,269.924 516.5,272.5C 515.672,273.415 514.672,274.081 513.5,274.5C 508.397,272.439 506.73,273.939 508.5,279C 510.856,279.155 513.189,279.155 515.5,279C 516.833,280 516.833,281 515.5,282C 506.319,285.325 502.485,282.158 504,272.5C 505.145,271.364 506.312,270.364 507.5,269.5 Z"/></g>
<g><path style="opacity:1" fill="#f3c743" d="M 301.5,426.5 C 284.274,465.297 254.274,482.797 211.5,479C 169.266,468.7 146.599,441.866 143.5,398.5C 144.342,371.819 155.008,350.152 175.5,333.5C 202.679,315.117 231.346,312.617 261.5,326C 299.975,349.224 313.309,382.724 301.5,426.5 Z"/></g>
<g><path style="opacity:1" fill="#056d8f" d="M 492.5,334.5 C 522.15,361.438 529.984,393.771 516,431.5C 495.291,470.433 463.125,485.6 419.5,477C 394.012,468.679 376.012,452.179 365.5,427.5C 353.727,389.661 363.06,358.161 393.5,333C 426.875,311.893 459.875,312.393 492.5,334.5 Z"/></g>
<g><path style="opacity:1" fill="#d9a930" d="M 213.5,350.5 C 242.329,346.984 261.829,358.651 272,385.5C 277.183,415.312 265.683,435.479 237.5,446C 216.84,450.336 199.673,444.502 186,428.5C 174.477,410.75 173.477,392.416 183,373.5C 190.466,362.194 200.633,354.528 213.5,350.5 Z"/></g>
<g><path style="opacity:1" fill="#175f71" d="M 430.5,350.5 C 461.515,347.367 481.348,360.7 490,390.5C 490.5,428.667 471.667,447.5 433.5,447C 403.57,438.387 390.403,418.554 394,387.5C 399.692,368.642 411.859,356.309 430.5,350.5 Z"/></g>
<g><path style="opacity:1" fill="#fefefd" d="M 214.5,353.5 C 242.923,350.453 261.423,362.453 270,389.5C 272.449,414.373 262.282,431.873 239.5,442C 209.191,448.432 189.357,436.932 180,407.5C 177.581,380.45 189.081,362.45 214.5,353.5 Z"/></g>
<g><path style="opacity:1" fill="#fcfdfd" d="M 431.5,353.5 C 461.237,350.763 479.737,363.763 487,392.5C 488.146,418.014 476.646,434.847 452.5,443C 428.907,446.953 411.407,438.453 400,417.5C 390.547,386.074 401.047,364.741 431.5,353.5 Z"/></g>
<g><path style="opacity:1" fill="#f4cc55" d="M 235.5,384.5 C 235.5,381.833 235.5,379.167 235.5,376.5C 227.648,376.175 219.982,376.508 212.5,377.5C 212.5,388.5 212.5,399.5 212.5,410.5C 220.167,410.5 227.833,410.5 235.5,410.5C 235.366,412.292 235.699,413.958 236.5,415.5C 236.5,416.833 235.833,417.5 234.5,417.5C 233.766,416.292 233.433,414.959 233.5,413.5C 224.143,413.168 214.81,413.502 205.5,414.5C 206.283,416.288 207.616,417.288 209.5,417.5C 219.5,418.833 229.5,418.833 239.5,417.5C 241.173,416.657 242.34,415.324 243,413.5C 243.054,408.321 243.721,403.321 245,398.5C 246.61,403.655 246.943,408.988 246,414.5C 244.878,416.624 243.378,418.457 241.5,420C 229.825,421.975 218.158,421.975 206.5,420C 203.38,417.592 202.047,414.426 202.5,410.5C 204.833,410.5 207.167,410.5 209.5,410.5C 209.333,398.495 209.5,386.495 210,374.5C 219.089,373.35 228.255,373.183 237.5,374C 241.449,377.274 244.616,381.107 247,385.5C 249.276,382.936 251.276,383.27 253,386.5C 253.667,387.167 253.667,387.833 253,388.5C 248.167,393.333 243.333,398.167 238.5,403C 236.285,404.814 233.952,405.314 231.5,404.5C 232.098,403.205 232.598,401.872 233,400.5C 237.214,396.622 241.048,392.455 244.5,388C 244.265,387.127 243.931,386.293 243.5,385.5C 240.914,384.52 238.247,384.187 235.5,384.5 Z"/></g>
<g><path style="opacity:1" fill="#3a82a0" d="M 453.5,415.5 C 457.833,415.5 462.167,415.5 466.5,415.5C 466.5,402.833 466.5,390.167 466.5,377.5C 449.833,377.5 433.167,377.5 416.5,377.5C 416.5,390.5 416.5,403.5 416.5,416.5C 415.811,417.774 414.977,417.774 414,416.5C 413.177,402.592 413.344,388.758 414.5,375C 432.5,374.333 450.5,374.333 468.5,375C 469.656,389.092 469.823,403.258 469,417.5C 463.593,418.473 458.093,418.807 452.5,418.5C 452.263,417.209 452.596,416.209 453.5,415.5 Z"/></g>
<g><path style="opacity:1" fill="#fbf0cd" d="M 212.5,377.5 C 219.982,376.508 227.648,376.175 235.5,376.5C 235.5,379.167 235.5,381.833 235.5,384.5C 234.532,382.393 234.198,380.059 234.5,377.5C 227.167,377.5 219.833,377.5 212.5,377.5 Z"/></g>
<g><path style="opacity:1" fill="#bdd9e2" d="M 453.5,415.5 C 457.298,414.517 461.298,414.183 465.5,414.5C 465.5,402.5 465.5,390.5 465.5,378.5C 449.5,378.5 433.5,378.5 417.5,378.5C 417.829,391.344 417.495,404.011 416.5,416.5C 416.5,403.5 416.5,390.5 416.5,377.5C 433.167,377.5 449.833,377.5 466.5,377.5C 466.5,390.167 466.5,402.833 466.5,415.5C 462.167,415.5 457.833,415.5 453.5,415.5 Z"/></g>
<g><path style="opacity:1" fill="#fcedc4" d="M 237.5,378.5 C 238.962,379.458 240.295,380.624 241.5,382C 238.51,382.847 237.176,381.68 237.5,378.5 Z"/></g>
<g><path style="opacity:1" fill="#f4cb51" d="M 217.5,385.5 C 221.555,385.176 225.555,385.509 229.5,386.5C 229.291,387.086 228.957,387.586 228.5,388C 225.167,388.667 221.833,388.667 218.5,388C 217.748,387.329 217.414,386.496 217.5,385.5 Z"/></g>
<g><path style="opacity:1" fill="#227898" d="M 459.5,385.5 C 461.085,386.002 461.585,387.002 461,388.5C 458.645,390.855 456.312,393.188 454,395.5C 451.46,394.793 450.293,393.127 450.5,390.5C 454.496,391.269 457.496,389.602 459.5,385.5 Z"/></g>
<g><path style="opacity:1" fill="#fcf0cc" d="M 246.5,389.5 C 247.239,389.369 247.906,389.536 248.5,390C 244.5,394 240.5,398 236.5,402C 235.833,402.667 235.167,402.667 234.5,402C 238.704,397.964 242.704,393.798 246.5,389.5 Z"/></g>
<g><path style="opacity:1" fill="#357f9e" d="M 427.5,392.5 C 430.247,392.187 432.914,392.52 435.5,393.5C 435.291,394.086 434.957,394.586 434.5,395C 432.19,395.497 429.857,395.663 427.5,395.5C 427.5,394.5 427.5,393.5 427.5,392.5 Z"/></g>
<g><path style="opacity:1" fill="#3e85a2" d="M 437.5,392.5 C 440.572,392.183 443.572,392.516 446.5,393.5C 445.473,395.024 443.973,395.691 442,395.5C 439.374,395.95 437.874,394.95 437.5,392.5 Z"/></g>
<g><path style="opacity:1" fill="#f4ca4f" d="M 218.5,392.5 C 223.361,392.063 228.028,392.563 232.5,394C 228.017,395.601 223.351,395.934 218.5,395C 217.402,394.23 217.402,393.397 218.5,392.5 Z"/></g>
<g><path style="opacity:1" fill="#1d7797" d="M 438.5,398.5 C 441.397,398.125 444.063,398.625 446.5,400C 444.045,401.54 441.379,401.874 438.5,401C 437.402,400.23 437.402,399.397 438.5,398.5 Z"/></g>
<g><path style="opacity:1" fill="#227999" d="M 448.5,398.5 C 451.167,398.5 453.833,398.5 456.5,398.5C 456.5,399.5 456.5,400.5 456.5,401.5C 454.143,401.663 451.81,401.497 449.5,401C 448.748,400.329 448.414,399.496 448.5,398.5 Z"/></g>
<g><path style="opacity:1" fill="#2e7e9d" d="M 426.5,414.5 C 426.56,415.043 426.893,415.376 427.5,415.5C 428.494,410.544 428.827,405.544 428.5,400.5C 430.223,399.193 432.057,399.193 434,400.5C 434.497,402.81 434.663,405.143 434.5,407.5C 438.441,407.9 442.107,409.067 445.5,411C 447.2,417.724 446.534,424.224 443.5,430.5C 442.276,428.102 442.442,425.769 444,423.5C 444.913,419.638 444.58,415.972 443,412.5C 442.751,413.624 442.251,414.624 441.5,415.5C 440.813,413.726 439.98,412.059 439,410.5C 437.249,415.657 435.915,415.324 435,409.5C 434.51,410.793 434.343,412.127 434.5,413.5C 433.5,413.5 432.5,413.5 431.5,413.5C 431.666,409.486 431.499,405.486 431,401.5C 430.667,406.833 430.333,412.167 430,417.5C 429.311,418.357 428.478,419.023 427.5,419.5C 426.145,417.292 424.478,415.792 422.5,415C 424.291,418.751 426.457,422.251 429,425.5C 429.774,427.403 429.44,429.07 428,430.5C 424.812,425.293 421.978,419.793 419.5,414C 421.917,410.673 424.251,410.839 426.5,414.5 Z"/></g>
<g><path style="opacity:1" fill="#f4cb52" d="M 217.5,400.5 C 220.5,400.5 223.5,400.5 226.5,400.5C 226.5,401.5 226.5,402.5 226.5,403.5C 223.813,403.664 221.146,403.497 218.5,403C 217.748,402.329 217.414,401.496 217.5,400.5 Z"/></g>
<g><path style="opacity:1" fill="#80b5c7" d="M 428.5,400.5 C 428.827,405.544 428.494,410.544 427.5,415.5C 426.893,415.376 426.56,415.043 426.5,414.5C 427.167,409.833 427.833,405.167 428.5,400.5 Z"/></g>
<g><path style="opacity:1" fill="#fefefd" d="M 234.5,417.5 C 226.167,417.5 217.833,417.5 209.5,417.5C 207.616,417.288 206.283,416.288 205.5,414.5C 214.81,413.502 224.143,413.168 233.5,413.5C 233.433,414.959 233.766,416.292 234.5,417.5 Z"/></g>
<g><path style="opacity:1" fill="#f9e5aa" d="M 236.5,415.5 C 237.222,416.551 238.222,417.218 239.5,417.5C 229.5,418.833 219.5,418.833 209.5,417.5C 217.833,417.5 226.167,417.5 234.5,417.5C 235.833,417.5 236.5,416.833 236.5,415.5 Z"/></g>
<g><path style="opacity:1" fill="#fefdf8" d="M 174.5,431.5 C 175.962,432.458 177.295,433.624 178.5,435C 177.62,436.356 177.286,437.856 177.5,439.5C 179.857,439.337 182.19,439.503 184.5,440C 185.517,441.049 185.684,442.216 185,443.5C 182.318,446.35 179.484,449.016 176.5,451.5C 172.588,449.447 172.588,447.28 176.5,445C 175.207,444.51 173.873,444.343 172.5,444.5C 172.657,443.127 172.49,441.793 172,440.5C 169.976,444.119 167.809,444.286 165.5,441C 168.704,437.964 171.704,434.797 174.5,431.5 Z"/></g>
<g><path style="opacity:1" fill="#fefbf1" d="M 272.5,431.5 C 277.833,430.833 280.167,433.167 279.5,438.5C 281.288,438.215 282.955,438.548 284.5,439.5C 284.333,439.833 284.167,440.167 284,440.5C 281.834,442.121 279.334,442.955 276.5,443C 279.118,444.974 278.952,446.807 276,448.5C 272.201,445.703 268.701,442.536 265.5,439C 268.039,436.63 270.372,434.13 272.5,431.5 Z"/></g>
<g><path style="opacity:1" fill="#f3f7f9" d="M 386.5,432.5 C 393.523,431.53 397.19,434.53 397.5,441.5C 396.448,441.649 395.448,441.483 394.5,441C 393.733,438.947 392.4,437.447 390.5,436.5C 387.483,437.38 386.816,439.214 388.5,442C 389.448,442.483 390.448,442.649 391.5,442.5C 391.5,443.833 391.5,445.167 391.5,446.5C 381.659,444.806 379.992,440.14 386.5,432.5 Z"/></g>
<g><path style="opacity:1" fill="#f1f6f8" d="M 485.5,432.5 C 488.436,434.255 491.269,436.255 494,438.5C 495.351,436.981 496.851,435.648 498.5,434.5C 499.5,434.833 500.167,435.5 500.5,436.5C 498.883,439.784 496.55,442.451 493.5,444.5C 490.48,441.645 487.313,438.979 484,436.5C 483.7,434.934 484.2,433.601 485.5,432.5 Z"/></g>
<g><path style="opacity:1" fill="#f5cc56" d="M 273.5,436.5 C 275.97,437.36 276.137,438.694 274,440.5C 272.232,439.318 272.065,437.985 273.5,436.5 Z"/></g>
<g><path style="opacity:1" fill="#f0f6f8" d="M 475.5,441.5 C 483.543,441.04 486.71,444.706 485,452.5C 479.75,458.173 475.084,457.84 471,451.5C 470.333,449.833 470.333,448.167 471,446.5C 472.366,444.638 473.866,442.972 475.5,441.5 Z"/></g>
<g><path style="opacity:1" fill="#f1f6f8" d="M 400.5,443.5 C 408.656,442.821 412.156,446.488 411,454.5C 406.667,459.833 402.333,459.833 398,454.5C 395.584,450.078 396.417,446.411 400.5,443.5 Z"/></g>
<g><path style="opacity:1" fill="#fefbf3" d="M 257.5,444.5 C 264.706,444.202 267.873,447.535 267,454.5C 264.774,458.861 261.274,460.361 256.5,459C 252.876,456.839 251.709,453.672 253,449.5C 254.193,447.503 255.693,445.836 257.5,444.5 Z"/></g>
<g><path style="opacity:1" fill="#207797" d="M 475.5,446.5 C 477.199,446.34 478.866,446.506 480.5,447C 481.951,450.206 480.951,451.873 477.5,452C 475.845,450.556 475.178,448.722 475.5,446.5 Z"/></g>
<g><path style="opacity:1" fill="#fefcf4" d="M 189.5,447.5 C 199.855,447.724 202.522,452.224 197.5,461C 193.612,463.223 190.112,462.723 187,459.5C 184.511,454.757 185.345,450.757 189.5,447.5 Z"/></g>
<g><path style="opacity:1" fill="#197394" d="M 402.5,447.5 C 407.041,447.815 408.041,449.649 405.5,453C 401.537,453.118 400.537,451.284 402.5,447.5 Z"/></g>
<g><path style="opacity:1" fill="#f4cb51" d="M 257.5,449.5 C 262.159,449.015 263.492,450.848 261.5,455C 257.266,455.267 255.933,453.434 257.5,449.5 Z"/></g>
<g><path style="opacity:1" fill="#f0f6f8" d="M 418.5,450.5 C 419.873,450.343 421.207,450.51 422.5,451C 423.794,453.087 424.961,455.254 426,457.5C 426.348,453.339 428.348,452.005 432,453.5C 431.304,457.785 430.471,462.119 429.5,466.5C 427.833,466.5 426.167,466.5 424.5,466.5C 424.327,463.821 423.327,461.487 421.5,459.5C 421.295,463.375 419.295,465.041 415.5,464.5C 416.503,459.805 417.503,455.138 418.5,450.5 Z"/></g>
<g><path style="opacity:1" fill="#f7fafb" d="M 458.5,450.5 C 464.947,449.441 467.28,451.941 465.5,458C 466.101,459.605 467.101,460.938 468.5,462C 467.128,462.402 465.795,462.902 464.5,463.5C 463.167,462.5 461.833,461.5 460.5,460.5C 459.269,461.651 459.269,462.817 460.5,464C 459.407,465.365 458.074,465.699 456.5,465C 454.665,460.996 453.332,456.83 452.5,452.5C 454.786,452.405 456.786,451.738 458.5,450.5 Z"/></g>
<g><path style="opacity:1" fill="#fefbf4" d="M 243.5,450.5 C 246.5,450.167 247.833,451.5 247.5,454.5C 245.654,454.222 244.32,454.889 243.5,456.5C 246.406,460.369 246.073,463.703 242.5,466.5C 241.093,463.279 240.093,459.945 239.5,456.5C 238.07,456.421 236.736,456.754 235.5,457.5C 234.167,456.167 234.167,454.833 235.5,453.5C 238.462,452.991 241.129,451.991 243.5,450.5 Z"/></g>
<g><path style="opacity:1" fill="#f4cc54" d="M 191.5,451.5 C 195.225,451.537 196.558,453.204 195.5,456.5C 193.955,457.452 192.288,457.785 190.5,457.5C 190.325,455.379 190.659,453.379 191.5,451.5 Z"/></g>
<g><path style="opacity:1" fill="#fefcf7" d="M 206.5,453.5 C 208.288,453.215 209.955,453.548 211.5,454.5C 214.298,462.053 215.631,462.053 215.5,454.5C 217.167,454.5 218.833,454.5 220.5,454.5C 219.617,459.132 218.95,463.798 218.5,468.5C 217.127,468.657 215.793,468.49 214.5,468C 212.877,465.92 211.377,463.754 210,461.5C 209.505,463.473 209.338,465.473 209.5,467.5C 207.052,467.99 205.385,467.157 204.5,465C 205.438,461.208 206.104,457.375 206.5,453.5 Z"/></g>
<g><path style="opacity:1" fill="#6fabbf" d="M 436.5,454.5 C 440.634,453.515 444.968,453.182 449.5,453.5C 449.5,455.167 449.5,456.833 449.5,458.5C 448.167,458.5 446.833,458.5 445.5,458.5C 446.209,457.596 447.209,457.263 448.5,457.5C 448.5,456.5 448.5,455.5 448.5,454.5C 444.5,454.5 440.5,454.5 436.5,454.5 Z"/></g>
<g><path style="opacity:1" fill="#fefbf1" d="M 225.5,454.5 C 227.167,454.5 228.833,454.5 230.5,454.5C 230.5,459.167 230.5,463.833 230.5,468.5C 229.167,468.5 227.833,468.5 226.5,468.5C 225.771,463.87 225.437,459.203 225.5,454.5 Z"/></g>
<g><path style="opacity:1" fill="#f1f6f8" d="M 436.5,454.5 C 440.5,454.5 444.5,454.5 448.5,454.5C 448.5,455.5 448.5,456.5 448.5,457.5C 447.209,457.263 446.209,457.596 445.5,458.5C 445.5,461.833 445.5,465.167 445.5,468.5C 443.833,468.5 442.167,468.5 440.5,468.5C 440.5,465.167 440.5,461.833 440.5,458.5C 439.167,458.5 437.833,458.5 436.5,458.5C 436.5,457.167 436.5,455.833 436.5,454.5 Z"/></g>
<g><path style="opacity:1" fill="#2f7e9d" d="M 457.5,454.5 C 458.978,454.238 460.311,454.571 461.5,455.5C 459.537,458.194 458.203,457.861 457.5,454.5 Z"/></g>
</svg>
