<svg width="1040" height="720" xmlns="http://www.w3.org/2000/svg" xmlns:xlink="http://www.w3.org/1999/xlink" overflow="hidden"><defs><clipPath id="clip0"><rect x="0" y="0" width="1040" height="720"/></clipPath><clipPath id="clip1"><rect x="52" y="-661" width="325" height="2263"/></clipPath><clipPath id="clip2"><rect x="474" y="-738" width="372" height="2443"/></clipPath><clipPath id="clip3"><rect x="877" y="38" width="159" height="860"/></clipPath></defs><g clip-path="url(#clip0)"><rect x="0" y="0" width="1040" height="720" fill="#FFFFFF"/><path d="M29.5001 131.5 1010.5 132.5" stroke="#C00000" stroke-width="1.33333" stroke-linejoin="round" stroke-miterlimit="10" fill="none" fill-rule="evenodd"/><text fill="#777777" font-family="Arial Narrow,Arial Narrow_MSFontService,sans-serif" font-weight="400" font-stretch="condensed" font-size="11" transform="translate(930.133 709)">PM.030 / SEITE<tspan fill="#006698" font-family="Arial,Arial_MSFontService,sans-serif" font-stretch="normal" font-size="11" x="66" y="0">-</tspan><tspan fill="#006698" font-family="Arial,Arial_MSFontService,sans-serif" font-stretch="normal" font-size="11" x="72.5" y="0">2</tspan><tspan fill="#006698" font-family="Arial,Arial_MSFontService,sans-serif" font-stretch="normal" font-size="11" x="81.5" y="0">-</tspan></text><path d="M29.5001 694.5 1010.5 694.5" stroke="#C00000" stroke-width="1.33333" stroke-linejoin="round" stroke-miterlimit="10" fill="none" fill-rule="evenodd"/><text fill="#000066" font-family="Arial,Arial_MSFontService,sans-serif" font-weight="700" font-size="11" transform="translate(32 707)">© <tspan fill="#006698" font-family="Arial Black,Arial Black_MSFontService,sans-serif" font-weight="900" font-size="11" x="10.8333" y="0">platinus</tspan><tspan fill="#777777" font-family="Arial Narrow,Arial Narrow_MSFontService,sans-serif" font-weight="400" font-stretch="condensed" font-size="11" x="60.6667" y="0">CONSULTING </tspan><tspan fill="#777777" font-weight="400" font-size="11" x="120.667" y="0">/ </tspan><tspan fill="#777777" font-weight="400" font-size="11" x="126.667" y="0">Projektmanagement Training </tspan><tspan fill="#777777" font-weight="400" font-size="11" x="267.333" y="0">/  PM</tspan><tspan fill="#777777" font-weight="400" font-size="11" x="292.333" y="0">-</tspan><tspan fill="#777777" font-weight="400" font-size="11" x="295.833" y="0">Framework  / 2021</tspan></text><rect x="113" y="36" width="825" height="74" fill="#FFFFFF"/><text fill="#333333" font-family="Arial,Arial_MSFontService,sans-serif" font-weight="700" font-size="27" transform="translate(235.133 67)">Project<tspan font-size="27" x="90.3333" y="0">-</tspan><tspan font-size="27" x="99.1667" y="0">Governance schafft einen Rahmen für </tspan><tspan font-size="27" x="-72.42" y="32">die Zieldefinition und zur Beurteilung des Projekterfolges</tspan></text><rect x="299" y="161" width="175" height="49" fill="#D9D9D9"/><text fill="#6D6D6D" font-family="Arial,Arial_MSFontService,sans-serif" font-weight="700" font-size="19" transform="translate(328.584 181)">PM-<tspan font-size="19" x="34.1667" y="0">Ziele und </tspan><tspan font-size="19" x="-11.4134" y="23">PM</tspan>-<tspan font-size="19" x="22.7533" y="23">Kennzahlen</tspan></text><rect x="161" y="249" width="138" height="49" fill="#D9D9D9"/><text fill="#C00000" font-family="Arial,Arial_MSFontService,sans-serif" font-weight="700" font-size="19" transform="translate(178.743 281)">Formalziele</text><rect x="474" y="249" width="137" height="49" fill="#D9D9D9"/><text fill="#C00000" font-family="Arial,Arial_MSFontService,sans-serif" font-weight="700" font-size="19" transform="translate(500.431 281)">Sachziele<tspan fill="#000000" font-weight="400" font-size="16" x="-438.161" y="44">Formalziele haben </tspan><tspan fill="#000000" font-size="16" x="-302.661" y="44">finanzwirtschaftliche </tspan><tspan fill="#000000" font-size="16" x="-438.161" y="63">Größen zum Inhalt</tspan><tspan fill="#000000" font-weight="400" font-size="16" x="-292.827" y="63">und orientieren sich </tspan><tspan fill="#000000" font-weight="400" font-size="16" x="-438.161" y="82">am ökonomischen Prinzip. </tspan><tspan fill="#000000" font-weight="400" font-size="16" x="-438.161" y="117">Typische Ziel und Kennzahlen sind:</tspan><tspan fill="#000000" font-size="16" x="-438.161" y="152">1.</tspan><tspan fill="#000000" font-size="16" x="-417.627" y="152">Ziele hinsichtlich </tspan><tspan font-size="16" x="-282.961" y="152">Projektnutzwerte</tspan></text><g clip-path="url(#clip1)"><text font-family="Arial,Arial_MSFontService,sans-serif" font-weight="400" font-size="16" transform="translate(350.804 433)">in </text></g><text font-family="Arial,Arial_MSFontService,sans-serif" font-weight="400" font-size="16" transform="translate(82.8037 453)">Bezug auf strategischen Beitrag.<tspan fill="#7F7F7F" font-size="16" x="0" y="19">(PM</tspan><tspan fill="#7F7F7F" font-size="16" x="29.3333" y="19">-</tspan><tspan fill="#7F7F7F" font-size="16" x="34.6667" y="19">Methode = Nutzwertanalyse) </tspan><tspan font-weight="700" font-size="16" x="-20.5333" y="54">2.</tspan><tspan font-weight="700" font-size="16" x="0" y="54">Ziele hinsichtlich </tspan><tspan fill="#C00000" font-weight="700" font-size="16" x="134.667" y="54">Projektnutzen</tspan><tspan font-size="16" x="245" y="54">in </tspan><tspan font-size="16" x="0" y="73">Bezug auf Kapitalwert. </tspan><tspan fill="#7F7F7F" font-size="13" x="0" y="90">(PM</tspan><tspan fill="#7F7F7F" font-size="13" x="24.5" y="90">-</tspan><tspan fill="#7F7F7F" font-size="13" x="29" y="90">Methode = Investitionsrechnung)</tspan><tspan font-weight="700" font-size="16" x="-20.5333" y="124">3.</tspan><tspan font-weight="700" font-size="16" x="0" y="124">Ziele hinsichtlich </tspan><tspan fill="#C00000" font-weight="700" font-size="16" x="134.667" y="124">Akzeptanz</tspan><tspan font-size="16" x="218.167" y="124">bei den </tspan><tspan font-size="16" x="0" y="144">Projektstakeholdern. </tspan><tspan fill="#7F7F7F" font-size="13" x="0" y="160">(PM</tspan><tspan fill="#7F7F7F" font-size="13" x="24.5" y="160">-</tspan><tspan fill="#7F7F7F" font-size="13" x="29" y="160">Methode = Projektkunden</tspan><tspan fill="#7F7F7F" font-size="13" x="180.333" y="160">-</tspan><tspan fill="#7F7F7F" font-size="13" x="0" y="176">zufriedenheitumfrage</tspan><tspan fill="#7F7F7F" font-size="13" x="124.5" y="176">)</tspan></text><path d="M0-0.999947 20.9323-0.999947 20.9323 156.427 19.9324 155.427 33.1979 155.427 33.1979 157.427 18.9324 157.427 18.9324 0 19.9324 0.999947 0 0.999947ZM31.8646 152.427 39.8646 156.427 31.8646 160.427Z" fill="#BFBFBF" transform="matrix(6.69043e-06 1 1 -6.69043e-06 386.42 209.611)"/><path d="M387.42 209.61 387.42 230.543 229.993 230.544 230.993 229.544 230.993 242.809 228.993 242.809 228.993 228.544 386.42 228.543 385.42 229.543 385.42 209.61ZM233.993 241.476 229.993 249.476 225.993 241.476Z" fill="#BFBFBF"/><text font-family="Arial,Arial_MSFontService,sans-serif" font-weight="400" font-size="16" transform="translate(483.937 325)">Sachziele leiten sich von den Formalzielen ab <tspan font-size="16" x="0" y="19">und beziehen sich auf das konkrete Handeln.</tspan><tspan font-size="16" x="0" y="76">Typische Ziel und Kennzahlen sind:</tspan><tspan font-weight="700" font-size="16" x="0" y="112">1.</tspan><tspan font-weight="700" font-size="16" x="20.5333" y="112">Ziele hinsichtlich </tspan><tspan fill="#C00000" font-weight="700" font-size="16" x="155.2" y="112">Leistungsumfang</tspan><tspan font-weight="700" font-size="16" x="293.2" y="112">(</tspan><tspan font-style="italic" font-weight="700" font-size="16" x="298.533" y="112">scope</tspan></text><g clip-path="url(#clip2)"><text font-family="Arial,Arial_MSFontService,sans-serif" font-weight="700" font-size="16" transform="translate(828.637 437)">) </text></g><text font-family="Arial,Arial_MSFontService,sans-serif" font-weight="700" font-size="16" transform="translate(504.47 456)">und Qualitätsausprägungen (<tspan font-style="italic" font-size="16" x="222.667" y="0">quality</tspan><tspan font-size="16" x="274.333" y="0">)</tspan><tspan fill="#7F7F7F" font-weight="400" font-size="13" x="0" y="16">(PM</tspan><tspan fill="#7F7F7F" font-weight="400" font-size="13" x="24.5" y="16">-</tspan><tspan fill="#7F7F7F" font-weight="400" font-size="13" x="29" y="16">Methode = </tspan><tspan fill="#7F7F7F" font-weight="400" font-size="13" x="95.6667" y="16">Scope</tspan><tspan fill="#7F7F7F" font-weight="400" font-size="13" x="133.167" y="16">-</tspan><tspan fill="#7F7F7F" font-weight="400" font-size="13" x="137.667" y="16">Statement, PEP, PQP)</tspan><tspan font-size="16" x="-20.5333" y="54">2.</tspan><tspan font-size="16" x="0" y="54">Ziele hinsichtlich </tspan><tspan fill="#C00000" font-size="16" x="134.667" y="54">Terminen </tspan>(<tspan font-style="italic" font-size="16" x="216.5" y="54">schedule</tspan><tspan font-size="16" x="285.833" y="54">)</tspan><tspan fill="#7F7F7F" font-weight="400" font-size="13" x="0" y="71">(</tspan><tspan fill="#7F7F7F" font-weight="400" font-size="13" x="4.5" y="71">PM</tspan><tspan fill="#7F7F7F" font-weight="400" font-size="13" x="24.5" y="71">-</tspan><tspan fill="#7F7F7F" font-weight="400" font-size="13" x="29" y="71">Methode = PTP, Meilensteinplan, Projektlaufzeit, </tspan><tspan fill="#7F7F7F" font-weight="400" font-size="13" x="0" y="87">Projektdauer)</tspan><tspan font-size="16" x="-20.5333" y="125">3.</tspan><tspan font-size="16" x="0" y="125">Ziele hinsichtlich Kosten und </tspan><tspan fill="#C00000" font-size="16" x="227.333" y="125">Aufwände</tspan><tspan fill="#7F7F7F" font-weight="400" font-size="13" x="0" y="141">(PM</tspan><tspan fill="#7F7F7F" font-weight="400" font-size="13" x="24.5" y="141">-</tspan><tspan fill="#7F7F7F" font-weight="400" font-size="13" x="29" y="141">Methode =  PKP, PRP, Projektbudget)</tspan><tspan font-size="16" x="-20.5333" y="179">4.</tspan><tspan font-size="16" x="0" y="179">Rahmenvorgaben hinsichtlich </tspan><tspan font-size="16" x="0" y="198">Einschränkungen</tspan></text><path d="M299.5 273.833 303.5 273.833 303.5 275.167 299.5 275.167ZM304.833 273.833 308.833 273.833 308.833 275.167 304.833 275.167ZM310.166 273.833 314.166 273.833 314.166 275.167 310.166 275.167ZM315.499 273.833 319.498 273.833 319.498 275.167 315.499 275.167ZM320.832 273.833 324.831 273.833 324.831 275.167 320.832 275.167ZM326.165 273.833 330.164 273.833 330.164 275.167 326.165 275.167ZM331.498 273.833 335.497 273.833 335.497 275.167 331.498 275.167ZM336.83 273.833 340.83 273.833 340.83 275.167 336.83 275.167ZM342.163 273.833 346.163 273.833 346.163 275.167 342.163 275.167ZM347.496 273.833 351.496 273.833 351.496 275.167 347.496 275.167ZM352.829 273.833 356.829 273.833 356.829 275.167 352.829 275.167ZM358.162 273.833 362.162 273.833 362.162 275.167 358.162 275.167ZM363.495 273.833 367.495 273.833 367.495 275.167 363.495 275.167ZM368.828 273.833 372.828 273.833 372.828 275.167 368.828 275.167ZM374.161 273.833 378.161 273.833 378.161 275.167 374.161 275.167ZM379.494 273.833 383.493 273.833 383.493 275.167 379.494 275.167ZM384.827 273.833 388.826 273.833 388.826 275.167 384.827 275.167ZM390.16 273.833 394.159 273.833 394.159 275.167 390.16 275.167ZM395.492 273.833 399.492 273.833 399.492 275.167 395.492 275.167ZM400.825 273.833 404.825 273.833 404.825 275.167 400.825 275.167ZM406.158 273.833 410.158 273.834 410.158 275.167 406.158 275.167ZM411.491 273.834 415.491 273.834 415.491 275.167 411.491 275.167ZM416.824 273.834 420.824 273.834 420.824 275.167 416.824 275.167ZM422.157 273.834 426.157 273.834 426.157 275.167 422.157 275.167ZM427.49 273.834 431.49 273.834 431.49 275.167 427.49 275.167ZM432.823 273.834 436.823 273.834 436.823 275.167 432.823 275.167ZM438.156 273.834 442.155 273.834 442.155 275.167 438.156 275.167ZM443.489 273.834 447.488 273.834 447.488 275.167 443.489 275.167ZM448.822 273.834 452.821 273.834 452.821 275.167 448.822 275.167ZM454.155 273.834 458.154 273.834 458.154 275.167 454.155 275.167ZM459.487 273.834 463.487 273.834 463.487 275.167 459.487 275.167ZM464.82 273.834 468.667 273.834 468.667 275.167 464.82 275.167ZM467.333 270.5 475.333 274.5 467.333 278.5Z" fill="#BDBDBD"/><text font-family="Arial,Arial_MSFontService,sans-serif" font-weight="400" font-size="11" transform="translate(943.937 143)">Konzeptionell</text><path d="M943.937 143.849 959.937 143.849 975.937 143.849 991.937 143.849 1007.94 143.849 1007.94 144.849 991.937 144.849 975.937 144.849 959.937 144.849 943.937 144.849Z" fill-rule="evenodd"/><path d="M850.5 394.14 850.5 394.14 850.5 339.5 873.5 452.5 850.5 565.5 850.5 510.86 850.5 510.86Z" stroke="#C00000" stroke-miterlimit="8" fill="#C00000" fill-rule="evenodd"/><text font-family="Arial,Arial_MSFontService,sans-serif" font-weight="400" font-size="13" transform="translate(887.271 420)">SMARTe<tspan font-size="13" x="0" y="15">Zielspezifikation in der </tspan></text><g clip-path="url(#clip3)"><text font-family="Arial,Arial_MSFontService,sans-serif" font-weight="400" font-size="13" transform="translate(887.271 450)">Projektdefinitionsphase </text></g><text font-family="Arial,Arial_MSFontService,sans-serif" font-weight="400" font-size="13" transform="translate(887.271 466)">bildet die Grundlage <tspan font-size="13" x="0" y="15">für die spätere Projekt</tspan><tspan font-size="13" x="130.427" y="15">-</tspan><tspan font-size="13" x="0" y="30">Erfolgsmessung!</tspan></text></g></svg>