<svg width="1040" height="720" xmlns="http://www.w3.org/2000/svg" xmlns:xlink="http://www.w3.org/1999/xlink" overflow="hidden"><defs><clipPath id="clip0"><rect x="0" y="0" width="1040" height="720"/></clipPath></defs><g clip-path="url(#clip0)"><rect x="0" y="0" width="1040" height="720" fill="#FFFFFF"/><path d="M29.5001 131.5 1010.5 132.5" stroke="#C00000" stroke-width="1.33333" stroke-linejoin="round" stroke-miterlimit="10" fill="none" fill-rule="evenodd"/><text fill="#777777" font-family="Arial Narrow,Arial Narrow_MSFontService,sans-serif" font-weight="400" font-stretch="condensed" font-size="11" transform="translate(924.133 709)">PM.030 / SEITE<tspan fill="#006698" font-family="Arial,Arial_MSFontService,sans-serif" font-stretch="normal" font-size="11" x="66" y="0">-</tspan><tspan fill="#006698" font-family="Arial,Arial_MSFontService,sans-serif" font-stretch="normal" font-size="11" x="72.5" y="0">39</tspan><tspan fill="#006698" font-family="Arial,Arial_MSFontService,sans-serif" font-stretch="normal" font-size="11" x="87.5" y="0">-</tspan></text><path d="M29.5001 694.5 1010.5 694.5" stroke="#C00000" stroke-width="1.33333" stroke-linejoin="round" stroke-miterlimit="10" fill="none" fill-rule="evenodd"/><text fill="#000066" font-family="Arial,Arial_MSFontService,sans-serif" font-weight="700" font-size="11" transform="translate(32 707)">© <tspan fill="#006698" font-family="Arial Black,Arial Black_MSFontService,sans-serif" font-weight="900" font-size="11" x="10.8333" y="0">platinus</tspan><tspan fill="#777777" font-family="Arial Narrow,Arial Narrow_MSFontService,sans-serif" font-weight="400" font-stretch="condensed" font-size="11" x="60.6667" y="0">CONSULTING </tspan><tspan fill="#777777" font-weight="400" font-size="11" x="120.667" y="0">/ </tspan><tspan fill="#777777" font-weight="400" font-size="11" x="126.667" y="0">Projektmanagement Training </tspan><tspan fill="#777777" font-weight="400" font-size="11" x="267.333" y="0">/  PM</tspan><tspan fill="#777777" font-weight="400" font-size="11" x="292.333" y="0">-</tspan><tspan fill="#777777" font-weight="400" font-size="11" x="295.833" y="0">Framework  / 2021</tspan><tspan fill="#000000" font-size="27" x="185.433" y="-639">Die Grundlage zur Erfüllung der Projektleistung </tspan><tspan fill="#000000" font-size="27" x="241.6" y="-610">erfolgt über eine transparente Planung</tspan><tspan fill="#C00000" font-size="24" x="-0.666666" y="-547">Planarten (2)</tspan></text><path d="M28.6667 182.5 510 182.5 510 215.833 28.6667 215.833Z" fill="#EAEAEA" fill-rule="evenodd"/><path d="M510 182.5 681.333 182.5 681.333 215.833 510 215.833Z" fill="#EAEAEA" fill-rule="evenodd"/><path d="M681.333 182.5 1007.67 182.5 1007.67 215.833 681.333 215.833Z" fill="#EAEAEA" fill-rule="evenodd"/><path d="M510 181 510 621.267" stroke="#000000" stroke-width="1.33333" stroke-linejoin="round" stroke-miterlimit="10" fill="none" fill-rule="evenodd"/><path d="M681.333 181 681.333 621.267" stroke="#000000" stroke-width="1.33333" stroke-linejoin="round" stroke-miterlimit="10" fill="none" fill-rule="evenodd"/><path d="M27.1667 215.833 1009.17 215.833" stroke="#000000" stroke-width="1.33333" stroke-linejoin="round" stroke-miterlimit="10" fill="none" fill-rule="evenodd"/><path d="M27.1667 315.033 1009.17 315.033" stroke="#000000" stroke-width="1.33333" stroke-linejoin="round" stroke-miterlimit="10" fill="none" fill-rule="evenodd"/><path d="M27.1667 403.033 1009.17 403.033" stroke="#000000" stroke-width="1.33333" stroke-linejoin="round" stroke-miterlimit="10" fill="none" fill-rule="evenodd"/><path d="M27.1667 484.7 1009.17 484.7" stroke="#000000" stroke-width="1.33333" stroke-linejoin="round" stroke-miterlimit="10" fill="none" fill-rule="evenodd"/><path d="M27.1667 566.2 1009.17 566.2" stroke="#000000" stroke-width="1.33333" stroke-linejoin="round" stroke-miterlimit="10" fill="none" fill-rule="evenodd"/><path d="M28.6667 181 28.6667 621.267" stroke="#000000" stroke-width="3" stroke-linejoin="round" stroke-miterlimit="10" fill="none" fill-rule="evenodd"/><path d="M1007.67 181 1007.67 621.267" stroke="#000000" stroke-width="3" stroke-linejoin="round" stroke-miterlimit="10" fill="none" fill-rule="evenodd"/><path d="M27.1667 182.5 1009.17 182.5" stroke="#000000" stroke-width="3" stroke-linejoin="round" stroke-miterlimit="10" fill="none" fill-rule="evenodd"/><path d="M27.1667 620.6 1009.17 620.6" stroke="#000000" stroke-width="1.33333" stroke-linejoin="round" stroke-miterlimit="10" fill="none" fill-rule="evenodd"/><text font-family="Arial Black,Arial Black_MSFontService,sans-serif" font-weight="900" font-size="16" transform="translate(38.2667 202)">Geschäftsfrage<tspan font-size="16" x="481.333" y="0">Plankürzel </tspan><tspan font-size="16" x="652.667" y="0">Planarten </tspan><tspan font-size="16" x="743.3" y="0">-</tspan><tspan font-size="16" x="753.967" y="0">Bezeichnungen</tspan><tspan font-family="Arial,Arial_MSFontService,sans-serif" font-weight="700" font-size="19" x="0" y="37">Wie sieht die </tspan><tspan font-family="Arial,Arial_MSFontService,sans-serif" font-weight="700" font-size="19" x="118.667" y="37">Führungs</tspan><tspan font-family="Arial,Arial_MSFontService,sans-serif" font-weight="700" font-size="19" x="204.333" y="37">-</tspan><tspan font-family="Arial,Arial_MSFontService,sans-serif" font-weight="700" font-size="19" x="215.667" y="37">und </tspan><tspan font-family="Arial,Arial_MSFontService,sans-serif" font-weight="700" font-size="19" x="254.833" y="37">Reportingstruktur</tspan><tspan font-family="Arial,Arial_MSFontService,sans-serif" font-weight="700" font-size="19" x="418.167" y="37">aus?</tspan></text><path d="M157.267 239.633 255.267 239.633 353.267 239.633 451.267 239.633 451.267 241.633 353.267 241.633 255.267 241.633 157.267 241.633Z" fill-rule="evenodd"/><text font-family="Arial,Arial_MSFontService,sans-serif" font-weight="700" font-size="19" transform="translate(38.2667 273)">Wer ist für was verantwortlich? Wer führt was aus?<tspan font-size="21" x="481.333" y="-31">POP</tspan><tspan font-weight="400" font-size="16" x="652.667" y="-36">•</tspan><tspan font-weight="400" font-size="16" x="662.333" y="-36">Projektorganisationsplan</tspan></text><path d="M700.933 237.633 758.933 237.633 816.933 237.633 874.933 237.633 874.933 238.633 816.933 238.633 758.933 238.633 700.933 238.633Z" fill-rule="evenodd"/><text font-family="Arial,Arial_MSFontService,sans-serif" font-weight="400" font-size="16" transform="translate(690.933 258)">•<tspan font-size="16" x="9.66663" y="0">Projektorganigramm</tspan><tspan font-size="16" x="0" y="21">•</tspan><tspan font-size="16" x="9.66663" y="21">Rollenschreibungen</tspan><tspan font-size="16" x="0" y="42">•</tspan><tspan font-size="16" x="9.66663" y="42">Funktionsmatrix</tspan><tspan font-weight="700" font-size="19" x="-652.667" y="80">Wie sieht die </tspan><tspan font-weight="700" font-size="19" x="-534" y="80">Kommunikation</tspan><tspan font-weight="700" font-size="19" x="-388.167" y="80">aus?</tspan></text><path d="M157.267 338.833 227.267 338.833 297.267 338.833 297.267 340.833 227.267 340.833 157.267 340.833Z" fill-rule="evenodd"/><text font-family="Arial,Arial_MSFontService,sans-serif" font-weight="700" font-size="19" transform="translate(38.2667 372)">Wer bekommt wann in welcher Form welche <tspan font-size="19" x="0" y="22">Informationen und warum?</tspan><tspan font-size="21" x="481.333" y="-31">PCP</tspan><tspan font-weight="400" font-size="16" x="652.667" y="-36">•</tspan><tspan font-weight="400" font-size="16" x="662.333" y="-36">Projektkommunikationsplan</tspan><tspan font-weight="400" font-size="16" x="652.667" y="-15">•</tspan><tspan font-weight="400" font-size="16" x="662.333" y="-15">Kommunikationsmatrix</tspan><tspan font-size="19" x="0" y="54">Welche </tspan><tspan font-size="19" x="69.9933" y="54">Risiken</tspan><tspan font-size="19" x="141.327" y="54">gibt es?</tspan></text><path d="M108.267 426.833 174.267 426.833 174.267 428.833 108.267 428.833Z" fill-rule="evenodd"/><text font-family="Arial,Arial_MSFontService,sans-serif" font-weight="700" font-size="21" transform="translate(519.6 429)">PRA<tspan font-weight="400" font-size="16" x="171.333" y="-5">•</tspan><tspan font-weight="400" font-size="16" x="181" y="-5">Projektrisikoanalyse</tspan><tspan font-weight="400" font-size="16" x="171.333" y="16">•</tspan><tspan font-weight="400" font-size="16" x="181" y="16">Risikomatrix</tspan><tspan font-size="19" x="-481.333" y="79">Wie erfolgt die </tspan><tspan font-size="19" x="-348.167" y="79">Finanzierung</tspan><tspan font-size="19" x="-232.5" y="79">?</tspan></text><path d="M171.267 508.5 229.267 508.5 287.267 508.5 287.267 510.5 229.267 510.5 171.267 510.5Z" fill-rule="evenodd"/><text font-family="Arial,Arial_MSFontService,sans-serif" font-weight="700" font-size="21" transform="translate(519.6 511)">PFP<tspan font-weight="400" font-size="16" x="171.333" y="-5">•</tspan><tspan font-weight="400" font-size="16" x="181" y="-5">Projektfinanzierungsplan</tspan><tspan font-weight="400" font-size="16" x="171.333" y="16">•</tspan><tspan font-weight="400" font-size="16" x="181" y="16">Projekt</tspan><tspan font-weight="400" font-size="16" x="230.667" y="16">-</tspan><tspan font-weight="400" font-size="16" x="236" y="16">Cash</tspan><tspan font-weight="400" font-size="16" x="273.167" y="16">-</tspan><tspan font-weight="400" font-size="16" x="278.5" y="16">Flow</tspan><tspan font-weight="400" font-size="16" x="312.167" y="16">-</tspan><tspan font-weight="400" font-size="16" x="317.5" y="16">Plan</tspan><tspan font-size="19" x="-481.333" y="78">Welche Qualitätsanforderungen werden (an die </tspan><tspan font-size="19" x="-481.333" y="101">Ergebnisse, Ablauf) gestellt? </tspan><tspan font-size="21" x="0" y="81">PQP</tspan><tspan font-weight="400" font-size="16" x="171.333" y="76">•</tspan><tspan font-weight="400" font-size="16" x="181" y="76">Projektqualitätsplan</tspan><tspan font-weight="400" font-size="16" x="171.333" y="97">•</tspan><tspan font-weight="400" font-size="16" x="181" y="97">Testplan</tspan></text><rect x="579.5" y="235.5" width="28" height="16" stroke="#000000" stroke-width="0.166719" stroke-miterlimit="8" fill="#DDDDDD"/><text font-family="Arial,Arial_MSFontService,sans-serif" font-weight="400" font-size="4" transform="translate(581.532 243)">Unternehmens<tspan font-size="4" x="25.8333" y="0">-</tspan><tspan font-size="4" x="6.58185" y="4">leitung</tspan></text><rect x="635.5" y="284.5" width="28" height="16" stroke="#000000" stroke-width="0.166719" stroke-miterlimit="8" fill="#DDDDDD"/><rect x="600.5" y="284.5" width="29" height="16" stroke="#000000" stroke-width="0.166719" stroke-miterlimit="8" fill="#DDDDDD"/><text font-family="Arial,Arial_MSFontService,sans-serif" font-weight="400" font-size="4" transform="translate(608.02 294)">Designer</text><rect x="563.5" y="284.5" width="29" height="16" stroke="#000000" stroke-width="0.166719" stroke-miterlimit="8" fill="#DDDDDD"/><text font-family="Arial,Arial_MSFontService,sans-serif" font-weight="400" font-size="4" transform="translate(566.282 294)">Implementierer</text><rect x="527.5" y="284.5" width="29" height="16" stroke="#000000" stroke-width="0.166719" stroke-miterlimit="8" fill="#DDDDDD"/><text font-family="Arial,Arial_MSFontService,sans-serif" font-weight="400" font-size="4" transform="translate(534.175 294)">Consulter</text><rect x="553.5" y="255.5" width="29" height="16" stroke="#000000" stroke-width="0.166719" stroke-miterlimit="8" fill="#DDDDDD"/><text font-family="Arial,Arial_MSFontService,sans-serif" font-weight="400" font-size="4" transform="translate(561.466 261)">Projekt<tspan font-size="4" x="12.3333" y="0">-</tspan><tspan font-size="4" x="-2.72913" y="4">koordinator</tspan><tspan font-size="4" x="4.81592" y="7">A</tspan></text><path d="M593.5 251.5 593.5 263.5 582.5 263.5" stroke="#000000" stroke-width="0.166719" stroke-linejoin="round" stroke-miterlimit="10" fill="none" fill-rule="evenodd"/><rect x="541.5" y="280.5" width="36" height="4" stroke="#000000" stroke-width="0.166719" stroke-miterlimit="8" fill="none"/><rect x="577.5" y="280.5" width="38" height="4" stroke="#000000" stroke-width="0.166719" stroke-miterlimit="8" fill="none"/><rect x="615.5" y="280.5" width="34" height="4" stroke="#000000" stroke-width="0.166719" stroke-miterlimit="8" fill="none"/><path d="M593.5 263.5 594.5 280.5" stroke="#000000" stroke-width="0.166719" stroke-linejoin="round" stroke-miterlimit="10" fill="none" fill-rule="evenodd"/><path d="M649.5 280.5 659.5 281.5" stroke="#000000" stroke-width="0.166719" stroke-linejoin="round" stroke-miterlimit="10" fill="none" fill-rule="evenodd"/><path d="M659 277C660 277.562 661 277.938 661 278.5 661 279.062 659 279.25 659 280 659 280.75 660.75 282.438 661 283" fill="#DDDDDD" fill-rule="evenodd"/><path d="M659.5 277.5C660.5 278.063 661.5 278.438 661.5 279 661.5 279.563 659.5 279.75 659.5 280.5 659.5 281.25 661.25 282.938 661.5 283.5" stroke="#000000" stroke-width="0.166719" stroke-linejoin="round" stroke-miterlimit="10" fill="none" fill-rule="evenodd"/><path d="M593.5 263.5 603.5 264.5" stroke="#000000" stroke-width="0.166719" stroke-linejoin="round" stroke-miterlimit="10" fill="none" fill-rule="evenodd"/><path d="M603 260C603.5 260.469 604 260.781 604 261.25 604 261.719 603 261.875 603 262.5 603 263.125 603.875 264.531 604 265" fill="#DDDDDD" fill-rule="evenodd"/><path d="M603.5 260.5C604 260.969 604.5 261.281 604.5 261.75 604.5 262.219 603.5 262.375 603.5 263 603.5 263.625 604.375 265.031 604.5 265.5" stroke="#000000" stroke-width="0.166719" stroke-linejoin="round" stroke-miterlimit="10" fill="none" fill-rule="evenodd"/></g></svg>