<svg width="1040" height="720" xmlns="http://www.w3.org/2000/svg" xmlns:xlink="http://www.w3.org/1999/xlink" overflow="hidden"><defs><clipPath id="clip0"><rect x="0" y="0" width="1040" height="720"/></clipPath></defs><g clip-path="url(#clip0)"><rect x="0" y="0" width="1040" height="720" fill="#FFFFFF"/><path d="M29.5001 131.5 1010.5 132.5" stroke="#C00000" stroke-width="1.33333" stroke-linejoin="round" stroke-miterlimit="10" fill="none" fill-rule="evenodd"/><text fill="#777777" font-family="Arial Narrow,Arial Narrow_MSFontService,sans-serif" font-weight="400" font-stretch="condensed" font-size="11" transform="translate(924.133 709)">PM.030 / SEITE<tspan fill="#006698" font-family="Arial,Arial_MSFontService,sans-serif" font-stretch="normal" font-size="11" x="66" y="0">-</tspan><tspan fill="#006698" font-family="Arial,Arial_MSFontService,sans-serif" font-stretch="normal" font-size="11" x="72.5" y="0">17</tspan><tspan fill="#006698" font-family="Arial,Arial_MSFontService,sans-serif" font-stretch="normal" font-size="11" x="87.5" y="0">-</tspan></text><path d="M29.5001 694.5 1010.5 694.5" stroke="#C00000" stroke-width="1.33333" stroke-linejoin="round" stroke-miterlimit="10" fill="none" fill-rule="evenodd"/><text fill="#000066" font-family="Arial,Arial_MSFontService,sans-serif" font-weight="700" font-size="11" transform="translate(32 707)">© <tspan fill="#006698" font-family="Arial Black,Arial Black_MSFontService,sans-serif" font-weight="900" font-size="11" x="10.8333" y="0">platinus</tspan><tspan fill="#777777" font-family="Arial Narrow,Arial Narrow_MSFontService,sans-serif" font-weight="400" font-stretch="condensed" font-size="11" x="60.6667" y="0">CONSULTING </tspan><tspan fill="#777777" font-weight="400" font-size="11" x="120.667" y="0">/ </tspan><tspan fill="#777777" font-weight="400" font-size="11" x="126.667" y="0">Projektmanagement Training </tspan><tspan fill="#777777" font-weight="400" font-size="11" x="267.333" y="0">/  PM</tspan><tspan fill="#777777" font-weight="400" font-size="11" x="292.333" y="0">-</tspan><tspan fill="#777777" font-weight="400" font-size="11" x="295.833" y="0">Framework  / 2021</tspan></text><rect x="138.5" y="428.5" width="252" height="164" stroke="#007600" stroke-width="0.333333" stroke-miterlimit="8" fill="#FFFFFF"/><rect x="134.5" y="431.5" width="253" height="157" stroke="#007600" stroke-width="0.333333" stroke-miterlimit="8" fill="#FFFFFF"/><rect x="384" y="459" width="41" height="43" fill="#D9D9D9"/><text font-family="Arial,Arial_MSFontService,sans-serif" font-weight="700" font-size="27" transform="translate(140.457 68)">Das Projektmanagement-<tspan font-size="27" x="320" y="0">System umfasst sowohl die </tspan><tspan font-size="27" x="5.74667" y="29">Sicht auf ALLE Projekte, als auch auf Einzelprojekte</tspan><tspan fill="#C00000" font-size="21" x="-109.957" y="84">High Level PM</tspan><tspan fill="#C00000" font-size="21" x="35.8762" y="84">-</tspan><tspan fill="#C00000" font-size="21" x="43.0428" y="84">System </tspan><tspan font-weight="400" font-size="11" x="822.453" y="80">Übersicht </tspan></text><path d="M962.91 149.064 974.91 149.064 986.91 149.064 998.91 149.064 1010.91 149.064 1010.91 150.064 998.91 150.064 986.91 150.064 974.91 150.064 962.91 150.064Z" fill-rule="evenodd"/><text font-family="Arial,Arial_MSFontService,sans-serif" font-weight="400" font-size="8" transform="translate(925.158 190)">Unternehmensumfeld</text><path d="M59 268.5C59 262.149 73.103 257 90.5 257 107.897 257 122 262.149 122 268.5 122 274.851 107.897 280 90.5 280 73.103 280 59 274.851 59 268.5Z" fill="#F2F2F2" fill-rule="evenodd"/><text font-family="Arial,Arial_MSFontService,sans-serif" font-weight="400" font-size="5" transform="translate(80.1273 270)">Auslöser</text><path d="M918 268.5C918 262.149 932.103 257 949.5 257 966.897 257 981 262.149 981 268.5 981 274.851 966.897 280 949.5 280 932.103 280 918 274.851 918 268.5Z" fill="#F2F2F2" fill-rule="evenodd"/><text font-family="Arial,Arial_MSFontService,sans-serif" font-weight="400" font-size="5" transform="translate(938.427 270)">Abschluß</text><rect x="44" y="198" width="965" height="487" stroke="#D9D9D9" stroke-width="4" stroke-miterlimit="8" fill="none"/><rect x="132.5" y="435.5" width="252" height="160" stroke="#007600" stroke-width="0.333333" stroke-miterlimit="8" fill="#FFFFFF"/><text font-family="Arial,Arial_MSFontService,sans-serif" font-weight="400" font-size="8" transform="translate(391.702 475)">Projekt<tspan font-size="8" x="25" y="0">-</tspan><tspan font-size="8" x="-0.579987" y="9">Pipeline</tspan></text><rect x="70" y="183" width="269" height="29" fill="#FFFFFF"/><text font-family="Arial Black,Arial Black_MSFontService,sans-serif" font-weight="900" font-size="16" transform="translate(79.7417 203)">Projektmanagement<tspan font-size="16" x="177" y="0">-</tspan><tspan font-size="16" x="182.333" y="0">System</tspan></text><rect x="124" y="230" width="789" height="63" fill="#D0D0D0" fill-opacity="0.498039"/><rect x="124" y="356" width="789" height="64" fill="#C3C2C3" fill-opacity="0.498039"/><text font-family="Arial,Arial_MSFontService,sans-serif" font-weight="400" font-size="13" transform="translate(157.849 390)">Vorhaben / Projekte werden durch den <tspan font-weight="700" font-size="13" x="234" y="0">(Produkt</tspan><tspan font-weight="700" font-size="13" x="288.833" y="0">-</tspan><tspan font-weight="700" font-size="13" x="293.333" y="0">, </tspan><tspan font-weight="700" font-size="13" x="300.667" y="0">Projekt</tspan><tspan font-weight="700" font-size="13" x="345.667" y="0">-</tspan><tspan font-weight="700" font-size="13" x="353.833" y="0">und Ressourcen</tspan><tspan font-weight="700" font-size="13" x="458" y="0">-</tspan><tspan font-weight="700" font-size="13" x="462.5" y="0">) Portfolio</tspan><tspan font-weight="700" font-size="13" x="525.5" y="0">-</tspan><tspan font-weight="700" font-size="13" x="530" y="0">Management Prozess</tspan><tspan font-size="13" x="669.5" y="0">(PMP)  </tspan><tspan font-size="13" x="0" y="16">gelenkt, mit Ressourcen ausgestattet und laufend überwacht.</tspan></text><rect x="146" y="216" width="276" height="29" fill="#FFFFFF"/><text fill="#404040" font-family="Arial Black,Arial Black_MSFontService,sans-serif" font-weight="900" font-size="16" transform="translate(156.052 236)">Geschäftsstrategie managen<tspan fill="#000000" font-family="Arial,Arial_MSFontService,sans-serif" font-weight="400" font-size="13" x="-3.10487" y="23">Das </tspan><tspan fill="#000000" font-family="Arial,Arial_MSFontService,sans-serif" font-weight="700" font-size="13" x="24.2285" y="23">Solution</tspan><tspan fill="#000000" font-family="Arial,Arial_MSFontService,sans-serif" font-weight="700" font-size="13" x="77.5618" y="23">-</tspan><tspan fill="#000000" font-family="Arial,Arial_MSFontService,sans-serif" font-weight="700" font-size="13" x="82.0618" y="23">Lifecycle Modell </tspan><tspan fill="#000000" font-family="Arial,Arial_MSFontService,sans-serif" font-weight="400" font-size="13" x="188.228" y="23">wird in drei Abschnitte (</tspan><tspan fill="#000000" font-family="Arial,Arial_MSFontService,sans-serif" font-style="italic" font-weight="400" font-size="13" x="326.228" y="23">Transform, Change, Run</tspan><tspan fill="#000000" font-family="Arial,Arial_MSFontService,sans-serif" font-weight="400" font-size="13" x="472.228" y="23">) gegliedert</tspan><tspan fill="#000000" font-family="Arial,Arial_MSFontService,sans-serif" font-weight="400" font-size="13" x="538.562" y="23">. </tspan><tspan fill="#000000" font-family="Arial,Arial_MSFontService,sans-serif" font-weight="400" font-size="13" x="545.895" y="23">Dieses </tspan><tspan fill="#000000" font-family="Arial,Arial_MSFontService,sans-serif" font-weight="400" font-size="13" x="590.228" y="23">Modell b</tspan><tspan fill="#000000" font-family="Arial,Arial_MSFontService,sans-serif" font-weight="400" font-size="13" x="640.395" y="23">ildet den </tspan><tspan fill="#000000" font-family="Arial,Arial_MSFontService,sans-serif" font-weight="400" font-size="13" x="-3.10487" y="39">Rückgrat für das Management von Strategien. Es schafft die </tspan><tspan fill="#000000" font-family="Arial,Arial_MSFontService,sans-serif" font-weight="700" font-size="13" x="354.728" y="39">Voraussetzung für ein gemeinsames Verständnis zum </tspan><tspan fill="#000000" font-family="Arial,Arial_MSFontService,sans-serif" font-weight="700" font-size="13" x="-3.10487" y="55">zeitlichen Status von Lösungen für alle Beteiligten. </tspan><tspan fill="#000000" font-family="Arial,Arial_MSFontService,sans-serif" font-style="italic" font-weight="400" font-size="11" x="647.311" y="116">Projektportfoliosicht</tspan><tspan fill="#000000" font-family="Arial,Arial_MSFontService,sans-serif" font-style="italic" font-weight="400" font-size="11" x="664.099" y="210">Einzelprojektsicht</tspan></text><path d="M131.5 300.5 391.577 300.5 398.5 318.5 391.577 336.5 131.5 336.5Z" stroke="#000000" stroke-linejoin="round" stroke-miterlimit="10" fill="#E8FCE8" fill-rule="evenodd" fill-opacity="0.498039"/><text font-family="Arial,Arial_MSFontService,sans-serif" font-weight="700" font-size="11" transform="translate(140.74 314)">BSL.T   Solution Transformation <tspan font-size="11" x="166.833" y="0">Processgroup</tspan><tspan font-weight="400" font-size="8" x="0" y="11">Discover</tspan><tspan font-weight="400" font-size="8" x="31.3333" y="11">-</tspan><tspan font-weight="400" font-size="8" x="34" y="11">Define</tspan><tspan font-weight="400" font-size="8" x="57.3333" y="11">-</tspan><tspan font-weight="400" font-size="8" x="60" y="11">Direct  </tspan><tspan font-weight="400" font-size="8" x="85.3333" y="11">--</tspan><tspan font-weight="400" font-size="8" x="92.8333" y="11">Strategie</tspan><tspan font-weight="400" font-size="8" x="127.167" y="11">erstellen</tspan></text><path d="M404.5 300.5 676.385 300.5 683.5 319 676.385 337.5 404.5 337.5Z" stroke="#000000" stroke-linejoin="round" stroke-miterlimit="10" fill="#FAE6AA" fill-rule="evenodd" fill-opacity="0.501961"/><text font-family="Arial,Arial_MSFontService,sans-serif" font-weight="700" font-size="11" transform="translate(413.902 314)">BSL.C  Solution Delivery <tspan font-size="11" x="128.5" y="0">Processgroup</tspan><tspan font-weight="400" font-size="8" x="0" y="11">Design</tspan><tspan font-weight="400" font-size="8" x="25.1667" y="11">-</tspan><tspan font-weight="400" font-size="8" x="27.8333" y="11">Develop</tspan><tspan font-weight="400" font-size="8" x="57.5" y="11">-</tspan><tspan font-weight="400" font-size="8" x="60.1667" y="11">Deploy  </tspan><tspan font-weight="400" font-size="8" x="89.6667" y="11">--</tspan><tspan font-weight="400" font-size="8" x="97.1667" y="11">Strategie</tspan><tspan font-weight="400" font-size="8" x="131.5" y="11">umsetzen</tspan></text><path d="M686.5 300.5 958.385 300.5 965.5 319 958.385 337.5 686.5 337.5Z" stroke="#000000" stroke-linejoin="round" stroke-miterlimit="10" fill="#DFE9FF" fill-rule="evenodd" fill-opacity="0.501961"/><text font-family="Arial,Arial_MSFontService,sans-serif" font-weight="700" font-size="11" transform="translate(695.86 314)">BSL.O  Solution Operation <tspan font-size="11" x="137.833" y="0">Processgroup</tspan><tspan font-weight="400" font-size="8" x="0" y="11">Drive</tspan><tspan font-weight="400" font-size="8" x="18.8333" y="11">-</tspan><tspan font-weight="400" font-size="8" x="21.5" y="11">Devote</tspan><tspan font-weight="400" font-size="8" x="47" y="11">-</tspan><tspan font-weight="400" font-size="8" x="49.6666" y="11">Dismantle  </tspan><tspan font-weight="400" font-size="8" x="89.8333" y="11">--</tspan><tspan font-weight="400" font-size="8" x="97.3333" y="11">Strategie</tspan><tspan font-weight="400" font-size="8" x="131.667" y="11">evaluieren</tspan></text><rect x="429.5" y="431.5" width="269" height="164" stroke="#FFC000" stroke-width="0.333333" stroke-miterlimit="8" fill="none"/><text fill="#C00000" font-family="Arial,Arial_MSFontService,sans-serif" font-weight="700" font-size="13" transform="translate(144.69 451)">Konzeptions-Projekte</text><rect x="124" y="611" width="789" height="65" fill="#D0D0D0" fill-opacity="0.498039"/><text font-family="Arial,Arial_MSFontService,sans-serif" font-weight="400" font-size="13" transform="translate(153.617 650)">Projekte werden durch den <tspan font-weight="700" font-size="13" x="162" y="0">Unternehmensarchitektur</tspan><tspan font-weight="700" font-size="13" x="323.833" y="0">-</tspan><tspan font-weight="700" font-size="13" x="328.333" y="0">Prozess (EA) </tspan><tspan font-size="13" x="414" y="0">wesentlich</tspan><tspan font-size="13" x="479.667" y="0">beeinflusst. Zur EA zählen Architekturen </tspan><tspan font-size="13" x="0" y="16">und Vorgaben zu Zielen, Produkten, Prozessen, Informationen, Applikationen und Infrastruktur.  </tspan></text><rect x="432.5" y="428.5" width="269" height="164" stroke="#FFC000" stroke-width="0.333333" stroke-miterlimit="8" fill="none"/><rect x="425.5" y="435.5" width="269" height="160" stroke="#FFC000" stroke-width="0.333333" stroke-miterlimit="8" fill="#FFFFFF"/><text fill="#C00000" font-family="Arial,Arial_MSFontService,sans-serif" font-weight="700" font-size="13" transform="translate(434.345 451)">Realisierungs-Projekte</text><rect x="146" y="521" width="223" height="21" fill="#7D7D7D" fill-opacity="0.47451"/><rect x="146" y="474" width="223" height="22" fill="#7D7D7D" fill-opacity="0.47451"/><rect x="160" y="463" width="103" height="22" fill="#FFFFFF"/><text fill="#008200" font-family="Arial Black,Arial Black_MSFontService,sans-serif" font-weight="900" font-size="11" transform="translate(169.714 477)">Projekt führen</text><rect x="159" y="510" width="125" height="22" fill="#FFFFFF"/><text fill="#0235AD" font-family="Arial Black,Arial Black_MSFontService,sans-serif" font-weight="900" font-size="11" transform="translate(168.999 525)">Projekt ausführen</text><rect x="146" y="564" width="223" height="20" fill="#7D7D7D" fill-opacity="0.47451"/><rect x="158" y="553" width="140" height="22" fill="#FFFFFF"/><text fill="#00B0F0" font-family="Arial Black,Arial Black_MSFontService,sans-serif" font-weight="900" font-size="11" transform="translate(167.437 567)">Projekt <tspan font-size="11" x="45.5" y="0">unterstützen</tspan></text><rect x="448" y="521" width="222" height="21" fill="#7D7D7D" fill-opacity="0.47451"/><rect x="448" y="474" width="222" height="22" fill="#7D7D7D" fill-opacity="0.47451"/><rect x="462" y="463" width="103" height="22" fill="#FFFFFF"/><text fill="#008200" font-family="Arial Black,Arial Black_MSFontService,sans-serif" font-weight="900" font-size="11" transform="translate(471.398 477)">Projekt führen</text><rect x="461" y="510" width="124" height="22" fill="#FFFFFF"/><text fill="#0235AD" font-family="Arial Black,Arial Black_MSFontService,sans-serif" font-weight="900" font-size="11" transform="translate(470.683 525)">Projekt ausführen</text><rect x="448" y="564" width="222" height="20" fill="#7D7D7D" fill-opacity="0.47451"/><rect x="460" y="553" width="140" height="22" fill="#FFFFFF"/><text fill="#00B0F0" font-family="Arial Black,Arial Black_MSFontService,sans-serif" font-weight="900" font-size="11" transform="translate(469.122 567)">Projekt <tspan font-size="11" x="45.5" y="0">unterstützen</tspan></text><rect x="148" y="343" width="164" height="29" fill="#FFFFFF"/><text fill="#FF9900" font-family="Arial Black,Arial Black_MSFontService,sans-serif" font-weight="900" font-size="16" transform="translate(157.863 363)">Projekte lenken </text><rect x="148" y="603" width="223" height="29" fill="#FFFFFF"/><text fill="#BC9116" font-family="Arial Black,Arial Black_MSFontService,sans-serif" font-weight="900" font-size="16" transform="translate(157.849 623)">Projekte beeinflussen  </text></g></svg>